SplineFontDB: 3.0
FontName: Jaldi-Regular
FullName: Jaldi Regular
FamilyName: Jaldi
Weight: Regular
Copyright: Copyright (c) 2011-2015, Omnibus-Type (www.omnibus-type.com omnibus.type@gmail.com) 
Version: 001.001
ItalicAngle: 0
UnderlinePosition: -50
UnderlineWidth: 50
Ascent: 798
Descent: 202
InvalidEm: 0
sfntRevision: 0x00010041
LayerCount: 2
Layer: 0 0 "Back" 1
Layer: 1 0 "Fore" 0
XUID: [1021 505 -982332716 109637]
FSType: 0
OS2Version: 3
OS2_WeightWidthSlopeOnly: 0
OS2_UseTypoMetrics: 1
CreationTime: 1421254212
ModificationTime: 1422398083
PfmFamily: 17
TTFWeight: 400
TTFWidth: 5
LineGap: 0
VLineGap: 0
Panose: 2 15 5 4 3 2 2 6 2 3
OS2TypoAscent: 616
OS2TypoAOffset: 0
OS2TypoDescent: -383
OS2TypoDOffset: 0
OS2TypoLinegap: 0
OS2WinAscent: 616
OS2WinAOffset: 0
OS2WinDescent: 383
OS2WinDOffset: 0
HheadAscent: 616
HheadAOffset: 0
HheadDescent: -383
HheadDOffset: 0
OS2SubXSize: 302
OS2SubYSize: 279
OS2SubXOff: 0
OS2SubYOff: 34
OS2SupXSize: 302
OS2SupYSize: 279
OS2SupXOff: 0
OS2SupYOff: 163
OS2StrikeYSize: 50
OS2StrikeYPos: 146
OS2CapHeight: 0
OS2XHeight: 0
OS2Vendor: 'OMNI'
OS2CodePages: 20000193.00000000
OS2UnicodeRanges: 20008007.00000000.00000000.00000000
Lookup: 1 0 0 "'aalt' Access All Alternates lookup 0" { "'aalt' Access All Alternates lookup 0 subtable"  } ['aalt' ('DFLT' <'dflt' > 'dev2' <'MAR ' 'NEP ' 'dflt' > 'deva' <'MAR ' 'NEP ' 'dflt' > 'grek' <'dflt' > 'latn' <'CAT ' 'GUA ' 'MOL ' 'NLD ' 'PLK ' 'ROM ' 'TRK ' 'dflt' > ) ]
Lookup: 3 0 0 "'aalt' Access All Alternates lookup 1" { "'aalt' Access All Alternates lookup 1 subtable"  } ['aalt' ('DFLT' <'dflt' > 'dev2' <'MAR ' 'NEP ' 'dflt' > 'deva' <'MAR ' 'NEP ' 'dflt' > 'grek' <'dflt' > 'latn' <'CAT ' 'GUA ' 'MOL ' 'NLD ' 'PLK ' 'ROM ' 'TRK ' 'dflt' > ) ]
Lookup: 4 0 0 "Ligature Substitution lookup 2" { "Ligature Substitution lookup 2 subtable"  } []
Lookup: 4 0 0 "Ligature Substitution lookup 3" { "Ligature Substitution lookup 3 subtable"  } []

StartChar: .notdef
Encoding: 65536 -1 0
Width: 240
VWidth: 466
Flags: MW
HStem: 0 23.5<40.5 199 40.5 236.5> 282 44<26 26 212.5 212.5> 303 23<40 198.5 40 40>
VStem: 3.5 22.5<44.5 44.5 44.5 282> 212.5 24<44.5 282 282 282>
LayerCount: 2
Back
Fore
SplineSet
3.5 0 m 1xb8
 3.5 326 l 1
 236.5 326 l 1
 236.5 0 l 1
 3.5 0 l 1xb8
120 184 m 1
 198.5 303 l 1
 40 303 l 1
 120 184 l 1
26 44.5 m 1
 106 163 l 1
 26 282 l 1xd8
 26 44.5 l 1
212.5 44.5 m 1
 212.5 282 l 1
 133.5 163 l 1
 212.5 44.5 l 1
40.5 23.5 m 1
 199 23.5 l 1
 119.5 142 l 1
 40.5 23.5 l 1
EndSplineSet
EndChar

StartChar: A
Encoding: 65 65 2
Width: 286
VWidth: 466
GlyphClass: 2
Flags: MW
HStem: -1 21G<18.5 25.5 25.5 28 251.75 256.5 256.5 260> 83 35.5<86 197.5 86 210 73 197.5> 284.5 42.5<142 143 142 142>
VStem: 5.5 274.5<4.75 8 4.75 8>
AnchorPoint: "Anchor-1" 143 326 basechar 0
AnchorPoint: "Anchor-0" 145 0 basechar 0
LayerCount: 2
Back
Fore
SplineSet
25.5 -1 m 2
 11.5 -1 5.5 2 5.5 7 c 0
 5.5 9 6 10.5 7 13.5 c 2
 117.5 319.5 l 2
 119.5 325.5 127 327 136 327 c 2
 149.5 327 l 2
 159 327 166.5 325.5 168 319.5 c 2
 278.5 13 l 2
 279.5 10.5 280 9 280 7 c 0
 280 2.5 274 -1 260 -1 c 2
 256.5 -1 l 2
 247 -1 239.5 1 237.5 6.5 c 2
 210 83 l 1
 73 83 l 1
 46.5 6.5 l 2
 44.5 1 37.5 -1 28 -1 c 2
 25.5 -1 l 2
86 118.5 m 1
 197.5 118.5 l 1
 148.5 257 l 2
 146 265.5 144.5 275.5 143 284.5 c 1
 142 284.5 l 1
 140.5 275.5 138.5 266 135 257 c 2
 86 118.5 l 1
EndSplineSet
Substitution2: "Single Substitution lookup 49 subtable" ordfeminine
Substitution2: "'aalt' Access All Alternates lookup 0 subtable" ordfeminine
Position2: "'cpsp' Capital Spacing lookup 0 subtable" dx=5 dy=0 dh=10 dv=0
EndChar

StartChar: Aacute
Encoding: 193 193 3
Width: 286
VWidth: 466
GlyphClass: 2
Flags: MW
HStem: -1 21G<18.5 25.5 25.5 28 251.75 256.5 256.5 260> 83 35.5<86 197.5 86 210 73 197.5> 284.5 42.5<142 143 142 142> 355 68.5<131.25 188>
VStem: 5.5 274.5<4.75 8 4.75 8>
AnchorPoint: "Anchor-1" 143 326 basechar 0
AnchorPoint: "Anchor-0" 145 0 basechar 0
LayerCount: 2
Back
Fore
SplineSet
135 355 m 0
 127.5 355 124.5 356.5 124.5 360 c 0
 124.5 364.5 130 374 151.5 411.5 c 0
 156.5 420.5 165.5 423.5 180.5 423.5 c 0
 195.5 423.5 203 422 203 417.5 c 0
 203 412.5 198 408 159 363.5 c 0
 154 358 145 355 135 355 c 0
25.5 -1 m 2
 11.5 -1 5.5 2 5.5 7 c 0
 5.5 9 6 10.5 7 13.5 c 2
 117.5 319.5 l 2
 119.5 325.5 127 327 136 327 c 2
 149.5 327 l 2
 159 327 166.5 325.5 168 319.5 c 2xe8
 278.5 13 l 2
 279.5 10.5 280 9 280 7 c 0
 280 2.5 274 -1 260 -1 c 2
 256.5 -1 l 2
 247 -1 239.5 1 237.5 6.5 c 2
 210 83 l 1
 73 83 l 1
 46.5 6.5 l 2
 44.5 1 37.5 -1 28 -1 c 2
 25.5 -1 l 2
86 118.5 m 1
 197.5 118.5 l 1
 148.5 257 l 2
 146 265.5 144.5 275.5 143 284.5 c 1
 142 284.5 l 1
 140.5 275.5 138.5 266 135 257 c 2xe8
 86 118.5 l 1
EndSplineSet
Position2: "'cpsp' Capital Spacing lookup 0 subtable" dx=5 dy=0 dh=10 dv=0
EndChar

StartChar: Abreve
Encoding: 258 258 4
Width: 286
VWidth: 466
GlyphClass: 2
Flags: MW
HStem: -1 21G<18.5 25.5 25.5 28 251.75 256.5 256.5 260> 83 35.5<86 197.5 86 210 73 197.5> 284.5 42.5<142 143 142 142> 355 49
VStem: 75.5 134.5<390.75 411>
AnchorPoint: "Anchor-1" 143 395 basechar 0
AnchorPoint: "Anchor-0" 145 0 basechar 0
LayerCount: 2
Back
Fore
SplineSet
143 355 m 0
 109.5 355 75.5 373 75.5 408.5 c 0
 75.5 413.5 77.5 415.5 82.5 415.5 c 0
 90.5 415.5 89 411.5 93 404 c 0
 100 391 120.5 386 143 386 c 0
 166 386 186 391 193 404 c 0
 196.5 411.5 195.5 415.5 203 415.5 c 0
 208.5 415.5 210 413.5 210 408.5 c 0
 210 373 176 355 143 355 c 0
25.5 -1 m 2
 11.5 -1 5.5 2 5.5 7 c 0
 5.5 9 6 10.5 7 13.5 c 2
 117.5 319.5 l 2
 119.5 325.5 127 327 136 327 c 2
 149.5 327 l 2
 159 327 166.5 325.5 168 319.5 c 2xe8
 278.5 13 l 2
 279.5 10.5 280 9 280 7 c 0
 280 2.5 274 -1 260 -1 c 2
 256.5 -1 l 2
 247 -1 239.5 1 237.5 6.5 c 2
 210 83 l 1
 73 83 l 1
 46.5 6.5 l 2
 44.5 1 37.5 -1 28 -1 c 2
 25.5 -1 l 2
86 118.5 m 1
 197.5 118.5 l 1
 148.5 257 l 2
 146 265.5 144.5 275.5 143 284.5 c 1
 142 284.5 l 1
 140.5 275.5 138.5 266 135 257 c 2xe8
 86 118.5 l 1
EndSplineSet
Position2: "'cpsp' Capital Spacing lookup 0 subtable" dx=5 dy=0 dh=10 dv=0
EndChar

StartChar: uni1EAE
Encoding: 7854 7854 5
Width: 286
VWidth: 466
GlyphClass: 2
Flags: MW
HStem: -1 21G<18.5 25.5 25.5 28 251.75 256.5 256.5 260> 83 35.5<86 197.5 86 210 73 197.5> 284.5 42.5<142 143 142 142> 355 44 397 64<134.75 180.25>
VStem: 5.5 274.5<4.75 8 4.75 8> 75.5 134.5<388 405.75>
AnchorPoint: "Anchor-1" 143 399 basechar 0
AnchorPoint: "Anchor-0" 145 0 basechar 0
LayerCount: 2
Back
Fore
SplineSet
138.5 397 m 0xec
 131 397 127.5 398.5 127.5 401.5 c 0
 127.5 406 132.5 414.5 150 448.5 c 0
 155 457.5 164 461 175 461 c 0
 185.5 461 189.5 459.5 189.5 454.5 c 0
 189.5 450 186 446.5 155 405.5 c 0
 151 400 146.5 397 138.5 397 c 0xec
143 355 m 0xf2
 109.5 355 75.5 372.5 75.5 403.5 c 0
 75.5 408 77.5 410.5 82.5 410.5 c 0
 90.5 410.5 87 405.5 93 399 c 0
 100 390.5 120.5 379.5 143 379.5 c 0
 166 379.5 186 389.5 193 399 c 0
 197.5 405.5 195.5 410.5 203 410.5 c 0
 208.5 410.5 210 408 210 403.5 c 0
 210 372.5 176 355 143 355 c 0xf2
25.5 -1 m 2
 11.5 -1 5.5 2 5.5 7 c 0
 5.5 9 6 10.5 7 13.5 c 2
 117.5 319.5 l 2
 119.5 325.5 127 327 136 327 c 2
 149.5 327 l 2
 159 327 166.5 325.5 168 319.5 c 2xea
 278.5 13 l 2
 279.5 10.5 280 9 280 7 c 0
 280 2.5 274 -1 260 -1 c 2
 256.5 -1 l 2
 247 -1 239.5 1 237.5 6.5 c 2
 210 83 l 1
 73 83 l 1
 46.5 6.5 l 2
 44.5 1 37.5 -1 28 -1 c 2
 25.5 -1 l 2
86 118.5 m 1
 197.5 118.5 l 1
 148.5 257 l 2
 146 265.5 144.5 275.5 143 284.5 c 1
 142 284.5 l 1
 140.5 275.5 138.5 266 135 257 c 2xea
 86 118.5 l 1
EndSplineSet
Position2: "'cpsp' Capital Spacing lookup 0 subtable" dx=5 dy=0 dh=10 dv=0
EndChar

StartChar: uni1EB6
Encoding: 7862 7862 6
Width: 286
VWidth: 466
GlyphClass: 2
Flags: MW
HStem: -81.5 34<126 152> -1 21G<18.5 25.5 25.5 28 251.75 256.5 256.5 260> 83 35.5<86 197.5 86 210 73 197.5> 284.5 42.5<142 143 142 142> 355 49
VStem: 75.5 134.5<390.75 411> 126 39<-71.5 -47.5 -74.5 -44.5>
AnchorPoint: "Anchor-1" 143 395 basechar 0
AnchorPoint: "Anchor-0" 145 -95 basechar 0
LayerCount: 2
Back
Fore
SplineSet
143 355 m 0xfc
 109.5 355 75.5 373 75.5 408.5 c 0
 75.5 413.5 77.5 415.5 82.5 415.5 c 0
 90.5 415.5 89 411.5 93 404 c 0
 100 391 120.5 386 143 386 c 0
 166 386 186 391 193 404 c 0
 196.5 411.5 195.5 415.5 203 415.5 c 0
 208.5 415.5 210 413.5 210 408.5 c 0
 210 373 176 355 143 355 c 0xfc
25.5 -1 m 2
 11.5 -1 5.5 2 5.5 7 c 0
 5.5 9 6 10.5 7 13.5 c 2
 117.5 319.5 l 2
 119.5 325.5 127 327 136 327 c 2
 149.5 327 l 2
 159 327 166.5 325.5 168 319.5 c 2xf4
 278.5 13 l 2
 279.5 10.5 280 9 280 7 c 0
 280 2.5 274 -1 260 -1 c 2
 256.5 -1 l 2
 247 -1 239.5 1 237.5 6.5 c 2
 210 83 l 1
 73 83 l 1
 46.5 6.5 l 2
 44.5 1 37.5 -1 28 -1 c 2
 25.5 -1 l 2
86 118.5 m 1
 197.5 118.5 l 1
 148.5 257 l 2
 146 265.5 144.5 275.5 143 284.5 c 1
 142 284.5 l 1
 140.5 275.5 138.5 266 135 257 c 2xf4
 86 118.5 l 1
144.5 -81.5 m 0xf2
 131.5 -81.5 126 -78 126 -71.5 c 2
 126 -47.5 l 2
 126 -41.5 131.5 -37.5 146.5 -37.5 c 0
 159.5 -37.5 165 -41 165 -47.5 c 2
 165 -71.5 l 2
 165 -77.5 159.5 -81.5 144.5 -81.5 c 0xf2
EndSplineSet
Position2: "'cpsp' Capital Spacing lookup 0 subtable" dx=5 dy=0 dh=10 dv=0
EndChar

StartChar: uni1EB0
Encoding: 7856 7856 7
Width: 286
VWidth: 466
GlyphClass: 2
Flags: MW
HStem: -1 21G<18.5 25.5 25.5 28 251.75 256.5 256.5 260> 83 35.5<86 197.5 86 210 73 197.5> 284.5 42.5<142 143 142 142> 355 44 397 64<115.75 156.25>
VStem: 5.5 274.5<4.75 8 4.75 8> 75.5 134.5<388 405.75>
AnchorPoint: "Anchor-1" 143 399 basechar 0
AnchorPoint: "Anchor-0" 145 0 basechar 0
LayerCount: 2
Back
Fore
SplineSet
152.5 397 m 0xec
 146.5 397 139.5 400 136 405.5 c 0
 109.5 446.5 106 450 106 454.5 c 0
 106 459.5 109 461 122.5 461 c 0
 131.5 461 142 457.5 145.5 448.5 c 0
 160 414.5 163.5 406 163.5 401.5 c 0
 163.5 398.5 160 397 152.5 397 c 0xec
143 355 m 0xf2
 109.5 355 75.5 372.5 75.5 403.5 c 0
 75.5 408 77.5 410.5 82.5 410.5 c 0
 90.5 410.5 87 405.5 93 399 c 0
 100 390.5 120.5 379.5 143 379.5 c 0
 166 379.5 186 389.5 193 399 c 0
 197.5 405.5 195.5 410.5 203 410.5 c 0
 208.5 410.5 210 408 210 403.5 c 0
 210 372.5 176 355 143 355 c 0xf2
25.5 -1 m 2
 11.5 -1 5.5 2 5.5 7 c 0
 5.5 9 6 10.5 7 13.5 c 2
 117.5 319.5 l 2
 119.5 325.5 127 327 136 327 c 2
 149.5 327 l 2
 159 327 166.5 325.5 168 319.5 c 2xea
 278.5 13 l 2
 279.5 10.5 280 9 280 7 c 0
 280 2.5 274 -1 260 -1 c 2
 256.5 -1 l 2
 247 -1 239.5 1 237.5 6.5 c 2
 210 83 l 1
 73 83 l 1
 46.5 6.5 l 2
 44.5 1 37.5 -1 28 -1 c 2
 25.5 -1 l 2
86 118.5 m 1
 197.5 118.5 l 1
 148.5 257 l 2
 146 265.5 144.5 275.5 143 284.5 c 1
 142 284.5 l 1
 140.5 275.5 138.5 266 135 257 c 2xea
 86 118.5 l 1
EndSplineSet
Position2: "'cpsp' Capital Spacing lookup 0 subtable" dx=5 dy=0 dh=10 dv=0
EndChar

StartChar: uni1EB2
Encoding: 7858 7858 8
Width: 286
VWidth: 466
GlyphClass: 2
Flags: MW
HStem: -1 21G<18.5 25.5 25.5 28 251.75 256.5 256.5 260> 83 35.5<86 197.5 86 210 73 197.5> 284.5 42.5<142 143 142 142> 355 44 447 22.5<132 141.25>
VStem: 75.5 134.5<388 405.75> 153.5 27<431.25 438.5>
AnchorPoint: "Anchor-1" 143 464 basechar 0
AnchorPoint: "Anchor-0" 145 0 basechar 0
LayerCount: 2
Back
Fore
SplineSet
145 397.5 m 0xea
 135 397.5 127.5 402.5 127.5 407 c 0
 127.5 410.5 132 413 139.5 417 c 0
 148.5 422 153.5 428 153.5 434.5 c 0
 153.5 442.5 146 447 136.5 447 c 0
 122 447 117.5 441 115 441 c 0
 111.5 441 104 451.5 104 456 c 0
 104 462.5 124 469.5 140 469.5 c 0
 156 469.5 180.5 462 180.5 437.5 c 0
 180.5 423 172 414.5 164 408 c 0
 157.5 402 147.5 397.5 145 397.5 c 0xea
143 355 m 0xfc
 109.5 355 75.5 372.5 75.5 403.5 c 0
 75.5 408 77.5 410.5 82.5 410.5 c 0
 90.5 410.5 87 405.5 93 399 c 0
 100 390.5 120.5 379.5 143 379.5 c 0
 166 379.5 186 389.5 193 399 c 0
 197.5 405.5 195.5 410.5 203 410.5 c 0
 208.5 410.5 210 408 210 403.5 c 0
 210 372.5 176 355 143 355 c 0xfc
25.5 -1 m 2
 11.5 -1 5.5 2 5.5 7 c 0
 5.5 9 6 10.5 7 13.5 c 2
 117.5 319.5 l 2
 119.5 325.5 127 327 136 327 c 2
 149.5 327 l 2
 159 327 166.5 325.5 168 319.5 c 2xec
 278.5 13 l 2
 279.5 10.5 280 9 280 7 c 0
 280 2.5 274 -1 260 -1 c 2
 256.5 -1 l 2
 247 -1 239.5 1 237.5 6.5 c 2
 210 83 l 1
 73 83 l 1
 46.5 6.5 l 2
 44.5 1 37.5 -1 28 -1 c 2
 25.5 -1 l 2
86 118.5 m 1
 197.5 118.5 l 1
 148.5 257 l 2
 146 265.5 144.5 275.5 143 284.5 c 1
 142 284.5 l 1
 140.5 275.5 138.5 266 135 257 c 2xec
 86 118.5 l 1
EndSplineSet
Position2: "'cpsp' Capital Spacing lookup 0 subtable" dx=5 dy=0 dh=10 dv=0
EndChar

StartChar: uni1EB4
Encoding: 7860 7860 9
Width: 286
VWidth: 466
GlyphClass: 2
Flags: MW
HStem: -1 21G<18.5 25.5 25.5 28 251.75 256.5 256.5 260> 83 35.5<86 197.5 86 210 73 197.5> 284.5 42.5<142 143 142 142> 355 44 431.5 26<169.5 183.25 169.5 187> 451.5 26<100 113.5>
VStem: 5.5 274.5<4.75 8 4.75 8> 75.5 134.5<388 405.75>
AnchorPoint: "Anchor-1" 143 399 basechar 0
AnchorPoint: "Anchor-0" 145 0 basechar 0
LayerCount: 2
Back
Fore
SplineSet
74 432 m 2xea
 69.5 433.5 l 2xea
 66.5 435 65.5 437 65.5 439.5 c 0
 65.5 441 66 443 67 445.5 c 0
 76 469 88.5 477.5 106 477.5 c 0xe6
 130.5 477.5 159.5 457.5 179.5 457.5 c 0
 187 457.5 192 461 198 471 c 0
 201 476 203.5 478 206.5 478 c 0
 208 478 209 477.5 211 476.5 c 2
 214 475 l 2
 217.5 474 219 472 219 469.5 c 0
 219 468 218.5 466 217.5 463 c 0
 208 440 195.5 431.5 178.5 431.5 c 0xea
 152.5 431.5 123.5 451.5 103.5 451.5 c 0xe6
 96.5 451.5 92 447.5 86 437.5 c 0
 83 432.5 81 430.5 78 430.5 c 0
 77 430.5 75.5 431 74 432 c 2xea
143 355 m 0xf9
 109.5 355 75.5 372.5 75.5 403.5 c 0
 75.5 408 77.5 410.5 82.5 410.5 c 0
 90.5 410.5 87 405.5 93 399 c 0
 100 390.5 120.5 379.5 143 379.5 c 0
 166 379.5 186 389.5 193 399 c 0
 197.5 405.5 195.5 410.5 203 410.5 c 0
 208.5 410.5 210 408 210 403.5 c 0
 210 372.5 176 355 143 355 c 0xf9
25.5 -1 m 2
 11.5 -1 5.5 2 5.5 7 c 0
 5.5 9 6 10.5 7 13.5 c 2
 117.5 319.5 l 2
 119.5 325.5 127 327 136 327 c 2
 149.5 327 l 2
 159 327 166.5 325.5 168 319.5 c 2xe9
 278.5 13 l 2
 279.5 10.5 280 9 280 7 c 0
 280 2.5 274 -1 260 -1 c 2
 256.5 -1 l 2
 247 -1 239.5 1 237.5 6.5 c 2
 210 83 l 1
 73 83 l 1
 46.5 6.5 l 2
 44.5 1 37.5 -1 28 -1 c 2
 25.5 -1 l 2
86 118.5 m 1
 197.5 118.5 l 1
 148.5 257 l 2
 146 265.5 144.5 275.5 143 284.5 c 1
 142 284.5 l 1
 140.5 275.5 138.5 266 135 257 c 2xe9
 86 118.5 l 1
EndSplineSet
Position2: "'cpsp' Capital Spacing lookup 0 subtable" dx=5 dy=0 dh=10 dv=0
EndChar

StartChar: Acircumflex
Encoding: 194 194 10
Width: 286
VWidth: 466
GlyphClass: 2
Flags: MW
HStem: -1 21G<18.5 25.5 25.5 28 251.75 256.5 256.5 260> 83 35.5<86 197.5 86 210 73 197.5> 284.5 42.5<142 143 142 142> 391.5 25.5<142.5 142.5>
VStem: 5.5 274.5<4.75 8 4.75 8>
AnchorPoint: "Anchor-1" 219 373 basechar 0
AnchorPoint: "Anchor-0" 145 0 basechar 0
LayerCount: 2
Back
Fore
SplineSet
97.5 351 m 2
 90.5 351 87 353 87 357.5 c 0
 87 360 87.5 362.5 89.5 366 c 2
 115.5 407 l 2
 120.5 414 128 417 137 417 c 2
 149 417 l 2
 158 417 165.5 414 170 407 c 2
 197 366 l 2
 198.5 363 199.5 360 199.5 358 c 0
 199.5 353.5 196 351 188.5 351 c 2
 187.5 351 l 2
 181.5 351 176.5 353 172 357 c 2
 142.5 391.5 l 1
 114.5 357 l 2
 109.5 353 105 351 98.5 351 c 2
 97.5 351 l 2
25.5 -1 m 2
 11.5 -1 5.5 2 5.5 7 c 0
 5.5 9 6 10.5 7 13.5 c 2
 117.5 319.5 l 2
 119.5 325.5 127 327 136 327 c 2
 149.5 327 l 2
 159 327 166.5 325.5 168 319.5 c 2
 278.5 13 l 2
 279.5 10.5 280 9 280 7 c 0
 280 2.5 274 -1 260 -1 c 2
 256.5 -1 l 2
 247 -1 239.5 1 237.5 6.5 c 2
 210 83 l 1
 73 83 l 1
 46.5 6.5 l 2
 44.5 1 37.5 -1 28 -1 c 2
 25.5 -1 l 2
86 118.5 m 1
 197.5 118.5 l 1
 148.5 257 l 2
 146 265.5 144.5 275.5 143 284.5 c 1
 142 284.5 l 1
 140.5 275.5 138.5 266 135 257 c 2
 86 118.5 l 1
EndSplineSet
Position2: "'cpsp' Capital Spacing lookup 0 subtable" dx=5 dy=0 dh=10 dv=0
EndChar

StartChar: uni1EA4
Encoding: 7844 7844 11
Width: 286
VWidth: 466
GlyphClass: 2
Flags: MW
HStem: -1 21G<18.5 25.5 25.5 28 251.75 256.5 256.5 260> 83 35.5<86 197.5 86 210 73 197.5> 284.5 42.5<142 143 142 142> 384 33
VStem: 5.5 274.5<4.75 8 4.75 8>
AnchorPoint: "Anchor-1" 209 386 basechar 0
AnchorPoint: "Anchor-0" 145 0 basechar 0
LayerCount: 2
Back
Fore
SplineSet
204 384 m 0
 196.5 384 193 385.5 193 388.5 c 0
 193 393 198 401.5 215.5 435.5 c 0
 220.5 444.5 229.5 448 240.5 448 c 0
 251 448 255 446.5 255 441.5 c 0
 255 437 251.5 433.5 220.5 392.5 c 0
 216.5 387 212 384 204 384 c 0
99 351 m 2
 92 351 88.5 353 88.5 357.5 c 0
 88.5 360 89 362.5 91 366 c 2
 117 407 l 2
 122 414 129.5 417 138.5 417 c 2
 150.5 417 l 2
 157.5 417 163.5 413 167 407 c 2
 191.5 366 l 2
 193 363 194 360 194 358 c 0
 194 353.5 190.5 351 183 351 c 2
 182 351 l 2
 176 351 169.5 353 166.5 357 c 2
 144 391.5 l 1
 116 357 l 2
 111 353 106.5 351 100 351 c 2
 99 351 l 2
25.5 -1 m 2
 11.5 -1 5.5 2 5.5 7 c 0
 5.5 9 6 10.5 7 13.5 c 2
 117.5 319.5 l 2
 119.5 325.5 127 327 136 327 c 2
 149.5 327 l 2
 159 327 166.5 325.5 168 319.5 c 2
 278.5 13 l 2
 279.5 10.5 280 9 280 7 c 0
 280 2.5 274 -1 260 -1 c 2
 256.5 -1 l 2
 247 -1 239.5 1 237.5 6.5 c 2
 210 83 l 1
 73 83 l 1
 46.5 6.5 l 2
 44.5 1 37.5 -1 28 -1 c 2
 25.5 -1 l 2
86 118.5 m 1
 197.5 118.5 l 1
 148.5 257 l 2
 146 265.5 144.5 275.5 143 284.5 c 1
 142 284.5 l 1
 140.5 275.5 138.5 266 135 257 c 2
 86 118.5 l 1
EndSplineSet
Position2: "'cpsp' Capital Spacing lookup 0 subtable" dx=5 dy=0 dh=10 dv=0
EndChar

StartChar: uni1EAC
Encoding: 7852 7852 12
Width: 286
VWidth: 466
GlyphClass: 2
Flags: MW
HStem: -81.5 34<126 152> -1 21G<18.5 25.5 25.5 28 251.75 256.5 256.5 260> 83 35.5<86 197.5 86 210 73 197.5> 284.5 42.5<142 143 142 142> 391.5 25.5<142.5 142.5>
VStem: 126 39<-71.5 -47.5 -74.5 -44.5>
AnchorPoint: "Anchor-1" 219 373 basechar 0
AnchorPoint: "Anchor-0" 145 -95 basechar 0
LayerCount: 2
Back
Fore
SplineSet
97.5 351 m 2
 90.5 351 87 353 87 357.5 c 0
 87 360 87.5 362.5 89.5 366 c 2
 115.5 407 l 2
 120.5 414 128 417 137 417 c 2
 149 417 l 2
 158 417 165.5 414 170 407 c 2
 197 366 l 2
 198.5 363 199.5 360 199.5 358 c 0
 199.5 353.5 196 351 188.5 351 c 2
 187.5 351 l 2
 181.5 351 176.5 353 172 357 c 2
 142.5 391.5 l 1
 114.5 357 l 2
 109.5 353 105 351 98.5 351 c 2
 97.5 351 l 2
25.5 -1 m 2
 11.5 -1 5.5 2 5.5 7 c 0
 5.5 9 6 10.5 7 13.5 c 2
 117.5 319.5 l 2
 119.5 325.5 127 327 136 327 c 2
 149.5 327 l 2
 159 327 166.5 325.5 168 319.5 c 2
 278.5 13 l 2
 279.5 10.5 280 9 280 7 c 0
 280 2.5 274 -1 260 -1 c 2
 256.5 -1 l 2
 247 -1 239.5 1 237.5 6.5 c 2
 210 83 l 1
 73 83 l 1
 46.5 6.5 l 2
 44.5 1 37.5 -1 28 -1 c 2
 25.5 -1 l 2
86 118.5 m 1
 197.5 118.5 l 1
 148.5 257 l 2
 146 265.5 144.5 275.5 143 284.5 c 1
 142 284.5 l 1
 140.5 275.5 138.5 266 135 257 c 2
 86 118.5 l 1
144.5 -81.5 m 0
 131.5 -81.5 126 -78 126 -71.5 c 2
 126 -47.5 l 2
 126 -41.5 131.5 -37.5 146.5 -37.5 c 0
 159.5 -37.5 165 -41 165 -47.5 c 2
 165 -71.5 l 2
 165 -77.5 159.5 -81.5 144.5 -81.5 c 0
EndSplineSet
Position2: "'cpsp' Capital Spacing lookup 0 subtable" dx=5 dy=0 dh=10 dv=0
EndChar

StartChar: uni1EA6
Encoding: 7846 7846 13
Width: 286
VWidth: 466
GlyphClass: 2
Flags: MW
HStem: -1 21G<18.5 25.5 25.5 28 251.75 256.5 256.5 260> 83 35.5<86 197.5 86 210 73 197.5> 284.5 42.5<142 143 142 142> 384 64<181.25 221.75> 391.5 25.5<144 144>
VStem: 5.5 274.5<4.75 8 4.75 8>
AnchorPoint: "Anchor-1" 209 386 basechar 0
AnchorPoint: "Anchor-0" 145 0 basechar 0
LayerCount: 2
Back
Fore
SplineSet
218 384 m 0xf4
 212 384 205 387 201.5 392.5 c 0
 175 433.5 171.5 437 171.5 441.5 c 0
 171.5 446.5 174.5 448 188 448 c 0
 197 448 207.5 444.5 211 435.5 c 0
 225.5 401.5 229 393 229 388.5 c 0
 229 385.5 225.5 384 218 384 c 0xf4
99 351 m 2xec
 92 351 88.5 353 88.5 357.5 c 0
 88.5 360 89 362.5 91 366 c 2
 117 407 l 2
 122 414 129.5 417 138.5 417 c 2
 150.5 417 l 2
 157.5 417 163.5 413 167 407 c 2
 191.5 366 l 2
 193 363 194 360 194 358 c 0
 194 353.5 190.5 351 183 351 c 2
 182 351 l 2
 176 351 169.5 353 166.5 357 c 2
 144 391.5 l 1
 116 357 l 2
 111 353 106.5 351 100 351 c 2
 99 351 l 2xec
25.5 -1 m 2
 11.5 -1 5.5 2 5.5 7 c 0
 5.5 9 6 10.5 7 13.5 c 2
 117.5 319.5 l 2
 119.5 325.5 127 327 136 327 c 2
 149.5 327 l 2
 159 327 166.5 325.5 168 319.5 c 2
 278.5 13 l 2
 279.5 10.5 280 9 280 7 c 0
 280 2.5 274 -1 260 -1 c 2
 256.5 -1 l 2
 247 -1 239.5 1 237.5 6.5 c 2
 210 83 l 1
 73 83 l 1
 46.5 6.5 l 2
 44.5 1 37.5 -1 28 -1 c 2
 25.5 -1 l 2
86 118.5 m 1
 197.5 118.5 l 1
 148.5 257 l 2
 146 265.5 144.5 275.5 143 284.5 c 1
 142 284.5 l 1
 140.5 275.5 138.5 266 135 257 c 2
 86 118.5 l 1
EndSplineSet
Position2: "'cpsp' Capital Spacing lookup 0 subtable" dx=5 dy=0 dh=10 dv=0
EndChar

StartChar: uni1EA8
Encoding: 7848 7848 14
Width: 286
VWidth: 466
GlyphClass: 2
Flags: MW
HStem: -1 21G<18.5 25.5 25.5 28 251.75 256.5 256.5 260> 83 35.5<86 197.5 86 210 73 197.5> 284.5 42.5<142 143 142 142> 391.5 25.5<144 144> 434 22.5<197.5 206.75>
VStem: 219 27<418.25 425.5>
AnchorPoint: "Anchor-1" 209 451 basechar 0
AnchorPoint: "Anchor-0" 145 0 basechar 0
LayerCount: 2
Back
Fore
SplineSet
210.5 384.5 m 0
 200.5 384.5 193 389.5 193 394 c 0
 193 397.5 197.5 400 205 404 c 0
 214 409 219 415 219 421.5 c 0
 219 429.5 211.5 434 202 434 c 0
 187.5 434 183 428 180.5 428 c 0
 177 428 169.5 438.5 169.5 443 c 0
 169.5 449.5 189.5 456.5 205.5 456.5 c 0
 221.5 456.5 246 449 246 424.5 c 0
 246 410 237.5 401.5 229.5 395 c 0
 223 389 213 384.5 210.5 384.5 c 0
99 351 m 2xfc
 92 351 88.5 353 88.5 357.5 c 0
 88.5 360 89 362.5 91 366 c 2
 117 407 l 2
 122 414 129.5 417 138.5 417 c 2
 150.5 417 l 2
 157.5 417 163.5 413 167 407 c 2
 191.5 366 l 2
 193 363 194 360 194 358 c 0
 194 353.5 190.5 351 183 351 c 2
 182 351 l 2
 176 351 169.5 353 166.5 357 c 2
 144 391.5 l 1
 116 357 l 2
 111 353 106.5 351 100 351 c 2
 99 351 l 2xfc
25.5 -1 m 2
 11.5 -1 5.5 2 5.5 7 c 0
 5.5 9 6 10.5 7 13.5 c 2
 117.5 319.5 l 2
 119.5 325.5 127 327 136 327 c 2
 149.5 327 l 2
 159 327 166.5 325.5 168 319.5 c 2
 278.5 13 l 2
 279.5 10.5 280 9 280 7 c 0
 280 2.5 274 -1 260 -1 c 2
 256.5 -1 l 2
 247 -1 239.5 1 237.5 6.5 c 2
 210 83 l 1
 73 83 l 1
 46.5 6.5 l 2
 44.5 1 37.5 -1 28 -1 c 2
 25.5 -1 l 2
86 118.5 m 1
 197.5 118.5 l 1
 148.5 257 l 2
 146 265.5 144.5 275.5 143 284.5 c 1
 142 284.5 l 1
 140.5 275.5 138.5 266 135 257 c 2
 86 118.5 l 1
EndSplineSet
Position2: "'cpsp' Capital Spacing lookup 0 subtable" dx=5 dy=0 dh=10 dv=0
EndChar

StartChar: uni1EAA
Encoding: 7850 7850 15
Width: 286
VWidth: 466
GlyphClass: 2
Flags: MW
HStem: -1 21G<18.5 25.5 25.5 28 251.75 256.5 256.5 260> 83 35.5<86 197.5 86 210 73 197.5> 284.5 42.5<142 143 142 142> 380.5 25.5<142.5 142.5> 423.5 26<172 185.75 172 189.5> 443.5 26<102.5 116>
VStem: 5.5 274.5<4.75 8 4.75 8>
AnchorPoint: "Anchor-1" 143 326 basechar 0
AnchorPoint: "Anchor-0" 145 0 basechar 0
LayerCount: 2
Back
Fore
SplineSet
76.5 424 m 2xea
 72 425.5 l 2xea
 69 427 68 429 68 431.5 c 0
 68 433 68.5 435 69.5 437.5 c 0
 78.5 461 91 469.5 108.5 469.5 c 0xe6
 133 469.5 162 449.5 182 449.5 c 0
 189.5 449.5 194.5 453 200.5 463 c 0
 203.5 468 206 470 209 470 c 0
 210.5 470 211.5 469.5 213.5 468.5 c 2
 216.5 467 l 2
 220 466 221.5 464 221.5 461.5 c 0
 221.5 460 221 458 220 455 c 0
 210.5 432 198 423.5 181 423.5 c 0xea
 155 423.5 126 443.5 106 443.5 c 0xe6
 99 443.5 94.5 439.5 88.5 429.5 c 0
 85.5 424.5 83.5 422.5 80.5 422.5 c 0
 79.5 422.5 78 423 76.5 424 c 2xea
97.5 351 m 2xfa
 90.5 351 87 353 87 357.5 c 0
 87 360 87.5 362.5 89.5 366 c 2
 115.5 395.5 l 2
 122 401.5 128 406 137 406 c 2
 149 406 l 2
 158 406 164 401.5 170 395.5 c 2
 197 366 l 2
 198.5 363 199.5 360 199.5 358 c 0
 199.5 353.5 196 351 188.5 351 c 2
 187.5 351 l 2
 181.5 351 177 353.5 172 357 c 2
 142.5 380.5 l 1
 114.5 357 l 2
 109.5 353.5 105 351 98.5 351 c 2
 97.5 351 l 2xfa
25.5 -1 m 2
 11.5 -1 5.5 2 5.5 7 c 0
 5.5 9 6 10.5 7 13.5 c 2
 117.5 319.5 l 2
 119.5 325.5 127 327 136 327 c 2
 149.5 327 l 2
 159 327 166.5 325.5 168 319.5 c 2
 278.5 13 l 2
 279.5 10.5 280 9 280 7 c 0
 280 2.5 274 -1 260 -1 c 2
 256.5 -1 l 2
 247 -1 239.5 1 237.5 6.5 c 2
 210 83 l 1
 73 83 l 1
 46.5 6.5 l 2
 44.5 1 37.5 -1 28 -1 c 2
 25.5 -1 l 2
86 118.5 m 1
 197.5 118.5 l 1
 148.5 257 l 2
 146 265.5 144.5 275.5 143 284.5 c 1
 142 284.5 l 1
 140.5 275.5 138.5 266 135 257 c 2
 86 118.5 l 1
EndSplineSet
Position2: "'cpsp' Capital Spacing lookup 0 subtable" dx=5 dy=0 dh=10 dv=0
EndChar

StartChar: Adieresis
Encoding: 196 196 16
Width: 286
VWidth: 466
GlyphClass: 2
Flags: MW
HStem: -1 21G<18.5 25.5 25.5 28 251.75 256.5 256.5 260> 83 35.5<86 197.5 86 210 73 197.5> 284.5 42.5<142 143 142 142> 365.5 34<90 116>
VStem: 90 39<375.5 399.5 372.5 402.5> 157 39<375.5 399.5 372.5 402.5>
AnchorPoint: "Anchor-1" 143 326 basechar 0
AnchorPoint: "Anchor-0" 145 0 basechar 0
LayerCount: 2
Back
Fore
SplineSet
108.5 365.5 m 0
 95.5 365.5 90 369 90 375.5 c 2
 90 399.5 l 2
 90 405.5 95.5 409.5 110.5 409.5 c 0
 123.5 409.5 129 406 129 399.5 c 2
 129 375.5 l 2
 129 369.5 123.5 365.5 108.5 365.5 c 0
175.5 365.5 m 0xfc
 162.5 365.5 157 369 157 375.5 c 2
 157 399.5 l 2
 157 405.5 162.5 409.5 177.5 409.5 c 0
 190.5 409.5 196 406 196 399.5 c 2
 196 375.5 l 2
 196 369.5 190.5 365.5 175.5 365.5 c 0xfc
25.5 -1 m 2
 11.5 -1 5.5 2 5.5 7 c 0
 5.5 9 6 10.5 7 13.5 c 2
 117.5 319.5 l 2
 119.5 325.5 127 327 136 327 c 2
 149.5 327 l 2
 159 327 166.5 325.5 168 319.5 c 2
 278.5 13 l 2
 279.5 10.5 280 9 280 7 c 0
 280 2.5 274 -1 260 -1 c 2
 256.5 -1 l 2
 247 -1 239.5 1 237.5 6.5 c 2
 210 83 l 1
 73 83 l 1
 46.5 6.5 l 2
 44.5 1 37.5 -1 28 -1 c 2
 25.5 -1 l 2
86 118.5 m 1
 197.5 118.5 l 1
 148.5 257 l 2
 146 265.5 144.5 275.5 143 284.5 c 1
 142 284.5 l 1
 140.5 275.5 138.5 266 135 257 c 2
 86 118.5 l 1
EndSplineSet
Position2: "'cpsp' Capital Spacing lookup 0 subtable" dx=5 dy=0 dh=10 dv=0
EndChar

StartChar: uni1EA0
Encoding: 7840 7840 17
Width: 286
VWidth: 466
GlyphClass: 2
Flags: MW
HStem: -81.5 34<126 152> -1 21G<18.5 25.5 25.5 28 251.75 256.5 256.5 260> 83 35.5<86 197.5 86 210 73 197.5> 284.5 42.5<142 143 142 142>
VStem: 126 39<-71.5 -47.5 -74.5 -44.5>
AnchorPoint: "Anchor-1" 143 326 basechar 0
AnchorPoint: "Anchor-0" 145 -95 basechar 0
LayerCount: 2
Back
Fore
SplineSet
25.5 -1 m 2
 11.5 -1 5.5 2 5.5 7 c 0
 5.5 9 6 10.5 7 13.5 c 2
 117.5 319.5 l 2
 119.5 325.5 127 327 136 327 c 2
 149.5 327 l 2
 159 327 166.5 325.5 168 319.5 c 2
 278.5 13 l 2
 279.5 10.5 280 9 280 7 c 0
 280 2.5 274 -1 260 -1 c 2
 256.5 -1 l 2
 247 -1 239.5 1 237.5 6.5 c 2
 210 83 l 1
 73 83 l 1
 46.5 6.5 l 2
 44.5 1 37.5 -1 28 -1 c 2
 25.5 -1 l 2
86 118.5 m 1
 197.5 118.5 l 1
 148.5 257 l 2
 146 265.5 144.5 275.5 143 284.5 c 1
 142 284.5 l 1
 140.5 275.5 138.5 266 135 257 c 2
 86 118.5 l 1
144.5 -81.5 m 0
 131.5 -81.5 126 -78 126 -71.5 c 2
 126 -47.5 l 2
 126 -41.5 131.5 -37.5 146.5 -37.5 c 0
 159.5 -37.5 165 -41 165 -47.5 c 2
 165 -71.5 l 2
 165 -77.5 159.5 -81.5 144.5 -81.5 c 0
EndSplineSet
Position2: "'cpsp' Capital Spacing lookup 0 subtable" dx=5 dy=0 dh=10 dv=0
EndChar

StartChar: Agrave
Encoding: 192 192 18
Width: 286
VWidth: 466
GlyphClass: 2
Flags: MW
HStem: -1 21G<18.5 25.5 25.5 28 251.75 256.5 256.5 260> 83 35.5<86 197.5 86 210 73 197.5> 284.5 42.5<142 143 142 142> 355 68.5<103 159.25>
VStem: 5.5 274.5<4.75 8 4.75 8>
AnchorPoint: "Anchor-1" 143 326 basechar 0
AnchorPoint: "Anchor-0" 145 0 basechar 0
LayerCount: 2
Back
Fore
SplineSet
155.5 355 m 0
 146 355 137 358 132 363.5 c 0
 92.5 408 88 412.5 88 417.5 c 0
 88 422 95.5 423.5 110.5 423.5 c 0
 125.5 423.5 134 420.5 139 411.5 c 0
 160.5 374 166.5 364.5 166.5 360 c 0
 166.5 356.5 163 355 155.5 355 c 0
25.5 -1 m 2
 11.5 -1 5.5 2 5.5 7 c 0
 5.5 9 6 10.5 7 13.5 c 2
 117.5 319.5 l 2
 119.5 325.5 127 327 136 327 c 2
 149.5 327 l 2
 159 327 166.5 325.5 168 319.5 c 2xe8
 278.5 13 l 2
 279.5 10.5 280 9 280 7 c 0
 280 2.5 274 -1 260 -1 c 2
 256.5 -1 l 2
 247 -1 239.5 1 237.5 6.5 c 2
 210 83 l 1
 73 83 l 1
 46.5 6.5 l 2
 44.5 1 37.5 -1 28 -1 c 2
 25.5 -1 l 2
86 118.5 m 1
 197.5 118.5 l 1
 148.5 257 l 2
 146 265.5 144.5 275.5 143 284.5 c 1
 142 284.5 l 1
 140.5 275.5 138.5 266 135 257 c 2xe8
 86 118.5 l 1
EndSplineSet
Position2: "'cpsp' Capital Spacing lookup 0 subtable" dx=5 dy=0 dh=10 dv=0
EndChar

StartChar: uni1EA2
Encoding: 7842 7842 19
Width: 286
VWidth: 466
GlyphClass: 2
Flags: MW
HStem: -1 21G<18.5 25.5 25.5 28 251.75 256.5 256.5 260> 83 35.5<86 197.5 86 210 73 197.5> 284.5 42.5<142 143 142 142> 408 24<138.25 147.25>
VStem: 160 28.5<384 399.75>
AnchorPoint: "Anchor-1" 143 409 basechar 0
AnchorPoint: "Anchor-0" 145 0 basechar 0
LayerCount: 2
Back
Fore
SplineSet
146.5 345 m 0
 142 345 131 348.5 131 353 c 0
 131 366.5 160 372.5 160 395.5 c 0
 160 404 152 408 142.5 408 c 0
 128 408 123.5 402 121 402 c 0
 117.5 402 110 413 110 417.5 c 0
 110 423.5 130 432 146.5 432 c 0
 162 432 188.5 424.5 188.5 399 c 0
 188.5 368 152 345 146.5 345 c 0
25.5 -1 m 2
 11.5 -1 5.5 2 5.5 7 c 0
 5.5 9 6 10.5 7 13.5 c 2
 117.5 319.5 l 2
 119.5 325.5 127 327 136 327 c 2
 149.5 327 l 2
 159 327 166.5 325.5 168 319.5 c 2
 278.5 13 l 2
 279.5 10.5 280 9 280 7 c 0
 280 2.5 274 -1 260 -1 c 2
 256.5 -1 l 2
 247 -1 239.5 1 237.5 6.5 c 2
 210 83 l 1
 73 83 l 1
 46.5 6.5 l 2
 44.5 1 37.5 -1 28 -1 c 2
 25.5 -1 l 2
86 118.5 m 1
 197.5 118.5 l 1
 148.5 257 l 2
 146 265.5 144.5 275.5 143 284.5 c 1
 142 284.5 l 1
 140.5 275.5 138.5 266 135 257 c 2
 86 118.5 l 1
EndSplineSet
Position2: "'cpsp' Capital Spacing lookup 0 subtable" dx=5 dy=0 dh=10 dv=0
EndChar

StartChar: Amacron
Encoding: 256 256 20
Width: 286
VWidth: 466
GlyphClass: 2
Flags: MW
HStem: -1 21G<18.5 25.5 25.5 28 251.75 256.5 256.5 260> 83 35.5<86 197.5 86 210 73 197.5> 284.5 42.5<142 143 142 142> 367.5 33<87.75 195 91 195>
VStem: 81.5 122.5<381.5 386.5 376.75 391.25>
AnchorPoint: "Anchor-1" 143 326 basechar 0
AnchorPoint: "Anchor-0" 145 0 basechar 0
LayerCount: 2
Back
Fore
SplineSet
91 367.5 m 2
 84.5 367.5 81.5 372 81.5 381.5 c 2
 81.5 386.5 l 2
 81.5 396 84.5 400.5 91 400.5 c 2
 195 400.5 l 2
 201.5 400.5 204 396 204 386.5 c 2
 204 381.5 l 2
 204 372 201.5 367.5 195 367.5 c 2
 91 367.5 l 2
25.5 -1 m 2
 11.5 -1 5.5 2 5.5 7 c 0
 5.5 9 6 10.5 7 13.5 c 2
 117.5 319.5 l 2
 119.5 325.5 127 327 136 327 c 2
 149.5 327 l 2
 159 327 166.5 325.5 168 319.5 c 2
 278.5 13 l 2
 279.5 10.5 280 9 280 7 c 0
 280 2.5 274 -1 260 -1 c 2
 256.5 -1 l 2
 247 -1 239.5 1 237.5 6.5 c 2
 210 83 l 1
 73 83 l 1
 46.5 6.5 l 2
 44.5 1 37.5 -1 28 -1 c 2
 25.5 -1 l 2
86 118.5 m 1
 197.5 118.5 l 1
 148.5 257 l 2
 146 265.5 144.5 275.5 143 284.5 c 1
 142 284.5 l 1
 140.5 275.5 138.5 266 135 257 c 2
 86 118.5 l 1
EndSplineSet
Position2: "'cpsp' Capital Spacing lookup 0 subtable" dx=5 dy=0 dh=10 dv=0
EndChar

StartChar: Aogonek
Encoding: 260 260 21
Width: 286
VWidth: 466
GlyphClass: 2
Flags: MW
HStem: -85.5 33<290 299 290 301.75> -1 21G<18.5 25.5 25.5 28> -0.5 21G 0 21G 83 35.5<86 197.5 86 210 73 197.5> 284.5 42.5<142 143 142 142>
VStem: 235 31.5<-40.25 -32.75>
AnchorPoint: "Anchor-1" 143 326 basechar 0
AnchorPoint: "Anchor-0" 145 0 basechar 0
LayerCount: 2
Back
Fore
SplineSet
319.5 -48 m 0x9e
 325 -48 328.5 -51.5 328.5 -59.5 c 0
 328.5 -80.5 313.5 -85.5 290 -85.5 c 0
 240.5 -85.5 235 -51.5 235 -37.5 c 0
 235 -28 236.5 -10 246.5 0 c 1
 242 1 238.5 3 237.5 6.5 c 2x9e
 210 83 l 1
 73 83 l 1
 46.5 6.5 l 2
 44.5 1 37.5 -1 28 -1 c 2
 25.5 -1 l 2
 11.5 -1 5.5 2 5.5 7 c 0
 5.5 9 6 10.5 7 13.5 c 2xce
 117.5 319.5 l 2
 119.5 325.5 127 327 136 327 c 2
 149.5 327 l 2
 159 327 166.5 325.5 168 319.5 c 2
 278.5 13 l 2
 279.5 10.5 280 9 280 7 c 0
 280 4 277.5 1.5 272 -0.5 c 1xae
 272 -7 266.5 -17.5 266.5 -29 c 0
 266.5 -51.5 284.5 -52.5 295.5 -52.5 c 0
 302.5 -52.5 312 -48 319.5 -48 c 0x9e
86 118.5 m 1
 197.5 118.5 l 1
 148.5 257 l 2
 146 265.5 144.5 275.5 143 284.5 c 1
 142 284.5 l 1
 140.5 275.5 138.5 266 135 257 c 2
 86 118.5 l 1
EndSplineSet
Position2: "'cpsp' Capital Spacing lookup 0 subtable" dx=5 dy=0 dh=10 dv=0
EndChar

StartChar: Aring
Encoding: 197 197 22
Width: 286
VWidth: 466
GlyphClass: 2
Flags: MW
HStem: -1 21G<18.5 25.5 25.5 28 251.75 256.5 256.5 260> 83 35.5<86 197.5 86 210 73 197.5> 284.5 42.5<142 143 142 142> 345.5 16<136 149 136 153.5> 408 16<136 149>
VStem: 103.5 16<378 391 378 395.5> 166 16<378 391>
AnchorPoint: "Anchor-1" 143 326 basechar 0
AnchorPoint: "Anchor-0" 145 0 basechar 0
LayerCount: 2
Back
Fore
SplineSet
142.5 345.5 m 0
 120.5 345.5 103.5 362.5 103.5 384.5 c 0
 103.5 406.5 120.5 424 142.5 424 c 0
 164.5 424 182 406.5 182 384.5 c 0
 182 362.5 164.5 345.5 142.5 345.5 c 0
142.5 361.5 m 0
 155.5 361.5 166 371.5 166 384.5 c 0
 166 397.5 155.5 408 142.5 408 c 0
 129.5 408 119.5 397.5 119.5 384.5 c 0
 119.5 371.5 129.5 361.5 142.5 361.5 c 0
25.5 -1 m 2
 11.5 -1 5.5 2 5.5 7 c 0
 5.5 9 6 10.5 7 13.5 c 2
 117.5 319.5 l 2
 119.5 325.5 127 327 136 327 c 2
 149.5 327 l 2
 159 327 166.5 325.5 168 319.5 c 2xee
 278.5 13 l 2
 279.5 10.5 280 9 280 7 c 0
 280 2.5 274 -1 260 -1 c 2
 256.5 -1 l 2
 247 -1 239.5 1 237.5 6.5 c 2
 210 83 l 1
 73 83 l 1
 46.5 6.5 l 2
 44.5 1 37.5 -1 28 -1 c 2
 25.5 -1 l 2
86 118.5 m 1
 197.5 118.5 l 1
 148.5 257 l 2
 146 265.5 144.5 275.5 143 284.5 c 1
 142 284.5 l 1
 140.5 275.5 138.5 266 135 257 c 2xee
 86 118.5 l 1
EndSplineSet
Position2: "'cpsp' Capital Spacing lookup 0 subtable" dx=5 dy=0 dh=10 dv=0
EndChar

StartChar: Aringacute
Encoding: 506 506 23
Width: 286
VWidth: 466
GlyphClass: 2
Flags: MW
HStem: -1 21G<18.5 25.5 25.5 28 251.75 256.5 256.5 260> 83 35.5<86 197.5 86 210 73 197.5> 284.5 22.5<142 143 142 142> 353.5 16<136.5 149.5> 383 50<131.25 178>
VStem: 104 16<325.25 336.5 323.5 341> 166.5 16<325.25 336.5>
LayerCount: 2
Back
Fore
SplineSet
135 383 m 0
 127.5 383 124.5 384.5 124.5 387.5 c 0
 133 404.5 136 410.5 141.5 421 c 0
 147 430 155.5 433 170.5 433 c 0
 185.5 433 193 431.5 193 427 c 0
 193 423.5 188.5 421.5 159 391.5 c 0
 154 386 145 383 135 383 c 0
278.5 13 m 2
 279.5 10.5 280 9 280 7 c 0
 280 2.5 274 -1 260 -1 c 2
 256.5 -1 l 2
 247 -1 239.5 1 237.5 6.5 c 2
 210 83 l 1
 73 83 l 1
 46.5 6.5 l 2
 44.5 1 37.5 -1 28 -1 c 2
 25.5 -1 l 2
 11.5 -1 5.5 2 5.5 7 c 0
 5.5 9 6 10.5 7 13.5 c 2
 112.5 305.5 l 1
 107 312 104 320.5 104 330 c 0
 104 352 121 369.5 143 369.5 c 0
 165 369.5 182.5 352 182.5 330 c 0
 182.5 320.5 179 311.5 173.5 304.5 c 1xd6
 278.5 13 l 2
143 353.5 m 0xf6
 130 353.5 120 343 120 330 c 0
 120 317 130 307 143 307 c 0
 156 307 166.5 317 166.5 330 c 0
 166.5 343 156 353.5 143 353.5 c 0xf6
86 118.5 m 1
 197.5 118.5 l 1
 148.5 257 l 2
 146 265.5 144.5 275.5 143 284.5 c 1
 142 284.5 l 1
 140.5 275.5 138.5 266 135 257 c 2
 86 118.5 l 1
EndSplineSet
Position2: "'cpsp' Capital Spacing lookup 0 subtable" dx=5 dy=0 dh=10 dv=0
EndChar

StartChar: Atilde
Encoding: 195 195 24
Width: 286
VWidth: 466
GlyphClass: 2
Flags: MW
HStem: -1 21G<18.5 25.5 25.5 28 251.75 256.5 256.5 260> 83 35.5<86 197.5 86 210 73 197.5> 284.5 42.5<142 143 142 142> 358 26<176.5 191.75 176.5 196> 378 26<100.25 115>
VStem: 5.5 274.5<4.75 8 4.75 8>
AnchorPoint: "Anchor-1" 143 326 basechar 0
AnchorPoint: "Anchor-0" 145 0 basechar 0
LayerCount: 2
Back
Fore
SplineSet
71.5 358.5 m 2xf4
 66.5 360 l 2xf4
 63.5 361.5 62.5 363.5 62.5 366 c 0
 62.5 367.5 63 369.5 64 372 c 0
 74 395.5 87.5 404 107 404 c 0xec
 134 404 165.5 384 187.5 384 c 0
 196 384 201.5 387.5 208 397.5 c 0
 211.5 402.5 214 404.5 217.5 404.5 c 0
 219 404.5 220 404 222.5 403 c 2
 225.5 401.5 l 2
 229.5 400.5 231 398.5 231 396 c 0
 231 394.5 230.5 392.5 229.5 389.5 c 0
 219 366.5 205.5 358 186.5 358 c 0xf4
 158 358 126 378 104 378 c 0xec
 96.5 378 91.5 374 85 364 c 0
 81.5 359 79.5 357 76 357 c 0
 75 357 73.5 357.5 71.5 358.5 c 2xf4
25.5 -1 m 2
 11.5 -1 5.5 2 5.5 7 c 0
 5.5 9 6 10.5 7 13.5 c 2
 117.5 319.5 l 2
 119.5 325.5 127 327 136 327 c 2
 149.5 327 l 2
 159 327 166.5 325.5 168 319.5 c 2
 278.5 13 l 2
 279.5 10.5 280 9 280 7 c 0
 280 2.5 274 -1 260 -1 c 2
 256.5 -1 l 2
 247 -1 239.5 1 237.5 6.5 c 2
 210 83 l 1
 73 83 l 1
 46.5 6.5 l 2
 44.5 1 37.5 -1 28 -1 c 2
 25.5 -1 l 2
86 118.5 m 1
 197.5 118.5 l 1
 148.5 257 l 2
 146 265.5 144.5 275.5 143 284.5 c 1
 142 284.5 l 1
 140.5 275.5 138.5 266 135 257 c 2
 86 118.5 l 1
EndSplineSet
Position2: "'cpsp' Capital Spacing lookup 0 subtable" dx=5 dy=0 dh=10 dv=0
EndChar

StartChar: AE
Encoding: 198 198 25
Width: 427
VWidth: 466
GlyphClass: 2
Flags: MW
HStem: 0 35.5<235.5 374 260.5 374 260.5 374> 83 35<89.5 201 89.5 209 71.5 201> 149 35.5<236 360 236 236> 284.5 41.5<168 169 168 168> 291 35<205 373.5 205 205>
VStem: -5 388.5<4.5 14>
AnchorPoint: "Anchor-1" 214 326 basechar 0
AnchorPoint: "Anchor-0" 0 0 basechar 0
LayerCount: 2
Back
Fore
SplineSet
13 -1 m 2xec
 -1 -1 -5 2 -5 7 c 0
 -5 9 -4.5 11.5 -3.5 14.5 c 2
 146.5 313.5 l 2
 150.5 322.5 156.5 326 166.5 326 c 2
 373.5 326 l 2
 380.5 326 383 322 383 312 c 2
 383 305 l 2
 383 295 380.5 291 373.5 291 c 2
 205 291 l 1
 228.5 184.5 l 1
 360 184.5 l 2
 366.5 184.5 369 180.5 369 170.5 c 2
 369 163 l 2
 369 153.5 366.5 149 360 149 c 2
 236 149 l 1
 260.5 35.5 l 1
 374 35.5 l 2
 380.5 35.5 383.5 31 383.5 21.5 c 2
 383.5 14 l 2
 383.5 4 380.5 0 374 0 c 2
 240.5 0 l 2
 230.5 0 225.5 4 223.5 13.5 c 2
 209 83 l 1
 71.5 83 l 1
 34 6.5 l 2
 31 1.5 24 -1 15.5 -1 c 2
 13 -1 l 2xec
89.5 118 m 1
 201 118 l 1
 171 257 l 1
 169 284.5 l 1
 168 284.5 l 1
 158.5 257 l 1xf4
 89.5 118 l 1
EndSplineSet
Position2: "'cpsp' Capital Spacing lookup 0 subtable" dx=5 dy=0 dh=10 dv=0
EndChar

StartChar: AEacute
Encoding: 508 508 26
Width: 427
VWidth: 466
GlyphClass: 2
Flags: MW
HStem: 0 35.5<235.5 374 260.5 374 260.5 374> 83 35<89.5 201 89.5 209 71.5 201> 149 35.5<236 360 236 236> 284.5 41.5<168 169 168 168> 291 35<205 373.5 205 205> 355 68.5<201.75 258.5>
VStem: -5 388.5<4.5 14>
AnchorPoint: "Anchor-1" 214 326 basechar 0
AnchorPoint: "Anchor-0" 0 0 basechar 0
LayerCount: 2
Back
Fore
SplineSet
205.5 355 m 0xee
 198 355 195 356.5 195 360 c 0
 195 364.5 200.5 374 222 411.5 c 0
 227 420.5 236 423.5 251 423.5 c 0
 266 423.5 273.5 422 273.5 417.5 c 0
 273.5 412.5 268.5 408 229.5 363.5 c 0
 224.5 358 215.5 355 205.5 355 c 0xee
13 -1 m 2
 -1 -1 -5 2 -5 7 c 0
 -5 9 -4.5 11.5 -3.5 14.5 c 2
 146.5 313.5 l 2
 150.5 322.5 156.5 326 166.5 326 c 2
 373.5 326 l 2
 380.5 326 383 322 383 312 c 2
 383 305 l 2
 383 295 380.5 291 373.5 291 c 2
 205 291 l 1xea
 228.5 184.5 l 1
 360 184.5 l 2
 366.5 184.5 369 180.5 369 170.5 c 2
 369 163 l 2
 369 153.5 366.5 149 360 149 c 2
 236 149 l 1
 260.5 35.5 l 1
 374 35.5 l 2
 380.5 35.5 383.5 31 383.5 21.5 c 2
 383.5 14 l 2
 383.5 4 380.5 0 374 0 c 2
 240.5 0 l 2
 230.5 0 225.5 4 223.5 13.5 c 2
 209 83 l 1
 71.5 83 l 1
 34 6.5 l 2
 31 1.5 24 -1 15.5 -1 c 2
 13 -1 l 2
89.5 118 m 1
 201 118 l 1
 171 257 l 1
 169 284.5 l 1
 168 284.5 l 1
 158.5 257 l 1xf2
 89.5 118 l 1
EndSplineSet
Position2: "'cpsp' Capital Spacing lookup 0 subtable" dx=5 dy=0 dh=10 dv=0
EndChar

StartChar: B
Encoding: 66 66 27
Width: 277
VWidth: 466
GlyphClass: 2
Flags: MW
HStem: 0 35.5<54.25 154 86 139.5> 150 35.5<86 140.5 140.5 146.5 86 140.5> 291 35<86 138.5 86 86>
VStem: 45 41<35.5 35.5 35.5 150 185.5 291> 204.5 42.5<228 257.25> 218.5 42.5<77 112.5>
LayerCount: 2
Back
Fore
SplineSet
59 0 m 2xf4
 49.5 0 45 4 45 14 c 2
 45 312 l 2
 45 322 49.5 326 59 326 c 2
 142.5 326 l 2
 212 326 247 292.5 247 243.5 c 0xf8
 247 212.5 222.5 180.5 195.5 173 c 1
 195.5 171 l 1
 195.5 171 261 155 261 93.5 c 0
 261 29 217.5 0 139.5 0 c 2
 59 0 l 2xf4
86 185.5 m 1
 140.5 185.5 l 2
 178 185.5 204.5 209.5 204.5 240 c 0
 204.5 274.5 185 291 138.5 291 c 2xf8
 86 291 l 1
 86 185.5 l 1
86 35.5 m 1
 154 35.5 l 2
 195.5 35.5 218.5 58.5 218.5 95.5 c 0
 218.5 129.5 194.5 150 146.5 150 c 2xf4
 86 150 l 1
 86 35.5 l 1
EndSplineSet
Position2: "'cpsp' Capital Spacing lookup 0 subtable" dx=5 dy=0 dh=10 dv=0
EndChar

StartChar: C
Encoding: 67 67 28
Width: 289
VWidth: 466
GlyphClass: 2
Flags: MW
HStem: -3 35.5<140 200.5 140 203.75> 293.5 35.5<141.25 200.5 127.75 200.75>
VStem: 26.5 42.5<117.75 208.5 117.75 218.75>
AnchorPoint: "Anchor-1" 166 326 basechar 0
AnchorPoint: "Anchor-0" 168 0 basechar 0
LayerCount: 2
Back
Fore
SplineSet
176.5 -3 m 0
 74.5 -3 26.5 49.5 26.5 163 c 0
 26.5 274.5 78 329 177.5 329 c 0
 223.5 329 266.5 312.5 266.5 300 c 0
 266.5 292 257 273 250.5 273 c 0
 245.5 273 223 293.5 178.5 293.5 c 0
 104 293.5 69 254.5 69 162.5 c 0
 69 73 103.5 32.5 176.5 32.5 c 0
 224.5 32.5 250.5 56 257 56 c 0
 263 56 273 36.5 273 31 c 0
 273 18 231 -3 176.5 -3 c 0
EndSplineSet
Position2: "'cpsp' Capital Spacing lookup 0 subtable" dx=5 dy=0 dh=10 dv=0
EndChar

StartChar: Cacute
Encoding: 262 262 29
Width: 289
VWidth: 466
GlyphClass: 2
Flags: MW
HStem: -3 35.5<140 200.5 140 203.75> 293.5 35.5<141.25 200.5 127.75 200.75> 355 68.5<153.75 210.5>
VStem: 26.5 42.5<117.75 208.5 117.75 218.75>
AnchorPoint: "Anchor-1" 166 326 basechar 0
AnchorPoint: "Anchor-0" 168 0 basechar 0
LayerCount: 2
Back
Fore
SplineSet
157.5 355 m 0
 150 355 147 356.5 147 360 c 0
 147 364.5 152.5 374 174 411.5 c 0
 179 420.5 188 423.5 203 423.5 c 0
 218 423.5 225.5 422 225.5 417.5 c 0
 225.5 412.5 220.5 408 181.5 363.5 c 0
 176.5 358 167.5 355 157.5 355 c 0
176.5 -3 m 0
 74.5 -3 26.5 49.5 26.5 163 c 0
 26.5 274.5 78 329 177.5 329 c 0
 223.5 329 266.5 312.5 266.5 300 c 0
 266.5 292 257 273 250.5 273 c 0
 245.5 273 223 293.5 178.5 293.5 c 0xd0
 104 293.5 69 254.5 69 162.5 c 0
 69 73 103.5 32.5 176.5 32.5 c 0
 224.5 32.5 250.5 56 257 56 c 0
 263 56 273 36.5 273 31 c 0
 273 18 231 -3 176.5 -3 c 0
EndSplineSet
Substitution2: "'locl' Localized Forms in Latin lookup 14 subtable" Cacute.loclPLK
Substitution2: "'aalt' Access All Alternates lookup 0 subtable" Cacute.loclPLK
Position2: "'cpsp' Capital Spacing lookup 0 subtable" dx=5 dy=0 dh=10 dv=0
EndChar

StartChar: Ccaron
Encoding: 268 268 30
Width: 289
VWidth: 466
GlyphClass: 2
Flags: MW
HStem: -3 35.5<140 200.5 140 203.75> 293.5 35.5<141.25 200.5 127.75 200.75> 353.5 26<155 165 165 165 165 171.5>
VStem: 26.5 42.5<117.75 208.5 117.75 218.75>
AnchorPoint: "Anchor-1" 166 326 basechar 0
AnchorPoint: "Anchor-0" 168 0 basechar 0
LayerCount: 2
Back
Fore
SplineSet
159.5 353.5 m 2
 150.5 353.5 143 357 138 364 c 2
 112 405 l 2
 110 408 109.5 411 109.5 413.5 c 0
 109.5 417.5 113 420 120 420 c 2
 121 420 l 2
 127.5 420 132 418 137 414 c 2
 165 379.5 l 1
 194.5 414 l 2
 199 418 204 420 210 420 c 2
 211 420 l 2
 218.5 420 222 417 222 413 c 0
 222 410.5 221 408 219.5 405 c 2
 192.5 364 l 2
 188 357 180.5 353.5 171.5 353.5 c 2
 159.5 353.5 l 2
176.5 -3 m 0
 74.5 -3 26.5 49.5 26.5 163 c 0
 26.5 274.5 78 329 177.5 329 c 0
 223.5 329 266.5 312.5 266.5 300 c 0
 266.5 292 257 273 250.5 273 c 0
 245.5 273 223 293.5 178.5 293.5 c 0xd0
 104 293.5 69 254.5 69 162.5 c 0
 69 73 103.5 32.5 176.5 32.5 c 0
 224.5 32.5 250.5 56 257 56 c 0
 263 56 273 36.5 273 31 c 0
 273 18 231 -3 176.5 -3 c 0
EndSplineSet
Position2: "'cpsp' Capital Spacing lookup 0 subtable" dx=5 dy=0 dh=10 dv=0
EndChar

StartChar: Ccedilla
Encoding: 199 199 31
Width: 289
VWidth: 466
GlyphClass: 2
Flags: MW
HStem: -98 23<150 160 145.75 172.25> -3 35.5<178 178> -2.5 35 293.5 35.5<141.25 200.5 127.75 200.75>
VStem: 26.5 42.5<117.75 208.5 117.75 218.75> 181 33<-65.75 -48>
AnchorPoint: "Anchor-1" 166 326 basechar 0
AnchorPoint: "Anchor-0" 168 0 basechar 0
LayerCount: 2
Back
Fore
SplineSet
273 31 m 0xdc
 273 18 232 -2.5 178 -3 c 1
 172.5 -23 l 1
 174.5 -23 l 2xdc
 185 -23 214 -26 214 -56.5 c 0
 214 -92.5 184 -98 160.5 -98 c 0
 139.5 -98 107 -90.5 107 -78 c 0
 107 -72 109 -65.5 116 -65.5 c 0
 123.5 -65.5 137 -75 154.5 -75 c 0
 165.5 -75 181 -73 181 -58.5 c 0
 181 -37.5 150.5 -44.5 150.5 -31.5 c 0
 150.5 -28 151 -24.5 158 -2.5 c 1xbc
 69 3.5 26.5 56.5 26.5 163 c 0
 26.5 274.5 78 329 177.5 329 c 0
 223.5 329 266.5 312.5 266.5 300 c 0
 266.5 292 257 273 250.5 273 c 0
 245.5 273 223 293.5 178.5 293.5 c 0
 104 293.5 69 254.5 69 162.5 c 0
 69 73 103.5 32.5 176.5 32.5 c 0
 224.5 32.5 250.5 56 257 56 c 0
 263 56 273 36.5 273 31 c 0xdc
EndSplineSet
Position2: "'cpsp' Capital Spacing lookup 0 subtable" dx=5 dy=0 dh=10 dv=0
EndChar

StartChar: Ccircumflex
Encoding: 264 264 32
Width: 289
VWidth: 466
GlyphClass: 2
Flags: MW
HStem: -3 35.5<140 200.5 140 203.75> 293.5 35.5<141.25 200.5 127.75 200.75> 391.5 25.5<165 165>
VStem: 26.5 42.5<117.75 208.5 117.75 218.75>
AnchorPoint: "Anchor-1" 242 373 basechar 0
AnchorPoint: "Anchor-0" 168 0 basechar 0
LayerCount: 2
Back
Fore
SplineSet
120 351 m 2
 113 351 109.5 353 109.5 357.5 c 0
 109.5 360 110 362.5 112 366 c 2
 138 407 l 2
 143 414 150.5 417 159.5 417 c 2
 171.5 417 l 2
 180.5 417 188 414 192.5 407 c 2
 219.5 366 l 2
 221 363 222 360 222 358 c 0
 222 353.5 218.5 351 211 351 c 2
 210 351 l 2
 204 351 199 353 194.5 357 c 2
 165 391.5 l 1
 137 357 l 2
 132 353 127.5 351 121 351 c 2
 120 351 l 2
176.5 -3 m 0
 74.5 -3 26.5 49.5 26.5 163 c 0
 26.5 274.5 78 329 177.5 329 c 0
 223.5 329 266.5 312.5 266.5 300 c 0
 266.5 292 257 273 250.5 273 c 0
 245.5 273 223 293.5 178.5 293.5 c 0
 104 293.5 69 254.5 69 162.5 c 0
 69 73 103.5 32.5 176.5 32.5 c 0
 224.5 32.5 250.5 56 257 56 c 0
 263 56 273 36.5 273 31 c 0
 273 18 231 -3 176.5 -3 c 0
EndSplineSet
Position2: "'cpsp' Capital Spacing lookup 0 subtable" dx=5 dy=0 dh=10 dv=0
EndChar

StartChar: Cdotaccent
Encoding: 266 266 33
Width: 289
VWidth: 466
GlyphClass: 2
Flags: MW
HStem: -3 35.5<140 200.5 140 203.75> 293.5 35.5<141.25 200.5 127.75 200.75> 365.5 34<146 172>
VStem: 26.5 42.5<117.75 208.5 117.75 218.75> 146 39<375.5 399.5 372.5 402.5>
AnchorPoint: "Anchor-1" 166 326 basechar 0
AnchorPoint: "Anchor-0" 168 0 basechar 0
LayerCount: 2
Back
Fore
SplineSet
164.5 365.5 m 0
 151.5 365.5 146 369 146 375.5 c 2
 146 399.5 l 2
 146 405.5 151.5 409.5 166.5 409.5 c 0
 179.5 409.5 185 406 185 399.5 c 2
 185 375.5 l 2
 185 369.5 179.5 365.5 164.5 365.5 c 0
176.5 -3 m 0
 74.5 -3 26.5 49.5 26.5 163 c 0
 26.5 274.5 78 329 177.5 329 c 0
 223.5 329 266.5 312.5 266.5 300 c 0
 266.5 292 257 273 250.5 273 c 0
 245.5 273 223 293.5 178.5 293.5 c 0
 104 293.5 69 254.5 69 162.5 c 0
 69 73 103.5 32.5 176.5 32.5 c 0
 224.5 32.5 250.5 56 257 56 c 0
 263 56 273 36.5 273 31 c 0
 273 18 231 -3 176.5 -3 c 0
EndSplineSet
Position2: "'cpsp' Capital Spacing lookup 0 subtable" dx=5 dy=0 dh=10 dv=0
EndChar

StartChar: D
Encoding: 68 68 34
Width: 324
VWidth: 466
GlyphClass: 2
Flags: MW
HStem: 0 35.5<54.25 150 86 150 150 153.5> 291 35<86 150 86 86>
VStem: 45 41<35.5 35.5 35.5 291> 255 42.5<116.5 209.5>
AnchorPoint: "Anchor-1" 146 326 basechar 0
AnchorPoint: "Anchor-0" 153 0 basechar 0
LayerCount: 2
Back
Fore
SplineSet
59 0 m 2
 49.5 0 45 4 45 14 c 2
 45 312 l 2
 45 322 49.5 326 59 326 c 2
 153.5 326 l 2
 233.5 326 297.5 284 297.5 163 c 0
 297.5 42 233.5 0 153.5 0 c 2
 59 0 l 2
86 35.5 m 1
 150 35.5 l 2
 208.5 35.5 255 70 255 163 c 0
 255 256 208.5 291 150 291 c 2
 86 291 l 1
 86 35.5 l 1
EndSplineSet
Position2: "'cpsp' Capital Spacing lookup 0 subtable" dx=5 dy=0 dh=10 dv=0
EndChar

StartChar: uni01F1
Encoding: 497 497 35
Width: 611
VWidth: 466
GlyphClass: 2
Flags: MW
HStem: 0 35.5<54.25 150 86 150 150 153.5 397.5 580> 291 35<86 150 86 86 366.5 534>
VStem: 45 41<35.5 35.5 35.5 291> 255 42.5<116.5 209.5>
AnchorPoint: "Anchor-1" 468 326 basechar 0
AnchorPoint: "Anchor-0" 472 0 basechar 0
LayerCount: 2
Back
Fore
SplineSet
59 0 m 2
 49.5 0 45 4 45 14 c 2
 45 312 l 2
 45 322 49.5 326 59 326 c 2
 153.5 326 l 2
 233.5 326 297.5 284 297.5 163 c 0
 297.5 42 233.5 0 153.5 0 c 2
 59 0 l 2
353 0 m 2
 348 0 341.5 15.5 341.5 24.5 c 0
 341.5 27 342 29 343 30.5 c 2
 534 291 l 1
 366.5 291 l 2
 360 291 357 295.5 357 306.5 c 2
 357 310.5 l 2
 357 321.5 360 326 366.5 326 c 2
 580 326 l 2
 583 326 590 311.5 590 301.5 c 0
 590 299 589.5 297.5 588.5 296 c 2
 397.5 35.5 l 1
 580 35.5 l 2
 586.5 35.5 589 31 589 19.5 c 2
 589 16 l 2
 589 4.5 586.5 0 580 0 c 2
 353 0 l 2
86 35.5 m 1
 150 35.5 l 2
 208.5 35.5 255 70 255 163 c 0
 255 256 208.5 291 150 291 c 2
 86 291 l 1
 86 35.5 l 1
EndSplineSet
Position2: "'cpsp' Capital Spacing lookup 0 subtable" dx=5 dy=0 dh=10 dv=0
EndChar

StartChar: uni01C4
Encoding: 452 452 36
Width: 611
VWidth: 466
GlyphClass: 2
Flags: MW
HStem: 0 35.5<54.25 150 86 150 150 153.5 397.5 580> 291 35<86 150 86 86 366.5 534> 353.5 26<457 467 467 467 467 473.5>
VStem: 45 41<35.5 35.5 35.5 291> 255 42.5<116.5 209.5>
AnchorPoint: "Anchor-1" 468 326 basechar 0
AnchorPoint: "Anchor-0" 472 0 basechar 0
LayerCount: 2
Back
Fore
SplineSet
461.5 353.5 m 2
 452.5 353.5 445 357 440 364 c 2
 414 405 l 2
 412 408 411.5 411 411.5 413.5 c 0
 411.5 417.5 415 420 422 420 c 2
 423 420 l 2
 429.5 420 434 418 439 414 c 2
 467 379.5 l 1
 496.5 414 l 2
 501 418 506 420 512 420 c 2
 513 420 l 2
 520.5 420 524 417 524 413 c 0
 524 410.5 523 408 521.5 405 c 2
 494.5 364 l 2
 490 357 482.5 353.5 473.5 353.5 c 2
 461.5 353.5 l 2
59 0 m 2
 49.5 0 45 4 45 14 c 2
 45 312 l 2
 45 322 49.5 326 59 326 c 2
 153.5 326 l 2xd8
 233.5 326 297.5 284 297.5 163 c 0
 297.5 42 233.5 0 153.5 0 c 2
 59 0 l 2
353 0 m 2
 348 0 341.5 15.5 341.5 24.5 c 0
 341.5 27 342 29 343 30.5 c 2
 534 291 l 1
 366.5 291 l 2
 360 291 357 295.5 357 306.5 c 2
 357 310.5 l 2
 357 321.5 360 326 366.5 326 c 2
 580 326 l 2
 583 326 590 311.5 590 301.5 c 0
 590 299 589.5 297.5 588.5 296 c 2xd8
 397.5 35.5 l 1
 580 35.5 l 2
 586.5 35.5 589 31 589 19.5 c 2
 589 16 l 2
 589 4.5 586.5 0 580 0 c 2
 353 0 l 2
86 35.5 m 1
 150 35.5 l 2
 208.5 35.5 255 70 255 163 c 0
 255 256 208.5 291 150 291 c 2
 86 291 l 1xd8
 86 35.5 l 1
EndSplineSet
Position2: "'cpsp' Capital Spacing lookup 0 subtable" dx=5 dy=0 dh=10 dv=0
EndChar

StartChar: Eth
Encoding: 208 208 37
Width: 325
VWidth: 466
GlyphClass: 2
Flags: MW
HStem: 0 35.5<48.75 150.5 80.5 150.5 150.5 154> 149 35.5<6.25 39.5 9.5 39.5 80.5 132> 291 35<80.5 150.5 80.5 80.5>
VStem: 39.5 41<35.5 35.5 35.5 149 184.5 291> 256.5 42<116.5 209.5>
LayerCount: 2
Back
Fore
SplineSet
53.5 0 m 2
 44 0 39.5 4 39.5 14 c 2
 39.5 149 l 1
 9.5 149 l 2
 3 149 0 153.5 0 163 c 2
 0 170.5 l 2
 0 180.5 3 184.5 9.5 184.5 c 2
 39.5 184.5 l 1
 39.5 312 l 2
 39.5 322 44 326 53.5 326 c 2
 154 326 l 2
 234 326 298.5 284 298.5 163 c 0
 298.5 42 234 0 154 0 c 2
 53.5 0 l 2
80.5 35.5 m 1
 150.5 35.5 l 2
 209 35.5 256.5 70 256.5 163 c 0
 256.5 256 209 291 150.5 291 c 2
 80.5 291 l 1
 80.5 184.5 l 1
 132 184.5 l 2
 138.5 184.5 141 180.5 141 170.5 c 2
 141 163 l 2
 141 153.5 138.5 149 132 149 c 2
 80.5 149 l 1
 80.5 35.5 l 1
EndSplineSet
Position2: "'cpsp' Capital Spacing lookup 0 subtable" dx=5 dy=0 dh=10 dv=0
EndChar

StartChar: Dcaron
Encoding: 270 270 38
Width: 324
VWidth: 466
GlyphClass: 2
Flags: MW
HStem: 0 35.5<54.25 150 86 150 150 153.5> 291 35<86 150 86 86> 353.5 26<135 145 145 145 145 151.5>
VStem: 45 41<35.5 35.5 35.5 291> 255 42.5<116.5 209.5>
AnchorPoint: "Anchor-1" 146 326 basechar 0
AnchorPoint: "Anchor-0" 153 0 basechar 0
LayerCount: 2
Back
Fore
SplineSet
139.5 353.5 m 2
 130.5 353.5 123 357 118 364 c 2
 92 405 l 2
 90 408 89.5 411 89.5 413.5 c 0
 89.5 417.5 93 420 100 420 c 2
 101 420 l 2
 107.5 420 112 418 117 414 c 2
 145 379.5 l 1
 174.5 414 l 2
 179 418 184 420 190 420 c 2
 191 420 l 2
 198.5 420 202 417 202 413 c 0
 202 410.5 201 408 199.5 405 c 2
 172.5 364 l 2
 168 357 160.5 353.5 151.5 353.5 c 2
 139.5 353.5 l 2
59 0 m 2
 49.5 0 45 4 45 14 c 2
 45 312 l 2
 45 322 49.5 326 59 326 c 2
 153.5 326 l 2xd8
 233.5 326 297.5 284 297.5 163 c 0
 297.5 42 233.5 0 153.5 0 c 2
 59 0 l 2
86 35.5 m 1
 150 35.5 l 2
 208.5 35.5 255 70 255 163 c 0
 255 256 208.5 291 150 291 c 2
 86 291 l 1xd8
 86 35.5 l 1
EndSplineSet
Position2: "'cpsp' Capital Spacing lookup 0 subtable" dx=5 dy=0 dh=10 dv=0
EndChar

StartChar: Dcroat
Encoding: 272 272 39
Width: 325
VWidth: 466
GlyphClass: 2
Flags: MW
HStem: 0 35.5<48.75 150.5 80.5 150.5 150.5 154> 149 35.5<6.25 39.5 9.5 39.5 80.5 132> 291 35<80.5 150.5 80.5 80.5>
VStem: 39.5 41<35.5 35.5 35.5 149 184.5 291> 256.5 42<116.5 209.5>
LayerCount: 2
Back
Fore
SplineSet
53.5 0 m 2
 44 0 39.5 4 39.5 14 c 2
 39.5 149 l 1
 9.5 149 l 2
 3 149 0 153.5 0 163 c 2
 0 170.5 l 2
 0 180.5 3 184.5 9.5 184.5 c 2
 39.5 184.5 l 1
 39.5 312 l 2
 39.5 322 44 326 53.5 326 c 2
 154 326 l 2
 234 326 298.5 284 298.5 163 c 0
 298.5 42 234 0 154 0 c 2
 53.5 0 l 2
80.5 35.5 m 1
 150.5 35.5 l 2
 209 35.5 256.5 70 256.5 163 c 0
 256.5 256 209 291 150.5 291 c 2
 80.5 291 l 1
 80.5 184.5 l 1
 132 184.5 l 2
 138.5 184.5 141 180.5 141 170.5 c 2
 141 163 l 2
 141 153.5 138.5 149 132 149 c 2
 80.5 149 l 1
 80.5 35.5 l 1
EndSplineSet
Position2: "'cpsp' Capital Spacing lookup 0 subtable" dx=5 dy=0 dh=10 dv=0
EndChar

StartChar: uni1E0C
Encoding: 7692 7692 40
Width: 324
VWidth: 466
GlyphClass: 2
Flags: MW
HStem: -81.5 34<134 160> 0 35.5<54.25 150 86 150 150 153.5> 291 35<86 150 86 86>
VStem: 45 41<35.5 35.5 35.5 291> 134 39<-71.5 -47.5 -74.5 -44.5> 255 42.5<116.5 209.5>
AnchorPoint: "Anchor-1" 146 326 basechar 0
AnchorPoint: "Anchor-0" 153 -95 basechar 0
LayerCount: 2
Back
Fore
SplineSet
59 0 m 2
 49.5 0 45 4 45 14 c 2
 45 312 l 2
 45 322 49.5 326 59 326 c 2
 153.5 326 l 2
 233.5 326 297.5 284 297.5 163 c 0
 297.5 42 233.5 0 153.5 0 c 2
 59 0 l 2
86 35.5 m 1
 150 35.5 l 2
 208.5 35.5 255 70 255 163 c 0
 255 256 208.5 291 150 291 c 2
 86 291 l 1
 86 35.5 l 1
152.5 -81.5 m 0
 139.5 -81.5 134 -78 134 -71.5 c 2
 134 -47.5 l 2
 134 -41.5 139.5 -37.5 154.5 -37.5 c 0
 167.5 -37.5 173 -41 173 -47.5 c 2
 173 -71.5 l 2
 173 -77.5 167.5 -81.5 152.5 -81.5 c 0
EndSplineSet
Position2: "'cpsp' Capital Spacing lookup 0 subtable" dx=5 dy=0 dh=10 dv=0
EndChar

StartChar: uni01F2
Encoding: 498 498 41
Width: 552
VWidth: 466
GlyphClass: 2
Flags: MW
HStem: 0 33.5<396 524 396 524> 210 33.5<356.75 523.5 360 479> 291 35<86 150 86 86>
VStem: 45 41<35.5 35.5 35.5 291> 255 42.5<116.5 209.5>
AnchorPoint: "Anchor-1" 438 244 basechar 0
AnchorPoint: "Anchor-0" 435 0 basechar 0
LayerCount: 2
Back
Fore
SplineSet
59 0 m 2
 49.5 0 45 4 45 14 c 2
 45 312 l 2
 45 322 49.5 326 59 326 c 2
 153.5 326 l 2
 233.5 326 297.5 284 297.5 163 c 0
 297.5 42 233.5 0 153.5 0 c 2
 59 0 l 2
86 35.5 m 1
 150 35.5 l 2
 208.5 35.5 255 70 255 163 c 0
 255 256 208.5 291 150 291 c 2
 86 291 l 1
 86 35.5 l 1
351.5 0 m 2
 348 0 341 14.5 341 24 c 0
 341 25.5 341.5 27.5 342.5 29 c 2
 479 210 l 1
 360 210 l 2
 353.5 210 350.5 214.5 350.5 224 c 2
 350.5 229.5 l 2
 350.5 239.5 353.5 243.5 360 243.5 c 2
 523.5 243.5 l 2
 528 243.5 533 228 533 219.5 c 0
 533 217 532.5 216 532 215 c 2
 396 33.5 l 1
 524 33.5 l 2
 530.5 33.5 533 29.5 533 19.5 c 2
 533 14 l 2
 533 4 530.5 0 524 0 c 2
 351.5 0 l 2
EndSplineSet
Position2: "'cpsp' Capital Spacing lookup 0 subtable" dx=5 dy=0 dh=10 dv=0
EndChar

StartChar: uni01C5
Encoding: 453 453 42
Width: 552
VWidth: 466
GlyphClass: 2
Flags: MW
HStem: 0 33.5<396 524 396 524> 210 33.5<356.75 523.5 360 479> 271 26<427.5 437.5 437.5 437.5 437.5 444> 291 35<86 150 86 86>
VStem: 45 41<35.5 35.5 35.5 291> 255 42.5<116.5 209.5>
AnchorPoint: "Anchor-1" 438 244 basechar 0
AnchorPoint: "Anchor-0" 435 0 basechar 0
LayerCount: 2
Back
Fore
SplineSet
432 271 m 2xec
 423 271 415.5 274.5 410.5 281.5 c 2
 384.5 322.5 l 2
 382.5 325.5 382 328.5 382 331 c 0
 382 335 385.5 337.5 392.5 337.5 c 2
 393.5 337.5 l 2
 400 337.5 404.5 335.5 409.5 331.5 c 2
 437.5 297 l 1
 467 331.5 l 2
 471.5 335.5 476.5 337.5 482.5 337.5 c 2
 483.5 337.5 l 2
 491 337.5 494.5 334.5 494.5 330.5 c 0
 494.5 328 493.5 325.5 492 322.5 c 2
 465 281.5 l 2
 460.5 274.5 453 271 444 271 c 2
 432 271 l 2xec
59 0 m 2
 49.5 0 45 4 45 14 c 2
 45 312 l 2
 45 322 49.5 326 59 326 c 2
 153.5 326 l 2xdc
 233.5 326 297.5 284 297.5 163 c 0
 297.5 42 233.5 0 153.5 0 c 2
 59 0 l 2
86 35.5 m 1
 150 35.5 l 2
 208.5 35.5 255 70 255 163 c 0
 255 256 208.5 291 150 291 c 2
 86 291 l 1xdc
 86 35.5 l 1
351.5 0 m 2
 348 0 341 14.5 341 24 c 0
 341 25.5 341.5 27.5 342.5 29 c 2
 479 210 l 1
 360 210 l 2
 353.5 210 350.5 214.5 350.5 224 c 2
 350.5 229.5 l 2
 350.5 239.5 353.5 243.5 360 243.5 c 2
 523.5 243.5 l 2
 528 243.5 533 228 533 219.5 c 0
 533 217 532.5 216 532 215 c 2
 396 33.5 l 1
 524 33.5 l 2
 530.5 33.5 533 29.5 533 19.5 c 2
 533 14 l 2
 533 4 530.5 0 524 0 c 2
 351.5 0 l 2
EndSplineSet
Position2: "'cpsp' Capital Spacing lookup 0 subtable" dx=5 dy=0 dh=10 dv=0
EndChar

StartChar: E
Encoding: 69 69 43
Width: 255
VWidth: 466
GlyphClass: 2
Flags: MW
HStem: 0 35.5<54.25 222.5 86 222.5 86 222.5> 149 35.5<86 208 86 208> 291 35<86 222 86 86>
VStem: 45 41<35.5 149 184.5 291>
AnchorPoint: "Anchor-1" 138 326 basechar 0
AnchorPoint: "Anchor-0" 140 0 basechar 0
LayerCount: 2
Back
Fore
SplineSet
59 0 m 2
 49.5 0 45 4 45 14 c 2
 45 312 l 2
 45 322 49.5 326 59 326 c 2
 222 326 l 2
 228.5 326 231 322 231 312 c 2
 231 305 l 2
 231 295 228.5 291 222 291 c 2
 86 291 l 1
 86 184.5 l 1
 208 184.5 l 2
 214.5 184.5 217 180.5 217 170.5 c 2
 217 163 l 2
 217 153.5 214.5 149 208 149 c 2
 86 149 l 1
 86 35.5 l 1
 222.5 35.5 l 2
 229 35.5 231.5 31 231.5 21.5 c 2
 231.5 14 l 2
 231.5 4 229 0 222.5 0 c 2
 59 0 l 2
EndSplineSet
Position2: "'cpsp' Capital Spacing lookup 0 subtable" dx=5 dy=0 dh=10 dv=0
EndChar

StartChar: Eacute
Encoding: 201 201 44
Width: 255
VWidth: 466
GlyphClass: 2
Flags: MW
HStem: 0 35.5<54.25 222.5 86 222.5 86 222.5> 149 35.5<86 208 86 208> 291 35<86 222 86 86> 355 68.5<126.25 183>
VStem: 45 41<35.5 149 184.5 291>
AnchorPoint: "Anchor-1" 138 326 basechar 0
AnchorPoint: "Anchor-0" 140 0 basechar 0
LayerCount: 2
Back
Fore
SplineSet
130 355 m 0
 122.5 355 119.5 356.5 119.5 360 c 0
 119.5 364.5 125 374 146.5 411.5 c 0
 151.5 420.5 160.5 423.5 175.5 423.5 c 0
 190.5 423.5 198 422 198 417.5 c 0
 198 412.5 193 408 154 363.5 c 0
 149 358 140 355 130 355 c 0
59 0 m 2
 49.5 0 45 4 45 14 c 2
 45 312 l 2
 45 322 49.5 326 59 326 c 2
 222 326 l 2
 228.5 326 231 322 231 312 c 2
 231 305 l 2
 231 295 228.5 291 222 291 c 2
 86 291 l 1xe8
 86 184.5 l 1
 208 184.5 l 2
 214.5 184.5 217 180.5 217 170.5 c 2
 217 163 l 2
 217 153.5 214.5 149 208 149 c 2
 86 149 l 1
 86 35.5 l 1
 222.5 35.5 l 2
 229 35.5 231.5 31 231.5 21.5 c 2
 231.5 14 l 2
 231.5 4 229 0 222.5 0 c 2
 59 0 l 2
EndSplineSet
Position2: "'cpsp' Capital Spacing lookup 0 subtable" dx=5 dy=0 dh=10 dv=0
EndChar

StartChar: Ebreve
Encoding: 276 276 45
Width: 255
VWidth: 466
GlyphClass: 2
Flags: MW
HStem: 0 35.5<54.25 222.5 86 222.5 86 222.5> 149 35.5<86 208 86 208> 291 35<86 222 86 86> 355 49
VStem: 45 41<35.5 149 184.5 291> 70.5 134.5<390.75 411>
AnchorPoint: "Anchor-1" 138 395 basechar 0
AnchorPoint: "Anchor-0" 140 0 basechar 0
LayerCount: 2
Back
Fore
SplineSet
138 355 m 0xf4
 104.5 355 70.5 373 70.5 408.5 c 0
 70.5 413.5 72.5 415.5 77.5 415.5 c 0
 85.5 415.5 84 411.5 88 404 c 0
 95 391 115.5 386 138 386 c 0
 161 386 181 391 188 404 c 0
 191.5 411.5 190.5 415.5 198 415.5 c 0
 203.5 415.5 205 413.5 205 408.5 c 0
 205 373 171 355 138 355 c 0xf4
59 0 m 2xe8
 49.5 0 45 4 45 14 c 2
 45 312 l 2
 45 322 49.5 326 59 326 c 2
 222 326 l 2
 228.5 326 231 322 231 312 c 2
 231 305 l 2
 231 295 228.5 291 222 291 c 2
 86 291 l 1
 86 184.5 l 1
 208 184.5 l 2
 214.5 184.5 217 180.5 217 170.5 c 2
 217 163 l 2
 217 153.5 214.5 149 208 149 c 2
 86 149 l 1
 86 35.5 l 1
 222.5 35.5 l 2
 229 35.5 231.5 31 231.5 21.5 c 2
 231.5 14 l 2
 231.5 4 229 0 222.5 0 c 2
 59 0 l 2xe8
EndSplineSet
Position2: "'cpsp' Capital Spacing lookup 0 subtable" dx=5 dy=0 dh=10 dv=0
EndChar

StartChar: Ecaron
Encoding: 282 282 46
Width: 255
VWidth: 466
GlyphClass: 2
Flags: MW
HStem: 0 35.5<54.25 222.5 86 222.5 86 222.5> 149 35.5<86 208 86 208> 291 35<86 222 86 86> 353.5 26<127.5 137.5 137.5 137.5 137.5 144>
VStem: 45 41<35.5 149 184.5 291>
AnchorPoint: "Anchor-1" 138 326 basechar 0
AnchorPoint: "Anchor-0" 140 0 basechar 0
LayerCount: 2
Back
Fore
SplineSet
132 353.5 m 2
 123 353.5 115.5 357 110.5 364 c 2
 84.5 405 l 2
 82.5 408 82 411 82 413.5 c 0
 82 417.5 85.5 420 92.5 420 c 2
 93.5 420 l 2
 100 420 104.5 418 109.5 414 c 2
 137.5 379.5 l 1
 167 414 l 2
 171.5 418 176.5 420 182.5 420 c 2
 183.5 420 l 2
 191 420 194.5 417 194.5 413 c 0
 194.5 410.5 193.5 408 192 405 c 2
 165 364 l 2
 160.5 357 153 353.5 144 353.5 c 2
 132 353.5 l 2
59 0 m 2
 49.5 0 45 4 45 14 c 2
 45 312 l 2
 45 322 49.5 326 59 326 c 2
 222 326 l 2
 228.5 326 231 322 231 312 c 2
 231 305 l 2
 231 295 228.5 291 222 291 c 2
 86 291 l 1xe8
 86 184.5 l 1
 208 184.5 l 2
 214.5 184.5 217 180.5 217 170.5 c 2
 217 163 l 2
 217 153.5 214.5 149 208 149 c 2
 86 149 l 1
 86 35.5 l 1
 222.5 35.5 l 2
 229 35.5 231.5 31 231.5 21.5 c 2
 231.5 14 l 2
 231.5 4 229 0 222.5 0 c 2
 59 0 l 2
EndSplineSet
Position2: "'cpsp' Capital Spacing lookup 0 subtable" dx=5 dy=0 dh=10 dv=0
EndChar

StartChar: Ecircumflex
Encoding: 202 202 47
Width: 255
VWidth: 466
GlyphClass: 2
Flags: MW
HStem: 0 35.5<54.25 222.5 86 222.5 86 222.5> 149 35.5<86 208 86 208> 291 35<86 222 86 86> 391.5 25.5<137.5 137.5>
VStem: 45 41<35.5 149 184.5 291>
AnchorPoint: "Anchor-1" 214 373 basechar 0
AnchorPoint: "Anchor-0" 140 0 basechar 0
LayerCount: 2
Back
Fore
SplineSet
92.5 351 m 2
 85.5 351 82 353 82 357.5 c 0
 82 360 82.5 362.5 84.5 366 c 2
 110.5 407 l 2
 115.5 414 123 417 132 417 c 2
 144 417 l 2
 153 417 160.5 414 165 407 c 2
 192 366 l 2
 193.5 363 194.5 360 194.5 358 c 0
 194.5 353.5 191 351 183.5 351 c 2
 182.5 351 l 2
 176.5 351 171.5 353 167 357 c 2
 137.5 391.5 l 1
 109.5 357 l 2
 104.5 353 100 351 93.5 351 c 2
 92.5 351 l 2
59 0 m 2
 49.5 0 45 4 45 14 c 2
 45 312 l 2
 45 322 49.5 326 59 326 c 2
 222 326 l 2
 228.5 326 231 322 231 312 c 2
 231 305 l 2
 231 295 228.5 291 222 291 c 2
 86 291 l 1
 86 184.5 l 1
 208 184.5 l 2
 214.5 184.5 217 180.5 217 170.5 c 2
 217 163 l 2
 217 153.5 214.5 149 208 149 c 2
 86 149 l 1
 86 35.5 l 1
 222.5 35.5 l 2
 229 35.5 231.5 31 231.5 21.5 c 2
 231.5 14 l 2
 231.5 4 229 0 222.5 0 c 2
 59 0 l 2
EndSplineSet
Position2: "'cpsp' Capital Spacing lookup 0 subtable" dx=5 dy=0 dh=10 dv=0
EndChar

StartChar: uni1EBE
Encoding: 7870 7870 48
Width: 255
VWidth: 466
GlyphClass: 2
Flags: MW
HStem: 0 35.5<54.25 222.5 86 222.5 86 222.5> 149 35.5<86 208 86 208> 291 35<86 222 86 86> 384 33
VStem: 45 41<35.5 149 184.5 291>
AnchorPoint: "Anchor-1" 204 386 basechar 0
AnchorPoint: "Anchor-0" 140 0 basechar 0
LayerCount: 2
Back
Fore
SplineSet
199 384 m 0
 191.5 384 188 385.5 188 388.5 c 0
 188 393 193 401.5 210.5 435.5 c 0
 215.5 444.5 224.5 448 235.5 448 c 0
 246 448 250 446.5 250 441.5 c 0
 250 437 246.5 433.5 215.5 392.5 c 0
 211.5 387 207 384 199 384 c 0
94 351 m 2
 87 351 83.5 353 83.5 357.5 c 0
 83.5 360 84 362.5 86 366 c 2
 112 407 l 2
 117 414 124.5 417 133.5 417 c 2
 145.5 417 l 2
 152.5 417 158.5 413 162 407 c 2
 186.5 366 l 2
 188 363 189 360 189 358 c 0
 189 353.5 185.5 351 178 351 c 2
 177 351 l 2
 171 351 164.5 353 161.5 357 c 2
 139 391.5 l 1
 111 357 l 2
 106 353 101.5 351 95 351 c 2
 94 351 l 2
59 0 m 2
 49.5 0 45 4 45 14 c 2
 45 312 l 2
 45 322 49.5 326 59 326 c 2
 222 326 l 2
 228.5 326 231 322 231 312 c 2
 231 305 l 2
 231 295 228.5 291 222 291 c 2
 86 291 l 1
 86 184.5 l 1
 208 184.5 l 2
 214.5 184.5 217 180.5 217 170.5 c 2
 217 163 l 2
 217 153.5 214.5 149 208 149 c 2
 86 149 l 1
 86 35.5 l 1
 222.5 35.5 l 2
 229 35.5 231.5 31 231.5 21.5 c 2
 231.5 14 l 2
 231.5 4 229 0 222.5 0 c 2
 59 0 l 2
EndSplineSet
Position2: "'cpsp' Capital Spacing lookup 0 subtable" dx=5 dy=0 dh=10 dv=0
EndChar

StartChar: uni1EC6
Encoding: 7878 7878 49
Width: 255
VWidth: 466
GlyphClass: 2
Flags: MW
HStem: -81.5 34<121.5 147.5> 0 35.5<54.25 222.5 86 222.5 86 222.5> 149 35.5<86 208 86 208> 291 35<86 222 86 86> 391.5 25.5<137.5 137.5>
VStem: 45 41<35.5 149 184.5 291> 121.5 39<-71.5 -47.5 -74.5 -44.5>
AnchorPoint: "Anchor-1" 214 373 basechar 0
AnchorPoint: "Anchor-0" 140 -95 basechar 0
LayerCount: 2
Back
Fore
SplineSet
92.5 351 m 2
 85.5 351 82 353 82 357.5 c 0
 82 360 82.5 362.5 84.5 366 c 2
 110.5 407 l 2
 115.5 414 123 417 132 417 c 2
 144 417 l 2
 153 417 160.5 414 165 407 c 2
 192 366 l 2
 193.5 363 194.5 360 194.5 358 c 0
 194.5 353.5 191 351 183.5 351 c 2
 182.5 351 l 2
 176.5 351 171.5 353 167 357 c 2
 137.5 391.5 l 1
 109.5 357 l 2
 104.5 353 100 351 93.5 351 c 2
 92.5 351 l 2
59 0 m 2
 49.5 0 45 4 45 14 c 2
 45 312 l 2
 45 322 49.5 326 59 326 c 2
 222 326 l 2
 228.5 326 231 322 231 312 c 2
 231 305 l 2
 231 295 228.5 291 222 291 c 2
 86 291 l 1
 86 184.5 l 1
 208 184.5 l 2
 214.5 184.5 217 180.5 217 170.5 c 2
 217 163 l 2
 217 153.5 214.5 149 208 149 c 2
 86 149 l 1
 86 35.5 l 1
 222.5 35.5 l 2
 229 35.5 231.5 31 231.5 21.5 c 2
 231.5 14 l 2
 231.5 4 229 0 222.5 0 c 2
 59 0 l 2
140 -81.5 m 0
 127 -81.5 121.5 -78 121.5 -71.5 c 2
 121.5 -47.5 l 2
 121.5 -41.5 127 -37.5 142 -37.5 c 0
 155 -37.5 160.5 -41 160.5 -47.5 c 2
 160.5 -71.5 l 2
 160.5 -77.5 155 -81.5 140 -81.5 c 0
EndSplineSet
Position2: "'cpsp' Capital Spacing lookup 0 subtable" dx=5 dy=0 dh=10 dv=0
EndChar

StartChar: uni1EC0
Encoding: 7872 7872 50
Width: 255
VWidth: 466
GlyphClass: 2
Flags: MW
HStem: 0 35.5<54.25 222.5 86 222.5 86 222.5> 149 35.5<86 208 86 208> 291 35<86 222 86 86> 384 64<176.25 216.75> 391.5 25.5<139 139>
VStem: 45 41<35.5 149 184.5 291>
AnchorPoint: "Anchor-1" 204 386 basechar 0
AnchorPoint: "Anchor-0" 140 0 basechar 0
LayerCount: 2
Back
Fore
SplineSet
213 384 m 0xf4
 207 384 200 387 196.5 392.5 c 0
 170 433.5 166.5 437 166.5 441.5 c 0
 166.5 446.5 169.5 448 183 448 c 0
 192 448 202.5 444.5 206 435.5 c 0
 220.5 401.5 224 393 224 388.5 c 0
 224 385.5 220.5 384 213 384 c 0xf4
94 351 m 2xec
 87 351 83.5 353 83.5 357.5 c 0
 83.5 360 84 362.5 86 366 c 2
 112 407 l 2
 117 414 124.5 417 133.5 417 c 2
 145.5 417 l 2
 152.5 417 158.5 413 162 407 c 2
 186.5 366 l 2
 188 363 189 360 189 358 c 0
 189 353.5 185.5 351 178 351 c 2
 177 351 l 2
 171 351 164.5 353 161.5 357 c 2
 139 391.5 l 1
 111 357 l 2
 106 353 101.5 351 95 351 c 2
 94 351 l 2xec
59 0 m 2
 49.5 0 45 4 45 14 c 2
 45 312 l 2
 45 322 49.5 326 59 326 c 2
 222 326 l 2
 228.5 326 231 322 231 312 c 2
 231 305 l 2
 231 295 228.5 291 222 291 c 2
 86 291 l 1
 86 184.5 l 1
 208 184.5 l 2
 214.5 184.5 217 180.5 217 170.5 c 2
 217 163 l 2
 217 153.5 214.5 149 208 149 c 2
 86 149 l 1
 86 35.5 l 1
 222.5 35.5 l 2
 229 35.5 231.5 31 231.5 21.5 c 2
 231.5 14 l 2
 231.5 4 229 0 222.5 0 c 2
 59 0 l 2
EndSplineSet
Position2: "'cpsp' Capital Spacing lookup 0 subtable" dx=5 dy=0 dh=10 dv=0
EndChar

StartChar: uni1EC2
Encoding: 7874 7874 51
Width: 255
VWidth: 466
GlyphClass: 2
Flags: MW
HStem: 0 35.5<54.25 222.5 86 222.5 86 222.5> 149 35.5<86 208 86 208> 291 35<86 222 86 86> 391.5 25.5<139 139> 434 22.5<192.5 201.75>
VStem: 45 41<35.5 149 184.5 291> 214 27<418.25 425.5>
AnchorPoint: "Anchor-1" 204 451 basechar 0
AnchorPoint: "Anchor-0" 140 0 basechar 0
LayerCount: 2
Back
Fore
SplineSet
205.5 384.5 m 0
 195.5 384.5 188 389.5 188 394 c 0
 188 397.5 192.5 400 200 404 c 0
 209 409 214 415 214 421.5 c 0
 214 429.5 206.5 434 197 434 c 0
 182.5 434 178 428 175.5 428 c 0
 172 428 164.5 438.5 164.5 443 c 0
 164.5 449.5 184.5 456.5 200.5 456.5 c 0
 216.5 456.5 241 449 241 424.5 c 0
 241 410 232.5 401.5 224.5 395 c 0
 218 389 208 384.5 205.5 384.5 c 0
94 351 m 2xfe
 87 351 83.5 353 83.5 357.5 c 0
 83.5 360 84 362.5 86 366 c 2
 112 407 l 2
 117 414 124.5 417 133.5 417 c 2
 145.5 417 l 2
 152.5 417 158.5 413 162 407 c 2
 186.5 366 l 2
 188 363 189 360 189 358 c 0
 189 353.5 185.5 351 178 351 c 2
 177 351 l 2
 171 351 164.5 353 161.5 357 c 2
 139 391.5 l 1
 111 357 l 2
 106 353 101.5 351 95 351 c 2
 94 351 l 2xfe
59 0 m 2
 49.5 0 45 4 45 14 c 2
 45 312 l 2
 45 322 49.5 326 59 326 c 2
 222 326 l 2
 228.5 326 231 322 231 312 c 2
 231 305 l 2
 231 295 228.5 291 222 291 c 2
 86 291 l 1
 86 184.5 l 1
 208 184.5 l 2
 214.5 184.5 217 180.5 217 170.5 c 2
 217 163 l 2
 217 153.5 214.5 149 208 149 c 2
 86 149 l 1
 86 35.5 l 1
 222.5 35.5 l 2
 229 35.5 231.5 31 231.5 21.5 c 2
 231.5 14 l 2
 231.5 4 229 0 222.5 0 c 2
 59 0 l 2
EndSplineSet
Position2: "'cpsp' Capital Spacing lookup 0 subtable" dx=5 dy=0 dh=10 dv=0
EndChar

StartChar: uni1EC4
Encoding: 7876 7876 52
Width: 255
VWidth: 466
GlyphClass: 2
Flags: MW
HStem: 0 35.5<54.25 222.5 86 222.5 86 222.5> 149 35.5<86 208 86 208> 291 35<86 222 86 86> 380.5 25.5<137.5 137.5> 423.5 26<167 180.75 167 184.5> 443.5 26<97.5 111>
VStem: 45 41<35.5 149 184.5 291>
AnchorPoint: "Anchor-1" 138 326 basechar 0
AnchorPoint: "Anchor-0" 140 0 basechar 0
LayerCount: 2
Back
Fore
SplineSet
71.5 424 m 2xea
 67 425.5 l 2xea
 64 427 63 429 63 431.5 c 0
 63 433 63.5 435 64.5 437.5 c 0
 73.5 461 86 469.5 103.5 469.5 c 0xe6
 128 469.5 157 449.5 177 449.5 c 0
 184.5 449.5 189.5 453 195.5 463 c 0
 198.5 468 201 470 204 470 c 0
 205.5 470 206.5 469.5 208.5 468.5 c 2
 211.5 467 l 2
 215 466 216.5 464 216.5 461.5 c 0
 216.5 460 216 458 215 455 c 0
 205.5 432 193 423.5 176 423.5 c 0xea
 150 423.5 121 443.5 101 443.5 c 0xe6
 94 443.5 89.5 439.5 83.5 429.5 c 0
 80.5 424.5 78.5 422.5 75.5 422.5 c 0
 74.5 422.5 73 423 71.5 424 c 2xea
92.5 351 m 2xfa
 85.5 351 82 353 82 357.5 c 0
 82 360 82.5 362.5 84.5 366 c 2
 110.5 395.5 l 2
 117 401.5 123 406 132 406 c 2
 144 406 l 2
 153 406 159 401.5 165 395.5 c 2
 192 366 l 2
 193.5 363 194.5 360 194.5 358 c 0
 194.5 353.5 191 351 183.5 351 c 2
 182.5 351 l 2
 176.5 351 172 353.5 167 357 c 2
 137.5 380.5 l 1
 109.5 357 l 2
 104.5 353.5 100 351 93.5 351 c 2
 92.5 351 l 2xfa
59 0 m 2
 49.5 0 45 4 45 14 c 2
 45 312 l 2
 45 322 49.5 326 59 326 c 2
 222 326 l 2
 228.5 326 231 322 231 312 c 2
 231 305 l 2
 231 295 228.5 291 222 291 c 2
 86 291 l 1
 86 184.5 l 1
 208 184.5 l 2
 214.5 184.5 217 180.5 217 170.5 c 2
 217 163 l 2
 217 153.5 214.5 149 208 149 c 2
 86 149 l 1
 86 35.5 l 1
 222.5 35.5 l 2
 229 35.5 231.5 31 231.5 21.5 c 2
 231.5 14 l 2
 231.5 4 229 0 222.5 0 c 2
 59 0 l 2
EndSplineSet
Position2: "'cpsp' Capital Spacing lookup 0 subtable" dx=5 dy=0 dh=10 dv=0
EndChar

StartChar: Edieresis
Encoding: 203 203 53
Width: 255
VWidth: 466
GlyphClass: 2
Flags: MW
HStem: 0 35.5<54.25 222.5 86 222.5 86 222.5> 149 35.5<86 208 86 208> 291 35<86 222 86 86> 365.5 34<85 111>
VStem: 45 41<35.5 149 184.5 291> 85 39<375.5 399.5 372.5 402.5> 152 39<375.5 399.5 372.5 402.5>
AnchorPoint: "Anchor-1" 138 326 basechar 0
AnchorPoint: "Anchor-0" 140 0 basechar 0
LayerCount: 2
Back
Fore
SplineSet
103.5 365.5 m 0xf6
 90.5 365.5 85 369 85 375.5 c 2
 85 399.5 l 2
 85 405.5 90.5 409.5 105.5 409.5 c 0
 118.5 409.5 124 406 124 399.5 c 2
 124 375.5 l 2
 124 369.5 118.5 365.5 103.5 365.5 c 0xf6
170.5 365.5 m 0xfa
 157.5 365.5 152 369 152 375.5 c 2
 152 399.5 l 2
 152 405.5 157.5 409.5 172.5 409.5 c 0
 185.5 409.5 191 406 191 399.5 c 2
 191 375.5 l 2
 191 369.5 185.5 365.5 170.5 365.5 c 0xfa
59 0 m 2
 49.5 0 45 4 45 14 c 2
 45 312 l 2
 45 322 49.5 326 59 326 c 2
 222 326 l 2
 228.5 326 231 322 231 312 c 2
 231 305 l 2
 231 295 228.5 291 222 291 c 2
 86 291 l 1
 86 184.5 l 1
 208 184.5 l 2
 214.5 184.5 217 180.5 217 170.5 c 2
 217 163 l 2
 217 153.5 214.5 149 208 149 c 2
 86 149 l 1
 86 35.5 l 1
 222.5 35.5 l 2
 229 35.5 231.5 31 231.5 21.5 c 2
 231.5 14 l 2
 231.5 4 229 0 222.5 0 c 2
 59 0 l 2
EndSplineSet
Position2: "'cpsp' Capital Spacing lookup 0 subtable" dx=5 dy=0 dh=10 dv=0
EndChar

StartChar: Edotaccent
Encoding: 278 278 54
Width: 255
VWidth: 466
GlyphClass: 2
Flags: MW
HStem: 0 35.5<54.25 222.5 86 222.5 86 222.5> 149 35.5<86 208 86 208> 291 35<86 222 86 86> 365.5 34<118.5 144.5>
VStem: 45 41<35.5 149 184.5 291> 118.5 39<375.5 399.5 372.5 402.5>
AnchorPoint: "Anchor-1" 138 326 basechar 0
AnchorPoint: "Anchor-0" 140 0 basechar 0
LayerCount: 2
Back
Fore
SplineSet
137 365.5 m 0
 124 365.5 118.5 369 118.5 375.5 c 2
 118.5 399.5 l 2
 118.5 405.5 124 409.5 139 409.5 c 0
 152 409.5 157.5 406 157.5 399.5 c 2
 157.5 375.5 l 2
 157.5 369.5 152 365.5 137 365.5 c 0
59 0 m 2
 49.5 0 45 4 45 14 c 2
 45 312 l 2
 45 322 49.5 326 59 326 c 2
 222 326 l 2
 228.5 326 231 322 231 312 c 2
 231 305 l 2
 231 295 228.5 291 222 291 c 2
 86 291 l 1
 86 184.5 l 1
 208 184.5 l 2
 214.5 184.5 217 180.5 217 170.5 c 2
 217 163 l 2
 217 153.5 214.5 149 208 149 c 2
 86 149 l 1
 86 35.5 l 1
 222.5 35.5 l 2
 229 35.5 231.5 31 231.5 21.5 c 2
 231.5 14 l 2
 231.5 4 229 0 222.5 0 c 2
 59 0 l 2
EndSplineSet
Position2: "'cpsp' Capital Spacing lookup 0 subtable" dx=5 dy=0 dh=10 dv=0
EndChar

StartChar: uni1EB8
Encoding: 7864 7864 55
Width: 255
VWidth: 466
GlyphClass: 2
Flags: MW
HStem: -81.5 34<121.5 147.5> 0 35.5<54.25 222.5 86 222.5 86 222.5> 149 35.5<86 208 86 208> 291 35<86 222 86 86>
VStem: 45 41<35.5 149 184.5 291> 121.5 39<-71.5 -47.5 -74.5 -44.5>
AnchorPoint: "Anchor-1" 138 326 basechar 0
AnchorPoint: "Anchor-0" 140 -95 basechar 0
LayerCount: 2
Back
Fore
SplineSet
59 0 m 2
 49.5 0 45 4 45 14 c 2
 45 312 l 2
 45 322 49.5 326 59 326 c 2
 222 326 l 2
 228.5 326 231 322 231 312 c 2
 231 305 l 2
 231 295 228.5 291 222 291 c 2
 86 291 l 1
 86 184.5 l 1
 208 184.5 l 2
 214.5 184.5 217 180.5 217 170.5 c 2
 217 163 l 2
 217 153.5 214.5 149 208 149 c 2
 86 149 l 1
 86 35.5 l 1
 222.5 35.5 l 2
 229 35.5 231.5 31 231.5 21.5 c 2
 231.5 14 l 2
 231.5 4 229 0 222.5 0 c 2
 59 0 l 2
140 -81.5 m 0
 127 -81.5 121.5 -78 121.5 -71.5 c 2
 121.5 -47.5 l 2
 121.5 -41.5 127 -37.5 142 -37.5 c 0
 155 -37.5 160.5 -41 160.5 -47.5 c 2
 160.5 -71.5 l 2
 160.5 -77.5 155 -81.5 140 -81.5 c 0
EndSplineSet
Position2: "'cpsp' Capital Spacing lookup 0 subtable" dx=5 dy=0 dh=10 dv=0
EndChar

StartChar: Egrave
Encoding: 200 200 56
Width: 255
VWidth: 466
GlyphClass: 2
Flags: MW
HStem: 0 35.5<54.25 222.5 86 222.5 86 222.5> 149 35.5<86 208 86 208> 291 35<86 222 86 86> 355 68.5<98 154.25>
VStem: 45 41<35.5 149 184.5 291>
AnchorPoint: "Anchor-1" 138 326 basechar 0
AnchorPoint: "Anchor-0" 140 0 basechar 0
LayerCount: 2
Back
Fore
SplineSet
150.5 355 m 0
 141 355 132 358 127 363.5 c 0
 87.5 408 83 412.5 83 417.5 c 0
 83 422 90.5 423.5 105.5 423.5 c 0
 120.5 423.5 129 420.5 134 411.5 c 0
 155.5 374 161.5 364.5 161.5 360 c 0
 161.5 356.5 158 355 150.5 355 c 0
59 0 m 2
 49.5 0 45 4 45 14 c 2
 45 312 l 2
 45 322 49.5 326 59 326 c 2
 222 326 l 2
 228.5 326 231 322 231 312 c 2
 231 305 l 2
 231 295 228.5 291 222 291 c 2
 86 291 l 1xe8
 86 184.5 l 1
 208 184.5 l 2
 214.5 184.5 217 180.5 217 170.5 c 2
 217 163 l 2
 217 153.5 214.5 149 208 149 c 2
 86 149 l 1
 86 35.5 l 1
 222.5 35.5 l 2
 229 35.5 231.5 31 231.5 21.5 c 2
 231.5 14 l 2
 231.5 4 229 0 222.5 0 c 2
 59 0 l 2
EndSplineSet
Position2: "'cpsp' Capital Spacing lookup 0 subtable" dx=5 dy=0 dh=10 dv=0
EndChar

StartChar: uni1EBA
Encoding: 7866 7866 57
Width: 255
VWidth: 466
GlyphClass: 2
Flags: MW
HStem: 0 35.5<54.25 222.5 86 222.5 86 222.5> 149 35.5<86 208 86 208> 291 35<86 222 86 86> 408 24<133.25 142.25>
VStem: 45 41<35.5 149 184.5 291> 155 28.5<384 399.75>
AnchorPoint: "Anchor-1" 138 409 basechar 0
AnchorPoint: "Anchor-0" 140 0 basechar 0
LayerCount: 2
Back
Fore
SplineSet
141.5 345 m 0
 137 345 126 348.5 126 353 c 0
 126 366.5 155 372.5 155 395.5 c 0
 155 404 147 408 137.5 408 c 0
 123 408 118.5 402 116 402 c 0
 112.5 402 105 413 105 417.5 c 0
 105 423.5 125 432 141.5 432 c 0
 157 432 183.5 424.5 183.5 399 c 0
 183.5 368 147 345 141.5 345 c 0
59 0 m 2
 49.5 0 45 4 45 14 c 2
 45 312 l 2
 45 322 49.5 326 59 326 c 2
 222 326 l 2
 228.5 326 231 322 231 312 c 2
 231 305 l 2
 231 295 228.5 291 222 291 c 2
 86 291 l 1
 86 184.5 l 1
 208 184.5 l 2
 214.5 184.5 217 180.5 217 170.5 c 2
 217 163 l 2
 217 153.5 214.5 149 208 149 c 2
 86 149 l 1
 86 35.5 l 1
 222.5 35.5 l 2
 229 35.5 231.5 31 231.5 21.5 c 2
 231.5 14 l 2
 231.5 4 229 0 222.5 0 c 2
 59 0 l 2
EndSplineSet
Position2: "'cpsp' Capital Spacing lookup 0 subtable" dx=5 dy=0 dh=10 dv=0
EndChar

StartChar: Emacron
Encoding: 274 274 58
Width: 255
VWidth: 466
GlyphClass: 2
Flags: MW
HStem: 0 35.5<54.25 222.5 86 222.5 86 222.5> 149 35.5<86 208 86 208> 291 35<86 222 86 86> 367.5 33<82.75 190 86 190>
VStem: 45 41<35.5 149 184.5 291> 76.5 122.5<381.5 386.5 376.75 391.25>
AnchorPoint: "Anchor-1" 138 326 basechar 0
AnchorPoint: "Anchor-0" 140 0 basechar 0
LayerCount: 2
Back
Fore
SplineSet
86 367.5 m 2xf4
 79.5 367.5 76.5 372 76.5 381.5 c 2
 76.5 386.5 l 2
 76.5 396 79.5 400.5 86 400.5 c 2
 190 400.5 l 2
 196.5 400.5 199 396 199 386.5 c 2
 199 381.5 l 2
 199 372 196.5 367.5 190 367.5 c 2
 86 367.5 l 2xf4
59 0 m 2xf8
 49.5 0 45 4 45 14 c 2
 45 312 l 2
 45 322 49.5 326 59 326 c 2
 222 326 l 2
 228.5 326 231 322 231 312 c 2
 231 305 l 2
 231 295 228.5 291 222 291 c 2
 86 291 l 1
 86 184.5 l 1
 208 184.5 l 2
 214.5 184.5 217 180.5 217 170.5 c 2
 217 163 l 2
 217 153.5 214.5 149 208 149 c 2
 86 149 l 1
 86 35.5 l 1
 222.5 35.5 l 2
 229 35.5 231.5 31 231.5 21.5 c 2
 231.5 14 l 2
 231.5 4 229 0 222.5 0 c 2
 59 0 l 2xf8
EndSplineSet
Position2: "'cpsp' Capital Spacing lookup 0 subtable" dx=5 dy=0 dh=10 dv=0
EndChar

StartChar: Eogonek
Encoding: 280 280 59
Width: 255
VWidth: 466
GlyphClass: 2
Flags: MW
HStem: -85.5 33<240.5 249.5 240.5 252.25> -0.5 36<222 222> 0 35.5<54.25 222.5 86 197> 149 35.5<86 208 86 208> 291 35<86 222 86 86>
VStem: 45 41<35.5 149 184.5 291> 185.5 31.5<-40.25 -32.75>
AnchorPoint: "Anchor-1" 138 326 basechar 0
AnchorPoint: "Anchor-0" 140 0 basechar 0
LayerCount: 2
Back
Fore
SplineSet
270 -48 m 0xbe
 275.5 -48 279 -51.5 279 -59.5 c 0
 279 -80.5 264 -85.5 240.5 -85.5 c 0
 191 -85.5 185.5 -51.5 185.5 -37.5 c 0
 185.5 -28 187 -10 197 0 c 1
 59 0 l 2
 49.5 0 45 4 45 14 c 2
 45 312 l 2
 45 322 49.5 326 59 326 c 2
 222 326 l 2
 228.5 326 231 322 231 312 c 2
 231 305 l 2
 231 295 228.5 291 222 291 c 2
 86 291 l 1
 86 184.5 l 1
 208 184.5 l 2
 214.5 184.5 217 180.5 217 170.5 c 2
 217 163 l 2
 217 153.5 214.5 149 208 149 c 2
 86 149 l 1
 86 35.5 l 1
 222.5 35.5 l 2
 229 35.5 231.5 31 231.5 21.5 c 2
 231.5 14 l 2xbe
 231.5 4 229 0 222.5 -0.5 c 1xde
 222.5 -7 217 -17.5 217 -29 c 0
 217 -51.5 235 -52.5 246 -52.5 c 0
 253 -52.5 262.5 -48 270 -48 c 0xbe
EndSplineSet
Position2: "'cpsp' Capital Spacing lookup 0 subtable" dx=5 dy=0 dh=10 dv=0
EndChar

StartChar: uni1EBC
Encoding: 7868 7868 60
Width: 255
VWidth: 466
GlyphClass: 2
Flags: MW
HStem: 0 35.5<54.25 222.5 86 222.5 86 222.5> 149 35.5<86 208 86 208> 291 35<86 222 86 86> 358 26<171.5 186.75 171.5 191> 378 26<95.25 110>
VStem: 45 41<35.5 149 184.5 291>
AnchorPoint: "Anchor-1" 138 326 basechar 0
AnchorPoint: "Anchor-0" 140 0 basechar 0
LayerCount: 2
Back
Fore
SplineSet
66.5 358.5 m 2xf4
 61.5 360 l 2xf4
 58.5 361.5 57.5 363.5 57.5 366 c 0
 57.5 367.5 58 369.5 59 372 c 0
 69 395.5 82.5 404 102 404 c 0xec
 129 404 160.5 384 182.5 384 c 0
 191 384 196.5 387.5 203 397.5 c 0
 206.5 402.5 209 404.5 212.5 404.5 c 0
 214 404.5 215 404 217.5 403 c 2
 220.5 401.5 l 2
 224.5 400.5 226 398.5 226 396 c 0
 226 394.5 225.5 392.5 224.5 389.5 c 0
 214 366.5 200.5 358 181.5 358 c 0xf4
 153 358 121 378 99 378 c 0xec
 91.5 378 86.5 374 80 364 c 0
 76.5 359 74.5 357 71 357 c 0
 70 357 68.5 357.5 66.5 358.5 c 2xf4
59 0 m 2
 49.5 0 45 4 45 14 c 2
 45 312 l 2
 45 322 49.5 326 59 326 c 2
 222 326 l 2
 228.5 326 231 322 231 312 c 2
 231 305 l 2
 231 295 228.5 291 222 291 c 2
 86 291 l 1
 86 184.5 l 1
 208 184.5 l 2
 214.5 184.5 217 180.5 217 170.5 c 2
 217 163 l 2
 217 153.5 214.5 149 208 149 c 2
 86 149 l 1
 86 35.5 l 1
 222.5 35.5 l 2
 229 35.5 231.5 31 231.5 21.5 c 2
 231.5 14 l 2
 231.5 4 229 0 222.5 0 c 2
 59 0 l 2
EndSplineSet
Position2: "'cpsp' Capital Spacing lookup 0 subtable" dx=5 dy=0 dh=10 dv=0
EndChar

StartChar: F
Encoding: 70 70 61
Width: 235
VWidth: 466
GlyphClass: 2
Flags: MW
HStem: -1 21G<57.5 64 64 67.5> 149 35.5<86 197.5 86 197.5> 291 35<86 206 86 86>
VStem: 45 41<9.5 149 184.5 291>
LayerCount: 2
Back
Fore
SplineSet
64 -1 m 2
 51 -1 45 3 45 9.5 c 2
 45 312 l 2
 45 322 49.5 326 59 326 c 2
 206 326 l 2
 212.5 326 215.5 322 215.5 312 c 2
 215.5 305 l 2
 215.5 295 212.5 291 206 291 c 2
 86 291 l 1
 86 184.5 l 1
 197.5 184.5 l 2
 204 184.5 207 180.5 207 170.5 c 2
 207 163 l 2
 207 153.5 204 149 197.5 149 c 2
 86 149 l 1
 86 9.5 l 2
 86 3 80.5 -1 67.5 -1 c 2
 64 -1 l 2
EndSplineSet
Position2: "'cpsp' Capital Spacing lookup 0 subtable" dx=5 dy=0 dh=10 dv=0
EndChar

StartChar: G
Encoding: 71 71 62
Width: 313
VWidth: 466
GlyphClass: 2
Flags: MW
HStem: -3 35.5<132 185.5 132 197> 133 35<175.75 260.5 179 233.5> 293.5 35.5<137.25 200.5 128.75 200.75>
VStem: 26.5 42.5<128.75 205 128.75 218.5> 233.5 41<38.5 133 133 133>
AnchorPoint: "Anchor-1" 157 326 basechar 0
AnchorPoint: "Anchor-0" 181 0 basechar 0
LayerCount: 2
Back
Fore
SplineSet
170.5 -3 m 0
 78 -3 26.5 49.5 26.5 160.5 c 0
 26.5 276.5 80 329 177.5 329 c 0
 223.5 329 266.5 312.5 266.5 300 c 0
 266.5 292 257 273 250.5 273 c 0
 245.5 273 223 293.5 178.5 293.5 c 0
 96 293.5 69 245.5 69 164.5 c 0
 69 93 90.5 32.5 173.5 32.5 c 0
 197.5 32.5 221 35.5 233.5 38.5 c 1
 233.5 133 l 1
 179 133 l 2
 172.5 133 169.5 137 169.5 147 c 2
 169.5 154 l 2
 169.5 164 172.5 168 179 168 c 2
 260.5 168 l 2
 270.5 168 274.5 164 274.5 154 c 2
 274.5 31 l 2
 274.5 4.5 223.5 -3 170.5 -3 c 0
EndSplineSet
Position2: "'cpsp' Capital Spacing lookup 0 subtable" dx=5 dy=0 dh=10 dv=0
EndChar

StartChar: Gbreve
Encoding: 286 286 63
Width: 313
VWidth: 466
GlyphClass: 2
Flags: MW
HStem: -3 35.5<132 185.5 132 197> 133 35<175.75 260.5 179 233.5> 293.5 35.5<137.25 200.5 128.75 200.75> 355 49
VStem: 26.5 42.5<128.75 205 128.75 218.5> 89 134.5<390.75 411> 233.5 41<38.5 133 133 133>
AnchorPoint: "Anchor-1" 157 395 basechar 0
AnchorPoint: "Anchor-0" 181 0 basechar 0
LayerCount: 2
Back
Fore
SplineSet
156.5 355 m 0
 123 355 89 373 89 408.5 c 0
 89 413.5 91 415.5 96 415.5 c 0
 104 415.5 102.5 411.5 106.5 404 c 0
 113.5 391 134 386 156.5 386 c 0
 179.5 386 199.5 391 206.5 404 c 0
 210 411.5 209 415.5 216.5 415.5 c 0
 222 415.5 223.5 413.5 223.5 408.5 c 0
 223.5 373 189.5 355 156.5 355 c 0
170.5 -3 m 0xea
 78 -3 26.5 49.5 26.5 160.5 c 0
 26.5 276.5 80 329 177.5 329 c 0
 223.5 329 266.5 312.5 266.5 300 c 0
 266.5 292 257 273 250.5 273 c 0
 245.5 273 223 293.5 178.5 293.5 c 0
 96 293.5 69 245.5 69 164.5 c 0
 69 93 90.5 32.5 173.5 32.5 c 0
 197.5 32.5 221 35.5 233.5 38.5 c 1
 233.5 133 l 1
 179 133 l 2
 172.5 133 169.5 137 169.5 147 c 2
 169.5 154 l 2
 169.5 164 172.5 168 179 168 c 2
 260.5 168 l 2
 270.5 168 274.5 164 274.5 154 c 2
 274.5 31 l 2
 274.5 4.5 223.5 -3 170.5 -3 c 0xea
EndSplineSet
Position2: "'cpsp' Capital Spacing lookup 0 subtable" dx=5 dy=0 dh=10 dv=0
EndChar

StartChar: Gcircumflex
Encoding: 284 284 64
Width: 313
VWidth: 466
GlyphClass: 2
Flags: MW
HStem: -3 35.5<132 185.5 132 197> 133 35<175.75 260.5 179 233.5> 293.5 35.5<137.25 200.5 128.75 200.75> 391.5 25.5<156 156>
VStem: 26.5 42.5<128.75 205 128.75 218.5> 233.5 41<38.5 133 133 133>
AnchorPoint: "Anchor-1" 233 373 basechar 0
AnchorPoint: "Anchor-0" 181 0 basechar 0
LayerCount: 2
Back
Fore
SplineSet
111 351 m 2
 104 351 100.5 353 100.5 357.5 c 0
 100.5 360 101 362.5 103 366 c 2
 129 407 l 2
 134 414 141.5 417 150.5 417 c 2
 162.5 417 l 2
 171.5 417 179 414 183.5 407 c 2
 210.5 366 l 2
 212 363 213 360 213 358 c 0
 213 353.5 209.5 351 202 351 c 2
 201 351 l 2
 195 351 190 353 185.5 357 c 2
 156 391.5 l 1
 128 357 l 2
 123 353 118.5 351 112 351 c 2
 111 351 l 2
170.5 -3 m 0
 78 -3 26.5 49.5 26.5 160.5 c 0
 26.5 276.5 80 329 177.5 329 c 0
 223.5 329 266.5 312.5 266.5 300 c 0
 266.5 292 257 273 250.5 273 c 0
 245.5 273 223 293.5 178.5 293.5 c 0
 96 293.5 69 245.5 69 164.5 c 0
 69 93 90.5 32.5 173.5 32.5 c 0
 197.5 32.5 221 35.5 233.5 38.5 c 1
 233.5 133 l 1
 179 133 l 2
 172.5 133 169.5 137 169.5 147 c 2
 169.5 154 l 2
 169.5 164 172.5 168 179 168 c 2
 260.5 168 l 2
 270.5 168 274.5 164 274.5 154 c 2
 274.5 31 l 2
 274.5 4.5 223.5 -3 170.5 -3 c 0
EndSplineSet
Position2: "'cpsp' Capital Spacing lookup 0 subtable" dx=5 dy=0 dh=10 dv=0
EndChar

StartChar: Gcommaaccent
Encoding: 290 290 65
Width: 313
VWidth: 466
GlyphClass: 2
Flags: MW
HStem: -109.5 21G<150.5 160.75> -3 35.5<132 185.5 132 197> 133 35<175.75 260.5 179 233.5> 293.5 35.5<137.25 200.5 128.75 200.75>
VStem: 26.5 42.5<128.75 205 128.75 218.5> 159.5 41.5<-56.25 -34.25> 233.5 41<38.5 133 133 133>
AnchorPoint: "Anchor-1" 157 326 basechar 0
AnchorPoint: "Anchor-0" 179 -95 basechar 0
LayerCount: 2
Back
Fore
SplineSet
170.5 -3 m 0
 78 -3 26.5 49.5 26.5 160.5 c 0
 26.5 276.5 80 329 177.5 329 c 0
 223.5 329 266.5 312.5 266.5 300 c 0
 266.5 292 257 273 250.5 273 c 0
 245.5 273 223 293.5 178.5 293.5 c 0
 96 293.5 69 245.5 69 164.5 c 0
 69 93 90.5 32.5 173.5 32.5 c 0
 197.5 32.5 221 35.5 233.5 38.5 c 1
 233.5 133 l 1
 179 133 l 2
 172.5 133 169.5 137 169.5 147 c 2
 169.5 154 l 2
 169.5 164 172.5 168 179 168 c 2
 260.5 168 l 2
 270.5 168 274.5 164 274.5 154 c 2
 274.5 31 l 2
 274.5 4.5 223.5 -3 170.5 -3 c 0
153 -109.5 m 0
 148 -109.5 139.5 -108 139.5 -102.5 c 0
 139.5 -92 159.5 -74 159.5 -38.5 c 0
 159.5 -30 165.5 -24 178 -24 c 2
 182.5 -24 l 2
 194 -24 201 -29 201 -37 c 0
 201 -81.5 168.5 -109.5 153 -109.5 c 0
EndSplineSet
Position2: "'cpsp' Capital Spacing lookup 0 subtable" dx=5 dy=0 dh=10 dv=0
EndChar

StartChar: Gdotaccent
Encoding: 288 288 66
Width: 313
VWidth: 466
GlyphClass: 2
Flags: MW
HStem: -3 35.5<132 185.5 132 197> 133 35<175.75 260.5 179 233.5> 293.5 35.5<137.25 200.5 128.75 200.75> 365.5 34<137 163>
VStem: 26.5 42.5<128.75 205 128.75 218.5> 137 39<375.5 399.5 372.5 402.5> 233.5 41<38.5 133 133 133>
AnchorPoint: "Anchor-1" 157 326 basechar 0
AnchorPoint: "Anchor-0" 181 0 basechar 0
LayerCount: 2
Back
Fore
SplineSet
155.5 365.5 m 0
 142.5 365.5 137 369 137 375.5 c 2
 137 399.5 l 2
 137 405.5 142.5 409.5 157.5 409.5 c 0
 170.5 409.5 176 406 176 399.5 c 2
 176 375.5 l 2
 176 369.5 170.5 365.5 155.5 365.5 c 0
170.5 -3 m 0
 78 -3 26.5 49.5 26.5 160.5 c 0
 26.5 276.5 80 329 177.5 329 c 0
 223.5 329 266.5 312.5 266.5 300 c 0
 266.5 292 257 273 250.5 273 c 0
 245.5 273 223 293.5 178.5 293.5 c 0
 96 293.5 69 245.5 69 164.5 c 0
 69 93 90.5 32.5 173.5 32.5 c 0
 197.5 32.5 221 35.5 233.5 38.5 c 1
 233.5 133 l 1
 179 133 l 2
 172.5 133 169.5 137 169.5 147 c 2
 169.5 154 l 2
 169.5 164 172.5 168 179 168 c 2
 260.5 168 l 2
 270.5 168 274.5 164 274.5 154 c 2
 274.5 31 l 2
 274.5 4.5 223.5 -3 170.5 -3 c 0
EndSplineSet
Position2: "'cpsp' Capital Spacing lookup 0 subtable" dx=5 dy=0 dh=10 dv=0
EndChar

StartChar: H
Encoding: 72 72 67
Width: 342
VWidth: 466
GlyphClass: 2
Flags: MW
HStem: -1 21G<57.5 64 64 67.5 267 273.5 273.5 277.5> 149.5 35.5<86 255 86 255> 307 20G<64 67.5 67.5 74 273.5 277.5 277.5 284>
VStem: 45 41<9.5 149.5 185 317> 255 41<9.5 149.5 149.5 149.5 185 317>
AnchorPoint: "Anchor-1" 171 326 basechar 0
AnchorPoint: "Anchor-0" 175 0 basechar 0
LayerCount: 2
Back
Fore
SplineSet
64 -1 m 2
 51 -1 45 3 45 9.5 c 2
 45 317 l 2
 45 323.5 51 327 64 327 c 2
 67.5 327 l 2
 80.5 327 86 323.5 86 317 c 2
 86 185 l 1
 255 185 l 1
 255 317 l 2
 255 323.5 260.5 327 273.5 327 c 2
 277.5 327 l 2
 290.5 327 296 323.5 296 317 c 2
 296 9.5 l 2
 296 3 290.5 -1 277.5 -1 c 2
 273.5 -1 l 2
 260.5 -1 255 3 255 9.5 c 2
 255 149.5 l 1
 86 149.5 l 1
 86 9.5 l 2
 86 3 80.5 -1 67.5 -1 c 2
 64 -1 l 2
EndSplineSet
Position2: "'cpsp' Capital Spacing lookup 0 subtable" dx=5 dy=0 dh=10 dv=0
EndChar

StartChar: Hbar
Encoding: 294 294 68
Width: 342
VWidth: 466
GlyphClass: 2
Flags: MW
HStem: -1 21G<57.5 64 64 67.5 267 273.5 273.5 277.5> 149.5 35.5<86 255 86 255> 229 32.5<30.75 45 34 45 86 255 296 306> 229 98<30.75 67.5 34 67.5 64 86 64 255>
VStem: 45 41<9.5 149.5 185 229 261.5 317> 255 41<9.5 149.5 149.5 149.5 185 229 261.5 317>
AnchorPoint: "Anchor-1" 171 326 basechar 0
AnchorPoint: "Anchor-0" 175 0 basechar 0
LayerCount: 2
Back
Fore
SplineSet
306 261.5 m 2xec
 312.5 261.5 315 257 315 247.5 c 2
 315 243 l 2
 315 233 312.5 229 306 229 c 2
 296 229 l 1
 296 9.5 l 2
 296 3 290.5 -1 277.5 -1 c 2
 273.5 -1 l 2
 260.5 -1 255 3 255 9.5 c 2
 255 149.5 l 1
 86 149.5 l 1
 86 9.5 l 2
 86 3 80.5 -1 67.5 -1 c 2
 64 -1 l 2
 51 -1 45 3 45 9.5 c 2
 45 229 l 1
 34 229 l 2
 27.5 229 25 233 25 243 c 2
 25 247.5 l 2
 25 257 27.5 261.5 34 261.5 c 2
 45 261.5 l 1xec
 45 317 l 2
 45 323.5 51 327 64 327 c 2
 67.5 327 l 2
 80.5 327 86 323.5 86 317 c 2xdc
 86 261.5 l 1
 255 261.5 l 1xec
 255 317 l 2
 255 323.5 260.5 327 273.5 327 c 2
 277.5 327 l 2
 290.5 327 296 323.5 296 317 c 2xdc
 296 261.5 l 1
 306 261.5 l 2xec
255 185 m 1
 255 229 l 1
 86 229 l 1
 86 185 l 1
 255 185 l 1
EndSplineSet
Position2: "'cpsp' Capital Spacing lookup 0 subtable" dx=5 dy=0 dh=10 dv=0
EndChar

StartChar: Hcircumflex
Encoding: 292 292 69
Width: 342
VWidth: 466
GlyphClass: 2
Flags: MW
HStem: -1 21G<57.5 64 64 67.5 267 273.5 273.5 277.5> 149.5 35.5<86 255 86 255> 307 20G<64 67.5 67.5 74 273.5 277.5 277.5 284> 391.5 25.5<170.5 170.5>
VStem: 45 41<9.5 149.5 185 317> 255 41<9.5 149.5 149.5 149.5 185 317>
AnchorPoint: "Anchor-1" 247 373 basechar 0
AnchorPoint: "Anchor-0" 175 0 basechar 0
LayerCount: 2
Back
Fore
SplineSet
125.5 351 m 2
 118.5 351 115 353 115 357.5 c 0
 115 360 115.5 362.5 117.5 366 c 2
 143.5 407 l 2
 148.5 414 156 417 165 417 c 2
 177 417 l 2
 186 417 193.5 414 198 407 c 2
 225 366 l 2
 226.5 363 227.5 360 227.5 358 c 0
 227.5 353.5 224 351 216.5 351 c 2
 215.5 351 l 2
 209.5 351 204.5 353 200 357 c 2
 170.5 391.5 l 1
 142.5 357 l 2
 137.5 353 133 351 126.5 351 c 2
 125.5 351 l 2
64 -1 m 2
 51 -1 45 3 45 9.5 c 2
 45 317 l 2
 45 323.5 51 327 64 327 c 2
 67.5 327 l 2
 80.5 327 86 323.5 86 317 c 2
 86 185 l 1
 255 185 l 1
 255 317 l 2
 255 323.5 260.5 327 273.5 327 c 2
 277.5 327 l 2
 290.5 327 296 323.5 296 317 c 2
 296 9.5 l 2
 296 3 290.5 -1 277.5 -1 c 2
 273.5 -1 l 2
 260.5 -1 255 3 255 9.5 c 2
 255 149.5 l 1
 86 149.5 l 1
 86 9.5 l 2
 86 3 80.5 -1 67.5 -1 c 2
 64 -1 l 2
EndSplineSet
Position2: "'cpsp' Capital Spacing lookup 0 subtable" dx=5 dy=0 dh=10 dv=0
EndChar

StartChar: uni1E24
Encoding: 7716 7716 70
Width: 342
VWidth: 466
GlyphClass: 2
Flags: MW
HStem: -81.5 34<156.5 182.5> -1 21G<57.5 64 64 67.5 267 273.5 273.5 277.5> 149.5 35.5<86 255 86 255> 307 20G<64 67.5 67.5 74 273.5 277.5 277.5 284>
VStem: 45 41<9.5 149.5 185 317> 156.5 39<-71.5 -47.5 -74.5 -44.5> 255 41<9.5 149.5 149.5 149.5 185 317>
AnchorPoint: "Anchor-1" 171 326 basechar 0
AnchorPoint: "Anchor-0" 175 -95 basechar 0
LayerCount: 2
Back
Fore
SplineSet
64 -1 m 2
 51 -1 45 3 45 9.5 c 2
 45 317 l 2
 45 323.5 51 327 64 327 c 2
 67.5 327 l 2
 80.5 327 86 323.5 86 317 c 2
 86 185 l 1
 255 185 l 1
 255 317 l 2
 255 323.5 260.5 327 273.5 327 c 2
 277.5 327 l 2
 290.5 327 296 323.5 296 317 c 2
 296 9.5 l 2
 296 3 290.5 -1 277.5 -1 c 2
 273.5 -1 l 2
 260.5 -1 255 3 255 9.5 c 2
 255 149.5 l 1
 86 149.5 l 1
 86 9.5 l 2
 86 3 80.5 -1 67.5 -1 c 2
 64 -1 l 2
175 -81.5 m 0
 162 -81.5 156.5 -78 156.5 -71.5 c 2
 156.5 -47.5 l 2
 156.5 -41.5 162 -37.5 177 -37.5 c 0
 190 -37.5 195.5 -41 195.5 -47.5 c 2
 195.5 -71.5 l 2
 195.5 -77.5 190 -81.5 175 -81.5 c 0
EndSplineSet
Position2: "'cpsp' Capital Spacing lookup 0 subtable" dx=5 dy=0 dh=10 dv=0
EndChar

StartChar: I
Encoding: 73 73 71
Width: 132
VWidth: 466
GlyphClass: 2
Flags: MW
HStem: -1 21G<57.5 64 64 67.5> 307 20G<64 67.5 67.5 74>
VStem: 45 41<9.5 317>
AnchorPoint: "Anchor-1" 66 326 basechar 0
AnchorPoint: "Anchor-0" 65 0 basechar 0
LayerCount: 2
Back
Fore
SplineSet
64 -1 m 2
 51 -1 45 3 45 9.5 c 2
 45 317 l 2
 45 323.5 51 327 64 327 c 2
 67.5 327 l 2
 80.5 327 86 323.5 86 317 c 2
 86 9.5 l 2
 86 3 80.5 -1 67.5 -1 c 2
 64 -1 l 2
EndSplineSet
Position2: "'cpsp' Capital Spacing lookup 0 subtable" dx=5 dy=0 dh=10 dv=0
EndChar

StartChar: IJ
Encoding: 306 306 72
Width: 319
VWidth: 466
GlyphClass: 2
Flags: MW
HStem: -3 36.5<172.5 197 166.5 217.25> 307 20G<64 67.5 67.5 74 258 261.5 261.5 268>
VStem: 45 41<9.5 317> 239 41<91 95.5 95.5 317>
AnchorPoint: "Anchor-1" 258 326 basechar 0
AnchorPoint: "Anchor-0" 65 0 basechar 0
LayerCount: 2
Back
Fore
SplineSet
64 -1 m 2
 51 -1 45 3 45 9.5 c 2
 45 317 l 2
 45 323.5 51 327 64 327 c 2
 67.5 327 l 2
 80.5 327 86 323.5 86 317 c 2
 86 9.5 l 2
 86 3 80.5 -1 67.5 -1 c 2
 64 -1 l 2
181.5 -3 m 0
 163.5 -3 134.5 -0.5 134.5 12 c 0
 134.5 14 137 37.5 144.5 37.5 c 0
 148.5 37.5 159 33.5 174 33.5 c 0
 220 33.5 239 51 239 91 c 2
 239 317 l 2
 239 323.5 244.5 327 258 327 c 2
 261.5 327 l 2
 274.5 327 280 323.5 280 317 c 2
 280 95.5 l 2
 280 37 253 -3 181.5 -3 c 0
EndSplineSet
Position2: "'cpsp' Capital Spacing lookup 0 subtable" dx=5 dy=0 dh=10 dv=0
EndChar

StartChar: Iacute
Encoding: 205 205 73
Width: 132
VWidth: 466
GlyphClass: 2
Flags: MW
HStem: -1 21G<57.5 64 64 67.5> 307 20G<64 67.5 67.5 74> 355 68.5<53.75 110.5>
VStem: 45 41<9.5 317>
AnchorPoint: "Anchor-1" 66 326 basechar 0
AnchorPoint: "Anchor-0" 65 0 basechar 0
LayerCount: 2
Back
Fore
SplineSet
57.5 355 m 0
 50 355 47 356.5 47 360 c 0
 47 364.5 52.5 374 74 411.5 c 0
 79 420.5 88 423.5 103 423.5 c 0
 118 423.5 125.5 422 125.5 417.5 c 0
 125.5 412.5 120.5 408 81.5 363.5 c 0
 76.5 358 67.5 355 57.5 355 c 0
64 -1 m 2
 51 -1 45 3 45 9.5 c 2
 45 317 l 2
 45 323.5 51 327 64 327 c 2
 67.5 327 l 2
 80.5 327 86 323.5 86 317 c 2xd0
 86 9.5 l 2
 86 3 80.5 -1 67.5 -1 c 2
 64 -1 l 2
EndSplineSet
Position2: "'cpsp' Capital Spacing lookup 0 subtable" dx=5 dy=0 dh=10 dv=0
EndChar

StartChar: Ibreve
Encoding: 300 300 74
Width: 132
VWidth: 466
GlyphClass: 2
Flags: MW
HStem: -1 21G<57.5 64 64 67.5> 307 20G<64 67.5 67.5 74> 355 49
VStem: 45 41<9.5 317>
AnchorPoint: "Anchor-1" 66 395 basechar 0
AnchorPoint: "Anchor-0" 65 0 basechar 0
LayerCount: 2
Back
Fore
SplineSet
65.5 355 m 0
 32 355 -2 373 -2 408.5 c 0
 -2 413.5 0 415.5 5 415.5 c 0
 13 415.5 11.5 411.5 15.5 404 c 0
 22.5 391 43 386 65.5 386 c 0
 88.5 386 108.5 391 115.5 404 c 0
 119 411.5 118 415.5 125.5 415.5 c 0
 131 415.5 132.5 413.5 132.5 408.5 c 0
 132.5 373 98.5 355 65.5 355 c 0
64 -1 m 2
 51 -1 45 3 45 9.5 c 2
 45 317 l 2
 45 323.5 51 327 64 327 c 2
 67.5 327 l 2
 80.5 327 86 323.5 86 317 c 2xd0
 86 9.5 l 2
 86 3 80.5 -1 67.5 -1 c 2
 64 -1 l 2
EndSplineSet
Position2: "'cpsp' Capital Spacing lookup 0 subtable" dx=5 dy=0 dh=10 dv=0
EndChar

StartChar: Icircumflex
Encoding: 206 206 75
Width: 132
VWidth: 466
GlyphClass: 2
Flags: MW
HStem: -1 21G<57.5 64 64 67.5> 307 20G<64 67.5 67.5 74> 391.5 25.5<65 65>
VStem: 45 41<9.5 317>
AnchorPoint: "Anchor-1" 142 373 basechar 0
AnchorPoint: "Anchor-0" 65 0 basechar 0
LayerCount: 2
Back
Fore
SplineSet
20 351 m 2
 13 351 9.5 353 9.5 357.5 c 0
 9.5 360 10 362.5 12 366 c 2
 38 407 l 2
 43 414 50.5 417 59.5 417 c 2
 71.5 417 l 2
 80.5 417 88 414 92.5 407 c 2
 119.5 366 l 2
 121 363 122 360 122 358 c 0
 122 353.5 118.5 351 111 351 c 2
 110 351 l 2
 104 351 99 353 94.5 357 c 2
 65 391.5 l 1
 37 357 l 2
 32 353 27.5 351 21 351 c 2
 20 351 l 2
64 -1 m 2
 51 -1 45 3 45 9.5 c 2
 45 317 l 2
 45 323.5 51 327 64 327 c 2
 67.5 327 l 2
 80.5 327 86 323.5 86 317 c 2
 86 9.5 l 2
 86 3 80.5 -1 67.5 -1 c 2
 64 -1 l 2
EndSplineSet
Position2: "'cpsp' Capital Spacing lookup 0 subtable" dx=5 dy=0 dh=10 dv=0
EndChar

StartChar: Idieresis
Encoding: 207 207 76
Width: 132
VWidth: 466
GlyphClass: 2
Flags: MW
HStem: -1 21G<57.5 64 64 67.5> 307 20G<64 67.5 67.5 74> 365.5 34<12.5 38.5>
VStem: 12.5 39<375.5 399.5 372.5 402.5> 45 41<9.5 317> 79.5 39<375.5 399.5 372.5 402.5>
AnchorPoint: "Anchor-1" 66 326 basechar 0
AnchorPoint: "Anchor-0" 65 0 basechar 0
LayerCount: 2
Back
Fore
SplineSet
31 365.5 m 0xf0
 18 365.5 12.5 369 12.5 375.5 c 2
 12.5 399.5 l 2
 12.5 405.5 18 409.5 33 409.5 c 0
 46 409.5 51.5 406 51.5 399.5 c 2
 51.5 375.5 l 2
 51.5 369.5 46 365.5 31 365.5 c 0xf0
98 365.5 m 0xe4
 85 365.5 79.5 369 79.5 375.5 c 2
 79.5 399.5 l 2
 79.5 405.5 85 409.5 100 409.5 c 0
 113 409.5 118.5 406 118.5 399.5 c 2
 118.5 375.5 l 2
 118.5 369.5 113 365.5 98 365.5 c 0xe4
64 -1 m 2xe8
 51 -1 45 3 45 9.5 c 2
 45 317 l 2
 45 323.5 51 327 64 327 c 2
 67.5 327 l 2
 80.5 327 86 323.5 86 317 c 2
 86 9.5 l 2
 86 3 80.5 -1 67.5 -1 c 2
 64 -1 l 2xe8
EndSplineSet
Position2: "'cpsp' Capital Spacing lookup 0 subtable" dx=5 dy=0 dh=10 dv=0
EndChar

StartChar: Idotaccent
Encoding: 304 304 77
Width: 132
VWidth: 466
GlyphClass: 2
Flags: MW
HStem: -1 21G<57.5 64 64 67.5> 307 20G<64 67.5 67.5 74> 365.5 34<46 72>
VStem: 45 41<9.5 317>
AnchorPoint: "Anchor-1" 66 326 basechar 0
AnchorPoint: "Anchor-0" 65 0 basechar 0
LayerCount: 2
Back
Fore
SplineSet
64.5 365.5 m 0
 51.5 365.5 46 369 46 375.5 c 2
 46 399.5 l 2
 46 405.5 51.5 409.5 66.5 409.5 c 0
 79.5 409.5 85 406 85 399.5 c 2
 85 375.5 l 2
 85 369.5 79.5 365.5 64.5 365.5 c 0
64 -1 m 2
 51 -1 45 3 45 9.5 c 2
 45 317 l 2
 45 323.5 51 327 64 327 c 2
 67.5 327 l 2
 80.5 327 86 323.5 86 317 c 2
 86 9.5 l 2
 86 3 80.5 -1 67.5 -1 c 2
 64 -1 l 2
EndSplineSet
Position2: "'cpsp' Capital Spacing lookup 0 subtable" dx=5 dy=0 dh=10 dv=0
EndChar

StartChar: uni1ECA
Encoding: 7882 7882 78
Width: 132
VWidth: 466
GlyphClass: 2
Flags: MW
HStem: -81.5 34<46.5 72.5> -1 21G<57.5 64 64 67.5> 307 20G<64 67.5 67.5 74>
VStem: 45 41<9.5 317>
AnchorPoint: "Anchor-1" 66 326 basechar 0
AnchorPoint: "Anchor-0" 65 -95 basechar 0
LayerCount: 2
Back
Fore
SplineSet
64 -1 m 2
 51 -1 45 3 45 9.5 c 2
 45 317 l 2
 45 323.5 51 327 64 327 c 2
 67.5 327 l 2
 80.5 327 86 323.5 86 317 c 2
 86 9.5 l 2
 86 3 80.5 -1 67.5 -1 c 2
 64 -1 l 2
65 -81.5 m 0
 52 -81.5 46.5 -78 46.5 -71.5 c 2
 46.5 -47.5 l 2
 46.5 -41.5 52 -37.5 67 -37.5 c 0
 80 -37.5 85.5 -41 85.5 -47.5 c 2
 85.5 -71.5 l 2
 85.5 -77.5 80 -81.5 65 -81.5 c 0
EndSplineSet
Position2: "'cpsp' Capital Spacing lookup 0 subtable" dx=5 dy=0 dh=10 dv=0
EndChar

StartChar: Igrave
Encoding: 204 204 79
Width: 132
VWidth: 466
GlyphClass: 2
Flags: MW
HStem: -1 21G<57.5 64 64 67.5> 307 20G<64 67.5 67.5 74> 355 68.5<25.5 81.75>
VStem: 45 41<9.5 317>
AnchorPoint: "Anchor-1" 66 326 basechar 0
AnchorPoint: "Anchor-0" 65 0 basechar 0
LayerCount: 2
Back
Fore
SplineSet
78 355 m 0
 68.5 355 59.5 358 54.5 363.5 c 0
 15 408 10.5 412.5 10.5 417.5 c 0
 10.5 422 18 423.5 33 423.5 c 0
 48 423.5 56.5 420.5 61.5 411.5 c 0
 83 374 89 364.5 89 360 c 0
 89 356.5 85.5 355 78 355 c 0
64 -1 m 2
 51 -1 45 3 45 9.5 c 2
 45 317 l 2
 45 323.5 51 327 64 327 c 2
 67.5 327 l 2
 80.5 327 86 323.5 86 317 c 2xd0
 86 9.5 l 2
 86 3 80.5 -1 67.5 -1 c 2
 64 -1 l 2
EndSplineSet
Position2: "'cpsp' Capital Spacing lookup 0 subtable" dx=5 dy=0 dh=10 dv=0
EndChar

StartChar: uni1EC8
Encoding: 7880 7880 80
Width: 132
VWidth: 466
GlyphClass: 2
Flags: MW
HStem: -1 21G<57.5 64 64 67.5> 307 20G<64 67.5 67.5 74> 408 24<60.75 69.75>
VStem: 45 41<9.5 317> 82.5 28.5<384 399.75>
AnchorPoint: "Anchor-1" 66 409 basechar 0
AnchorPoint: "Anchor-0" 65 0 basechar 0
LayerCount: 2
Back
Fore
SplineSet
69 345 m 0xf0
 64.5 345 53.5 348.5 53.5 353 c 0
 53.5 366.5 82.5 372.5 82.5 395.5 c 0
 82.5 404 74.5 408 65 408 c 0
 50.5 408 46 402 43.5 402 c 0
 40 402 32.5 413 32.5 417.5 c 0
 32.5 423.5 52.5 432 69 432 c 0
 84.5 432 111 424.5 111 399 c 0xe8
 111 368 74.5 345 69 345 c 0xf0
64 -1 m 2
 51 -1 45 3 45 9.5 c 2
 45 317 l 2
 45 323.5 51 327 64 327 c 2
 67.5 327 l 2
 80.5 327 86 323.5 86 317 c 2
 86 9.5 l 2
 86 3 80.5 -1 67.5 -1 c 2
 64 -1 l 2
EndSplineSet
Position2: "'cpsp' Capital Spacing lookup 0 subtable" dx=5 dy=0 dh=10 dv=0
EndChar

StartChar: Imacron
Encoding: 298 298 81
Width: 132
VWidth: 466
GlyphClass: 2
Flags: MW
HStem: -1 21G<57.5 64 64 67.5> 307 20G<64 67.5 67.5 74> 367.5 33<10.25 117.5 13.5 117.5>
VStem: 45 41<9.5 317>
AnchorPoint: "Anchor-1" 66 326 basechar 0
AnchorPoint: "Anchor-0" 65 0 basechar 0
LayerCount: 2
Back
Fore
SplineSet
13.5 367.5 m 2
 7 367.5 4 372 4 381.5 c 2
 4 386.5 l 2
 4 396 7 400.5 13.5 400.5 c 2
 117.5 400.5 l 2
 124 400.5 126.5 396 126.5 386.5 c 2
 126.5 381.5 l 2
 126.5 372 124 367.5 117.5 367.5 c 2
 13.5 367.5 l 2
64 -1 m 2
 51 -1 45 3 45 9.5 c 2
 45 317 l 2
 45 323.5 51 327 64 327 c 2
 67.5 327 l 2
 80.5 327 86 323.5 86 317 c 2
 86 9.5 l 2
 86 3 80.5 -1 67.5 -1 c 2
 64 -1 l 2
EndSplineSet
Position2: "'cpsp' Capital Spacing lookup 0 subtable" dx=5 dy=0 dh=10 dv=0
EndChar

StartChar: Iogonek
Encoding: 302 302 82
Width: 132
VWidth: 466
GlyphClass: 2
Flags: MW
HStem: -85.5 33<95.5 104.5 95.5 107.25> -0.5 21G 0.5 21G 307 20G<64 67.5 67.5 74>
VStem: 45 41<9.5 317>
AnchorPoint: "Anchor-1" 66 326 basechar 0
AnchorPoint: "Anchor-0" 65 0 basechar 0
LayerCount: 2
Back
Fore
SplineSet
125 -48 m 0xb8
 130.5 -48 134 -51.5 134 -59.5 c 0
 134 -80.5 119 -85.5 95.5 -85.5 c 0
 46 -85.5 40.5 -51.5 40.5 -37.5 c 0
 40.5 -28 42 -9 52.5 0.5 c 1
 47.5 2 45 5.5 45 9.5 c 2xb8
 45 317 l 2
 45 323.5 51 327 64 327 c 2
 67.5 327 l 2
 80.5 327 86 323.5 86 317 c 2
 86 9.5 l 2
 86 5 83.5 1.5 77.5 -0.5 c 1xd8
 77.5 -7 72 -17.5 72 -29 c 0
 72 -51.5 90 -52.5 101 -52.5 c 0
 108 -52.5 117.5 -48 125 -48 c 0xb8
EndSplineSet
Position2: "'cpsp' Capital Spacing lookup 0 subtable" dx=5 dy=0 dh=10 dv=0
EndChar

StartChar: Itilde
Encoding: 296 296 83
Width: 132
VWidth: 466
GlyphClass: 2
Flags: MW
HStem: -1 21G<57.5 64 64 67.5> 307 20G<64 67.5 67.5 74>
VStem: 45 41<9.5 317>
AnchorPoint: "Anchor-1" 66 326 basechar 0
AnchorPoint: "Anchor-0" 65 0 basechar 0
LayerCount: 2
Back
Fore
SplineSet
67.5 327 m 2
 80.5 327 86 323.5 86 317 c 2
 86 9.5 l 2
 86 3 80.5 -1 67.5 -1 c 2
 64 -1 l 2
 51 -1 45 3 45 9.5 c 2
 45 317 l 2
 45 323.5 51 327 64 327 c 2
 67.5 327 l 2
EndSplineSet
Position2: "'cpsp' Capital Spacing lookup 0 subtable" dx=5 dy=0 dh=10 dv=0
EndChar

StartChar: J
Encoding: 74 74 84
Width: 188
VWidth: 466
GlyphClass: 2
Flags: MW
HStem: -3 36.5<41 65.5 35 85.75> 307 20G<126.5 130 130 136.5>
VStem: 107.5 41<91 95.5 95.5 317>
AnchorPoint: "Anchor-1" 127 326 basechar 0
AnchorPoint: "Anchor-0" 0 0 basechar 0
LayerCount: 2
Back
Fore
SplineSet
50 -3 m 0
 32 -3 3 -0.5 3 12 c 0
 3 14 5.5 37.5 13 37.5 c 0
 17 37.5 27.5 33.5 42.5 33.5 c 0
 88.5 33.5 107.5 51 107.5 91 c 2
 107.5 317 l 2
 107.5 323.5 113 327 126.5 327 c 2
 130 327 l 2
 143 327 148.5 323.5 148.5 317 c 2
 148.5 95.5 l 2
 148.5 37 121.5 -3 50 -3 c 0
EndSplineSet
Position2: "'cpsp' Capital Spacing lookup 0 subtable" dx=5 dy=0 dh=10 dv=0
EndChar

StartChar: Jcircumflex
Encoding: 308 308 85
Width: 188
VWidth: 466
GlyphClass: 2
Flags: MW
HStem: -3 36.5<41 65.5 35 85.75> 307 20G<126.5 130 130 136.5> 391.5 25.5<126 126>
VStem: 107.5 41<91 95.5 95.5 317>
AnchorPoint: "Anchor-1" 203 373 basechar 0
AnchorPoint: "Anchor-0" 0 0 basechar 0
LayerCount: 2
Back
Fore
SplineSet
81 351 m 2
 74 351 70.5 353 70.5 357.5 c 0
 70.5 360 71 362.5 73 366 c 2
 99 407 l 2
 104 414 111.5 417 120.5 417 c 2
 132.5 417 l 2
 141.5 417 149 414 153.5 407 c 2
 180.5 366 l 2
 182 363 183 360 183 358 c 0
 183 353.5 179.5 351 172 351 c 2
 171 351 l 2
 165 351 160 353 155.5 357 c 2
 126 391.5 l 1
 98 357 l 2
 93 353 88.5 351 82 351 c 2
 81 351 l 2
50 -3 m 0
 32 -3 3 -0.5 3 12 c 0
 3 14 5.5 37.5 13 37.5 c 0
 17 37.5 27.5 33.5 42.5 33.5 c 0
 88.5 33.5 107.5 51 107.5 91 c 2
 107.5 317 l 2
 107.5 323.5 113 327 126.5 327 c 2
 130 327 l 2
 143 327 148.5 323.5 148.5 317 c 2
 148.5 95.5 l 2
 148.5 37 121.5 -3 50 -3 c 0
EndSplineSet
Position2: "'cpsp' Capital Spacing lookup 0 subtable" dx=5 dy=0 dh=10 dv=0
EndChar

StartChar: K
Encoding: 75 75 86
Width: 269
VWidth: 466
GlyphClass: 2
Flags: MW
HStem: -1 21G<57.5 64 64 67.5 241.75 247 247 252.5> 307 20G<64 67.5 67.5 74 228 232.5 232.5 238>
VStem: 45 41<9.5 155 174.5 317>
AnchorPoint: "Anchor-1" 134 326 basechar 0
AnchorPoint: "Anchor-0" 134 0 basechar 0
LayerCount: 2
Back
Fore
SplineSet
64 -1 m 2
 51 -1 45 3 45 9.5 c 2
 45 317 l 2
 45 323.5 51 327 64 327 c 2
 67.5 327 l 2
 80.5 327 86 323.5 86 317 c 2
 86 174.5 l 1
 88 174.5 l 1
 202.5 320.5 l 2
 207 325.5 217.5 327 228 327 c 2
 232.5 327 l 2
 243.5 327 249 324.5 249 321 c 0
 249 318.5 247.5 315.5 244 312 c 2
 127.5 166.5 l 1
 269 13 l 2
 272 9.5 273 7.5 273 5.5 c 0
 273 0.5 267 -1 252.5 -1 c 2
 247 -1 l 2
 236.5 -1 227 -1 221.5 5 c 2
 88 155 l 1
 86 155 l 1
 86 9.5 l 2
 86 3 80.5 -1 67.5 -1 c 2
 64 -1 l 2
EndSplineSet
Position2: "'cpsp' Capital Spacing lookup 0 subtable" dx=5 dy=0 dh=10 dv=0
EndChar

StartChar: Kcommaaccent
Encoding: 310 310 87
Width: 269
VWidth: 466
GlyphClass: 2
Flags: MW
HStem: -109.5 21G<104 114.25> -1 21G<57.5 64 64 67.5 241.75 247 247 252.5> 307 20G<64 67.5 67.5 74 228 232.5 232.5 238>
VStem: 45 41<9.5 155 174.5 317> 113 41.5<-56.25 -34.25>
AnchorPoint: "Anchor-1" 134 326 basechar 0
AnchorPoint: "Anchor-0" 132 -95 basechar 0
LayerCount: 2
Back
Fore
SplineSet
64 -1 m 2
 51 -1 45 3 45 9.5 c 2
 45 317 l 2
 45 323.5 51 327 64 327 c 2
 67.5 327 l 2
 80.5 327 86 323.5 86 317 c 2
 86 174.5 l 1
 88 174.5 l 1
 202.5 320.5 l 2
 207 325.5 217.5 327 228 327 c 2
 232.5 327 l 2
 243.5 327 249 324.5 249 321 c 0
 249 318.5 247.5 315.5 244 312 c 2
 127.5 166.5 l 1
 269 13 l 2
 272 9.5 273 7.5 273 5.5 c 0
 273 0.5 267 -1 252.5 -1 c 2
 247 -1 l 2
 236.5 -1 227 -1 221.5 5 c 2
 88 155 l 1
 86 155 l 1
 86 9.5 l 2
 86 3 80.5 -1 67.5 -1 c 2
 64 -1 l 2
106.5 -109.5 m 0xf8
 101.5 -109.5 93 -108 93 -102.5 c 0
 93 -92 113 -74 113 -38.5 c 0
 113 -30 119 -24 131.5 -24 c 2
 136 -24 l 2
 147.5 -24 154.5 -29 154.5 -37 c 0
 154.5 -81.5 122 -109.5 106.5 -109.5 c 0xf8
EndSplineSet
Position2: "'cpsp' Capital Spacing lookup 0 subtable" dx=5 dy=0 dh=10 dv=0
EndChar

StartChar: L
Encoding: 76 76 88
Width: 226
VWidth: 466
GlyphClass: 2
Flags: MW
HStem: 0 35.5<54.25 214.5 86 214.5 86 214.5> 307 20G<64 67.5 67.5 74>
VStem: 45 41<35.5 317 35.5 317 35.5 320.25>
AnchorPoint: "Anchor-1" 68 327 basechar 0
AnchorPoint: "Anchor-0" 132 0 basechar 0
LayerCount: 2
Back
Fore
SplineSet
59 0 m 2
 49.5 0 45 4 45 14 c 2
 45 317 l 2
 45 323.5 51 327 64 327 c 2
 67.5 327 l 2
 80.5 327 86 323.5 86 317 c 2
 86 35.5 l 1
 214.5 35.5 l 2
 221 35.5 223.5 31 223.5 21.5 c 2
 223.5 14 l 2
 223.5 4 221 0 214.5 0 c 2
 59 0 l 2
EndSplineSet
Position2: "'cpsp' Capital Spacing lookup 0 subtable" dx=5 dy=0 dh=10 dv=0
EndChar

StartChar: uni01C7
Encoding: 455 455 89
Width: 335
VWidth: 466
GlyphClass: 2
Flags: MW
HStem: -72.5 36<187.25 211.75 181.25 232> 0 35.5<54.25 181.5 86 181.5 86 181.5> 307 20G<64 67.5 67.5 74 272.5 276.5 276.5 283>
VStem: 45 41<35.5 317 35.5 317 35.5 320.25> 254 41<21 25.5 25.5 317>
LayerCount: 2
Back
Fore
SplineSet
59 0 m 2
 49.5 0 45 4 45 14 c 2
 45 317 l 2
 45 323.5 51 327 64 327 c 2
 67.5 327 l 2
 80.5 327 86 323.5 86 317 c 2
 86 35.5 l 1
 181.5 35.5 l 2
 188.5 35.5 191 31 191 21.5 c 2
 191 14 l 2
 191 4 188.5 0 181.5 0 c 2
 59 0 l 2
196 -72.5 m 0
 178.5 -72.5 149 -70.5 149 -58 c 0
 149 -56 152 -32 159.5 -32 c 0
 163 -32 174 -36.5 188.5 -36.5 c 0
 235 -36.5 254 -19 254 21 c 2
 254 317 l 2
 254 323.5 259.5 327 272.5 327 c 2
 276.5 327 l 2
 289.5 327 295 323.5 295 317 c 2
 295 25.5 l 2
 295 -33 268 -72.5 196 -72.5 c 0
EndSplineSet
Position2: "'cpsp' Capital Spacing lookup 0 subtable" dx=5 dy=0 dh=10 dv=0
EndChar

StartChar: Lacute
Encoding: 313 313 90
Width: 226
VWidth: 466
GlyphClass: 2
Flags: MW
HStem: 0 35.5<54.25 214.5 86 214.5 86 214.5> 307 20G<64 67.5 67.5 74> 356 68.5<55.75 112.5>
VStem: 45 41<35.5 317 35.5 317 35.5 320.25>
AnchorPoint: "Anchor-1" 68 327 basechar 0
AnchorPoint: "Anchor-0" 132 0 basechar 0
LayerCount: 2
Back
Fore
SplineSet
59.5 356 m 0
 52 356 49 357.5 49 361 c 0
 49 365.5 54.5 375 76 412.5 c 0
 81 421.5 90 424.5 105 424.5 c 0
 120 424.5 127.5 423 127.5 418.5 c 0
 127.5 413.5 122.5 409 83.5 364.5 c 0
 78.5 359 69.5 356 59.5 356 c 0
59 0 m 2
 49.5 0 45 4 45 14 c 2
 45 317 l 2
 45 323.5 51 327 64 327 c 2
 67.5 327 l 2
 80.5 327 86 323.5 86 317 c 2xd0
 86 35.5 l 1
 214.5 35.5 l 2
 221 35.5 223.5 31 223.5 21.5 c 2
 223.5 14 l 2
 223.5 4 221 0 214.5 0 c 2
 59 0 l 2
EndSplineSet
Position2: "'cpsp' Capital Spacing lookup 0 subtable" dx=5 dy=0 dh=10 dv=0
EndChar

StartChar: Lcaron
Encoding: 317 317 91
Width: 226
VWidth: 466
GlyphClass: 2
Flags: MW
HStem: 0 35.5<54.25 214.5 86 214.5 86 214.5> 306 20G<161.5 166 166 171.75> 307 20G<64 67.5 67.5 74>
VStem: 45 41<35.5 317 35.5 317 35.5 320.25> 143 41.5<294.75 315.75>
AnchorPoint: "Anchor-1" 68 327 basechar 0
AnchorPoint: "Anchor-0" 132 0 basechar 0
LayerCount: 2
Back
Fore
SplineSet
59 0 m 2xb8
 49.5 0 45 4 45 14 c 2
 45 317 l 2
 45 323.5 51 327 64 327 c 2
 67.5 327 l 2
 80.5 327 86 323.5 86 317 c 2
 86 35.5 l 1
 214.5 35.5 l 2
 221 35.5 223.5 31 223.5 21.5 c 2
 223.5 14 l 2
 223.5 4 221 0 214.5 0 c 2
 59 0 l 2xb8
150.5 245 m 0xd8
 145.5 245 137 246.5 137 252 c 0
 137 262 143 278 143 311.5 c 0
 143 320 149 326 161.5 326 c 2
 166 326 l 2
 177.5 326 184.5 321 184.5 313 c 0
 184.5 271 161.5 245 150.5 245 c 0xd8
EndSplineSet
Position2: "'cpsp' Capital Spacing lookup 0 subtable" dx=5 dy=0 dh=10 dv=0
EndChar

StartChar: Lcommaaccent
Encoding: 315 315 92
Width: 226
VWidth: 466
GlyphClass: 2
Flags: MW
HStem: -109.5 21G<101.5 111.75> 0 35.5<54.25 214.5 86 214.5 86 214.5> 307 20G<64 67.5 67.5 74>
VStem: 45 41<35.5 317 35.5 317 35.5 320.25> 110.5 41.5<-56.25 -34.25>
AnchorPoint: "Anchor-1" 68 327 basechar 0
AnchorPoint: "Anchor-0" 130 -95 basechar 0
LayerCount: 2
Back
Fore
SplineSet
59 0 m 2
 49.5 0 45 4 45 14 c 2
 45 317 l 2
 45 323.5 51 327 64 327 c 2
 67.5 327 l 2
 80.5 327 86 323.5 86 317 c 2
 86 35.5 l 1
 214.5 35.5 l 2
 221 35.5 223.5 31 223.5 21.5 c 2
 223.5 14 l 2
 223.5 4 221 0 214.5 0 c 2
 59 0 l 2
104 -109.5 m 0xf8
 99 -109.5 90.5 -108 90.5 -102.5 c 0
 90.5 -92 110.5 -74 110.5 -38.5 c 0
 110.5 -30 116.5 -24 129 -24 c 2
 133.5 -24 l 2
 145 -24 152 -29 152 -37 c 0
 152 -81.5 119.5 -109.5 104 -109.5 c 0xf8
EndSplineSet
Position2: "'cpsp' Capital Spacing lookup 0 subtable" dx=5 dy=0 dh=10 dv=0
EndChar

StartChar: Ldot
Encoding: 319 319 93
Width: 226
VWidth: 466
GlyphClass: 2
Flags: MW
HStem: 0 35.5<54.25 214.5 86 214.5 86 214.5> 144 48<133.75 147.25> 307 20G<64 67.5 67.5 74>
VStem: 45 41<35.5 317 35.5 317 35.5 320.25> 117 48<161 174.75>
AnchorPoint: "Anchor-1" 68 327 basechar 0
AnchorPoint: "Anchor-0" 132 0 basechar 0
LayerCount: 2
Back
Fore
SplineSet
59 0 m 2
 49.5 0 45 4 45 14 c 2
 45 317 l 2
 45 323.5 51 327 64 327 c 2
 67.5 327 l 2
 80.5 327 86 323.5 86 317 c 2
 86 35.5 l 1
 214.5 35.5 l 2
 221 35.5 223.5 31 223.5 21.5 c 2
 223.5 14 l 2
 223.5 4 221 0 214.5 0 c 2
 59 0 l 2
140.5 144 m 0
 127 144 117 154 117 168 c 0
 117 181.5 127 192 140.5 192 c 0
 154 192 165 181.5 165 168 c 0
 165 154 154 144 140.5 144 c 0
EndSplineSet
Ligature2: "Ligature Substitution lookup 48 subtable" L periodcentered
Position2: "'cpsp' Capital Spacing lookup 0 subtable" dx=5 dy=0 dh=10 dv=0
EndChar

StartChar: uni01C8
Encoding: 456 456 94
Width: 354
VWidth: 466
GlyphClass: 2
Flags: MW
HStem: -99 34<245.25 254.25 240.75 263.25> 0 35.5<54.25 214.5 86 214.5 86 214.5> 224.5 20G<291 293 293 299.5> 302.5 48<283 295 289.5 295> 307 20G<64 67.5 67.5 74>
VStem: 45 41<35.5 317 35.5 317 35.5 320.25> 272.5 39<-31 234.5>
AnchorPoint: "Anchor-1" 68 327 basechar 0
AnchorPoint: "Anchor-0" 132 0 basechar 0
LayerCount: 2
Back
Fore
SplineSet
289.5 302.5 m 2xf6
 276.5 302.5 270.5 306 270.5 312.5 c 2
 270.5 340 l 2
 270.5 346.5 276.5 350.5 289.5 350.5 c 2
 295 350.5 l 2
 308 350.5 313.5 346.5 313.5 340 c 2
 313.5 312.5 l 2
 313.5 306 308 302.5 295 302.5 c 2
 289.5 302.5 l 2xf6
59 0 m 2
 49.5 0 45 4 45 14 c 2
 45 317 l 2
 45 323.5 51 327 64 327 c 2
 67.5 327 l 2
 80.5 327 86 323.5 86 317 c 2xee
 86 35.5 l 1
 214.5 35.5 l 2
 221 35.5 223.5 31 223.5 21.5 c 2
 223.5 14 l 2
 223.5 4 221 0 214.5 0 c 2
 59 0 l 2
251.5 -99 m 0xee
 239 -99 217.5 -97.5 217.5 -85 c 0
 217.5 -81 221 -63 227.5 -63 c 0
 231.5 -63 234 -65 247.5 -65 c 0
 261 -65 272.5 -58.5 272.5 -31 c 2
 272.5 234.5 l 2
 272.5 241 278 244.5 291 244.5 c 2
 293 244.5 l 2
 306 244.5 311.5 241 311.5 234.5 c 2
 311.5 -34.5 l 2
 311.5 -88.5 275 -99 251.5 -99 c 0xee
EndSplineSet
Position2: "'cpsp' Capital Spacing lookup 0 subtable" dx=5 dy=0 dh=10 dv=0
EndChar

StartChar: Lslash
Encoding: 321 321 95
Width: 227
VWidth: 466
GlyphClass: 2
Flags: MW
HStem: 0 35.5<48.75 216 80.5 216 80.5 216> 307 20G<58 62 62 68.5>
VStem: 39.5 41<35.5 162 162 162 183.5 187 208.5 317>
LayerCount: 2
Back
Fore
SplineSet
53.5 0 m 2
 44 0 39.5 4 39.5 14 c 2
 39.5 162 l 1
 8 143.5 l 2
 6 142 4 141.5 3.5 141.5 c 0
 1 141.5 -1 144 -1 148 c 2
 -1 151 l 2
 -1 157.5 2.5 161.5 8 165 c 2
 39.5 183.5 l 1
 39.5 317 l 2
 39.5 323.5 45 327 58 327 c 2
 62 327 l 2
 75 327 80.5 323.5 80.5 317 c 2
 80.5 208.5 l 1
 131 238 l 2
 133 239 134 240 135.5 240 c 0
 138 240 140 237.5 140 233.5 c 2
 140 230.5 l 2
 140 224 136.5 220 131 216.5 c 2
 80.5 187 l 1
 80.5 35.5 l 1
 216 35.5 l 2
 222.5 35.5 225.5 31 225.5 21.5 c 2
 225.5 14 l 2
 225.5 4 222.5 0 216 0 c 2
 53.5 0 l 2
EndSplineSet
Position2: "'cpsp' Capital Spacing lookup 0 subtable" dx=5 dy=0 dh=10 dv=0
EndChar

StartChar: M
Encoding: 77 77 96
Width: 393
VWidth: 466
GlyphClass: 2
Flags: MW
HStem: -1 21G<54 60.5 60.5 64 322.5 329 329 332.5> 307 20G<60.5 77.5 77.5 83 317 332.5 332.5 339>
VStem: 42 40.5<9.5 263> 310.5 40.5<9.5 260 260 260>
LayerCount: 2
Back
Fore
SplineSet
60.5 -1 m 2
 47.5 -1 42 3 42 9.5 c 2
 42 317 l 2
 42 323.5 47.5 327 60.5 327 c 2
 77.5 327 l 2
 88.5 327 94 324 97 318.5 c 2
 185 166 l 1
 197 136.5 l 1
 209 163 l 1
 297.5 318.5 l 2
 300 324 305.5 327 317 327 c 2
 332.5 327 l 2
 345.5 327 351 323.5 351 317 c 2
 351 9.5 l 2
 351 3 345.5 -1 332.5 -1 c 2
 329 -1 l 2
 316 -1 310.5 3 310.5 9.5 c 2
 310.5 260 l 1
 309.5 258 l 1
 216.5 97 l 2
 214.5 92.5 211.5 91 206.5 91 c 2
 188 91 l 2
 183 91 180 92.5 177.5 97 c 2
 83.5 261 l 1
 82.5 263 l 1
 82.5 9.5 l 2
 82.5 3 77 -1 64 -1 c 2
 60.5 -1 l 2
EndSplineSet
Position2: "'cpsp' Capital Spacing lookup 0 subtable" dx=5 dy=0 dh=10 dv=0
EndChar

StartChar: N
Encoding: 78 78 97
Width: 335
VWidth: 466
GlyphClass: 2
Flags: MW
HStem: -1 21G<54 60.5 60.5 64 260.75 265 265 274.5> 307 20G<60.5 70.5 70.5 75.5 271 274.5 274.5 281>
VStem: 42 40.5<9.5 261.5> 252.5 40.5<67.5 317>
AnchorPoint: "Anchor-1" 168 326 basechar 0
AnchorPoint: "Anchor-0" 168 0 basechar 0
LayerCount: 2
Back
Fore
SplineSet
60.5 -1 m 2
 47.5 -1 42 3 42 9.5 c 2
 42 317 l 2
 42 323.5 47.5 327 60.5 327 c 2
 70.5 327 l 2
 80.5 327 85.5 325 90 318.5 c 2
 238.5 93.5 l 1
 252.5 67.5 l 1
 252.5 317 l 2
 252.5 323.5 258 327 271 327 c 2
 274.5 327 l 2
 287.5 327 293 323.5 293 317 c 2
 293 9.5 l 2
 293 3 287.5 -1 274.5 -1 c 2
 265 -1 l 2
 256.5 -1 251.5 1.5 249 5.5 c 2
 95 237.5 l 1
 82.5 261.5 l 1
 82.5 9.5 l 2
 82.5 3 77 -1 64 -1 c 2
 60.5 -1 l 2
EndSplineSet
Position2: "'cpsp' Capital Spacing lookup 0 subtable" dx=5 dy=0 dh=10 dv=0
EndChar

StartChar: uni01CA
Encoding: 458 458 98
Width: 523
VWidth: 466
GlyphClass: 2
Flags: MW
HStem: -3 36.5<376 400.5 370 420.75> 307 20G<60.5 70.5 70.5 75.5 271 274.5 274.5 281 461.5 465 465 471.5>
VStem: 42 40.5<9.5 261.5> 252.5 40.5<67.5 317> 442.5 41<91 95.5 95.5 317>
AnchorPoint: "Anchor-1" 461 326 basechar 0
AnchorPoint: "Anchor-0" 168 0 basechar 0
LayerCount: 2
Back
Fore
SplineSet
60.5 -1 m 2
 47.5 -1 42 3 42 9.5 c 2
 42 317 l 2
 42 323.5 47.5 327 60.5 327 c 2
 70.5 327 l 2
 80.5 327 85.5 325 90 318.5 c 2
 238.5 93.5 l 1
 252.5 67.5 l 1
 252.5 317 l 2
 252.5 323.5 258 327 271 327 c 2
 274.5 327 l 2
 287.5 327 293 323.5 293 317 c 2
 293 9.5 l 2
 293 3 287.5 -1 274.5 -1 c 2
 265 -1 l 2
 256.5 -1 251.5 1.5 249 5.5 c 2
 95 237.5 l 1
 82.5 261.5 l 1
 82.5 9.5 l 2
 82.5 3 77 -1 64 -1 c 2
 60.5 -1 l 2
385 -3 m 0
 367 -3 338 -0.5 338 12 c 0
 338 14 340.5 37.5 348 37.5 c 0
 352 37.5 362.5 33.5 377.5 33.5 c 0
 423.5 33.5 442.5 51 442.5 91 c 2
 442.5 317 l 2
 442.5 323.5 448 327 461.5 327 c 2
 465 327 l 2
 478 327 483.5 323.5 483.5 317 c 2
 483.5 95.5 l 2
 483.5 37 456.5 -3 385 -3 c 0
EndSplineSet
Position2: "'cpsp' Capital Spacing lookup 0 subtable" dx=5 dy=0 dh=10 dv=0
EndChar

StartChar: Nacute
Encoding: 323 323 99
Width: 335
VWidth: 466
GlyphClass: 2
Flags: MW
HStem: -1 21G<54 60.5 60.5 64 260.75 265 265 274.5> 307 20G<60.5 70.5 70.5 75.5 271 274.5 274.5 281> 355 68.5<156.25 213>
VStem: 42 40.5<9.5 261.5> 252.5 40.5<67.5 317>
AnchorPoint: "Anchor-1" 168 326 basechar 0
AnchorPoint: "Anchor-0" 168 0 basechar 0
LayerCount: 2
Back
Fore
SplineSet
160 355 m 0
 152.5 355 149.5 356.5 149.5 360 c 0
 149.5 364.5 155 374 176.5 411.5 c 0
 181.5 420.5 190.5 423.5 205.5 423.5 c 0
 220.5 423.5 228 422 228 417.5 c 0
 228 412.5 223 408 184 363.5 c 0
 179 358 170 355 160 355 c 0
60.5 -1 m 2
 47.5 -1 42 3 42 9.5 c 2
 42 317 l 2
 42 323.5 47.5 327 60.5 327 c 2
 70.5 327 l 2
 80.5 327 85.5 325 90 318.5 c 2
 238.5 93.5 l 1
 252.5 67.5 l 1
 252.5 317 l 2
 252.5 323.5 258 327 271 327 c 2
 274.5 327 l 2
 287.5 327 293 323.5 293 317 c 2xd8
 293 9.5 l 2
 293 3 287.5 -1 274.5 -1 c 2
 265 -1 l 2
 256.5 -1 251.5 1.5 249 5.5 c 2
 95 237.5 l 1
 82.5 261.5 l 1
 82.5 9.5 l 2
 82.5 3 77 -1 64 -1 c 2
 60.5 -1 l 2
EndSplineSet
Substitution2: "'locl' Localized Forms in Latin lookup 14 subtable" Nacute.loclPLK
Substitution2: "'aalt' Access All Alternates lookup 0 subtable" Nacute.loclPLK
Position2: "'cpsp' Capital Spacing lookup 0 subtable" dx=5 dy=0 dh=10 dv=0
EndChar

StartChar: Ncaron
Encoding: 327 327 100
Width: 335
VWidth: 466
GlyphClass: 2
Flags: MW
HStem: -1 21G<54 60.5 60.5 64 260.75 265 265 274.5> 307 20G<60.5 70.5 70.5 75.5 271 274.5 274.5 281> 353.5 26<157.5 167.5 167.5 167.5 167.5 174>
VStem: 42 40.5<9.5 261.5> 252.5 40.5<67.5 317>
AnchorPoint: "Anchor-1" 168 326 basechar 0
AnchorPoint: "Anchor-0" 168 0 basechar 0
LayerCount: 2
Back
Fore
SplineSet
162 353.5 m 2
 153 353.5 145.5 357 140.5 364 c 2
 114.5 405 l 2
 112.5 408 112 411 112 413.5 c 0
 112 417.5 115.5 420 122.5 420 c 2
 123.5 420 l 2
 130 420 134.5 418 139.5 414 c 2
 167.5 379.5 l 1
 197 414 l 2
 201.5 418 206.5 420 212.5 420 c 2
 213.5 420 l 2
 221 420 224.5 417 224.5 413 c 0
 224.5 410.5 223.5 408 222 405 c 2
 195 364 l 2
 190.5 357 183 353.5 174 353.5 c 2
 162 353.5 l 2
60.5 -1 m 2
 47.5 -1 42 3 42 9.5 c 2
 42 317 l 2
 42 323.5 47.5 327 60.5 327 c 2
 70.5 327 l 2
 80.5 327 85.5 325 90 318.5 c 2
 238.5 93.5 l 1
 252.5 67.5 l 1
 252.5 317 l 2
 252.5 323.5 258 327 271 327 c 2
 274.5 327 l 2
 287.5 327 293 323.5 293 317 c 2xd8
 293 9.5 l 2
 293 3 287.5 -1 274.5 -1 c 2
 265 -1 l 2
 256.5 -1 251.5 1.5 249 5.5 c 2
 95 237.5 l 1
 82.5 261.5 l 1
 82.5 9.5 l 2
 82.5 3 77 -1 64 -1 c 2
 60.5 -1 l 2
EndSplineSet
Position2: "'cpsp' Capital Spacing lookup 0 subtable" dx=5 dy=0 dh=10 dv=0
EndChar

StartChar: Ncommaaccent
Encoding: 325 325 101
Width: 335
VWidth: 466
GlyphClass: 2
Flags: MW
HStem: -109.5 21G<138 148.25> -1 21G<54 60.5 60.5 64 260.75 265 265 274.5> 307 20G<60.5 70.5 70.5 75.5 271 274.5 274.5 281>
VStem: 42 40.5<9.5 261.5> 147 41.5<-56.25 -34.25> 252.5 40.5<67.5 317>
AnchorPoint: "Anchor-1" 168 326 basechar 0
AnchorPoint: "Anchor-0" 166 -95 basechar 0
LayerCount: 2
Back
Fore
SplineSet
60.5 -1 m 2
 47.5 -1 42 3 42 9.5 c 2
 42 317 l 2
 42 323.5 47.5 327 60.5 327 c 2
 70.5 327 l 2
 80.5 327 85.5 325 90 318.5 c 2
 238.5 93.5 l 1
 252.5 67.5 l 1
 252.5 317 l 2
 252.5 323.5 258 327 271 327 c 2
 274.5 327 l 2
 287.5 327 293 323.5 293 317 c 2
 293 9.5 l 2
 293 3 287.5 -1 274.5 -1 c 2
 265 -1 l 2
 256.5 -1 251.5 1.5 249 5.5 c 2
 95 237.5 l 1
 82.5 261.5 l 1
 82.5 9.5 l 2
 82.5 3 77 -1 64 -1 c 2
 60.5 -1 l 2
140.5 -109.5 m 0
 135.5 -109.5 127 -108 127 -102.5 c 0
 127 -92 147 -74 147 -38.5 c 0
 147 -30 153 -24 165.5 -24 c 2
 170 -24 l 2
 181.5 -24 188.5 -29 188.5 -37 c 0
 188.5 -81.5 156 -109.5 140.5 -109.5 c 0
EndSplineSet
Position2: "'cpsp' Capital Spacing lookup 0 subtable" dx=5 dy=0 dh=10 dv=0
EndChar

StartChar: uni1E44
Encoding: 7748 7748 102
Width: 335
VWidth: 466
GlyphClass: 2
Flags: MW
HStem: -1 21G<54 60.5 60.5 64 260.75 265 265 274.5> 307 20G<60.5 70.5 70.5 75.5 271 274.5 274.5 281> 365.5 34<148.5 174.5>
VStem: 42 40.5<9.5 261.5> 148.5 39<375.5 399.5 372.5 402.5> 252.5 40.5<67.5 317>
AnchorPoint: "Anchor-1" 168 326 basechar 0
AnchorPoint: "Anchor-0" 168 0 basechar 0
LayerCount: 2
Back
Fore
SplineSet
167 365.5 m 0
 154 365.5 148.5 369 148.5 375.5 c 2
 148.5 399.5 l 2
 148.5 405.5 154 409.5 169 409.5 c 0
 182 409.5 187.5 406 187.5 399.5 c 2
 187.5 375.5 l 2
 187.5 369.5 182 365.5 167 365.5 c 0
60.5 -1 m 2
 47.5 -1 42 3 42 9.5 c 2
 42 317 l 2
 42 323.5 47.5 327 60.5 327 c 2
 70.5 327 l 2
 80.5 327 85.5 325 90 318.5 c 2
 238.5 93.5 l 1
 252.5 67.5 l 1
 252.5 317 l 2
 252.5 323.5 258 327 271 327 c 2
 274.5 327 l 2
 287.5 327 293 323.5 293 317 c 2
 293 9.5 l 2
 293 3 287.5 -1 274.5 -1 c 2
 265 -1 l 2
 256.5 -1 251.5 1.5 249 5.5 c 2
 95 237.5 l 1
 82.5 261.5 l 1
 82.5 9.5 l 2
 82.5 3 77 -1 64 -1 c 2
 60.5 -1 l 2
EndSplineSet
Position2: "'cpsp' Capital Spacing lookup 0 subtable" dx=5 dy=0 dh=10 dv=0
EndChar

StartChar: Eng
Encoding: 330 330 103
Width: 335
VWidth: 466
GlyphClass: 2
Flags: MW
HStem: -99 34<226.75 235.75 222.25 244.75> -1 21G<54 60.5 60.5 64> 307 20G<60.5 70.5 70.5 75.5 271 274.5 274.5 281>
VStem: 42 40.5<9.5 261.5> 252.5 40.5<67.5 317>
AnchorPoint: "Anchor-1" 274 244 basechar 0
AnchorPoint: "Anchor-0" 0 0 basechar 0
LayerCount: 2
Back
Fore
SplineSet
274.5 327 m 2
 287.5 327 293 323.5 293 317 c 2
 293 -34.5 l 2
 293 -88.5 256.5 -99 233 -99 c 0
 220.5 -99 199 -97.5 199 -85 c 0
 199 -81 202.5 -63 209 -63 c 0
 213 -63 215.5 -65 229 -65 c 0
 242.5 -65 254 -58.5 254 -31 c 2
 254 -2 l 1
 95 237.5 l 1
 82.5 261.5 l 1
 82.5 9.5 l 2
 82.5 3 77 -1 64 -1 c 2
 60.5 -1 l 2
 47.5 -1 42 3 42 9.5 c 2
 42 317 l 2
 42 323.5 47.5 327 60.5 327 c 2
 70.5 327 l 2
 80.5 327 85.5 325 90 318.5 c 2
 238.5 93.5 l 1
 252.5 67.5 l 1
 252.5 317 l 2
 252.5 323.5 258 327 271 327 c 2
 274.5 327 l 2
EndSplineSet
Position2: "'cpsp' Capital Spacing lookup 0 subtable" dx=5 dy=0 dh=10 dv=0
EndChar

StartChar: uni01CB
Encoding: 459 459 104
Width: 464
VWidth: 466
GlyphClass: 2
Flags: MW
HStem: -99 34<354.75 363.75 350.25 372.75> -1 21G<54 60.5 60.5 64 260.75 265 265 274.5> 224.5 20G<400.5 402.5 402.5 409> 302.5 48<392.5 404.5 399 404.5> 307 20G<60.5 70.5 70.5 75.5 271 274.5 274.5 281>
VStem: 42 40.5<9.5 261.5> 252.5 40.5<67.5 317> 382 39<-31 234.5>
AnchorPoint: "Anchor-1" 168 326 basechar 0
AnchorPoint: "Anchor-0" 168 0 basechar 0
LayerCount: 2
Back
Fore
SplineSet
399 302.5 m 2xf7
 386 302.5 380 306 380 312.5 c 2
 380 340 l 2
 380 346.5 386 350.5 399 350.5 c 2
 404.5 350.5 l 2
 417.5 350.5 423 346.5 423 340 c 2
 423 312.5 l 2
 423 306 417.5 302.5 404.5 302.5 c 2
 399 302.5 l 2xf7
60.5 -1 m 2
 47.5 -1 42 3 42 9.5 c 2
 42 317 l 2
 42 323.5 47.5 327 60.5 327 c 2
 70.5 327 l 2
 80.5 327 85.5 325 90 318.5 c 2
 238.5 93.5 l 1
 252.5 67.5 l 1
 252.5 317 l 2
 252.5 323.5 258 327 271 327 c 2
 274.5 327 l 2
 287.5 327 293 323.5 293 317 c 2xef
 293 9.5 l 2
 293 3 287.5 -1 274.5 -1 c 2
 265 -1 l 2
 256.5 -1 251.5 1.5 249 5.5 c 2
 95 237.5 l 1
 82.5 261.5 l 1
 82.5 9.5 l 2
 82.5 3 77 -1 64 -1 c 2
 60.5 -1 l 2
361 -99 m 0xef
 348.5 -99 327 -97.5 327 -85 c 0
 327 -81 330.5 -63 337 -63 c 0
 341 -63 343.5 -65 357 -65 c 0
 370.5 -65 382 -58.5 382 -31 c 2
 382 234.5 l 2
 382 241 387.5 244.5 400.5 244.5 c 2
 402.5 244.5 l 2
 415.5 244.5 421 241 421 234.5 c 2
 421 -34.5 l 2
 421 -88.5 384.5 -99 361 -99 c 0xef
EndSplineSet
Position2: "'cpsp' Capital Spacing lookup 0 subtable" dx=5 dy=0 dh=10 dv=0
EndChar

StartChar: Ntilde
Encoding: 209 209 105
Width: 335
VWidth: 466
GlyphClass: 2
Flags: MW
HStem: -1 21G<54 60.5 60.5 64 260.75 265 265 274.5> 307 20G<60.5 70.5 70.5 75.5 271 274.5 274.5 281> 358 26<201.5 216.75 201.5 221> 378 26<125.25 140>
VStem: 42 40.5<9.5 261.5> 252.5 40.5<67.5 317>
AnchorPoint: "Anchor-1" 168 326 basechar 0
AnchorPoint: "Anchor-0" 168 0 basechar 0
LayerCount: 2
Back
Fore
SplineSet
96.5 358.5 m 2xec
 91.5 360 l 2xec
 88.5 361.5 87.5 363.5 87.5 366 c 0
 87.5 367.5 88 369.5 89 372 c 0
 99 395.5 112.5 404 132 404 c 0xdc
 159 404 190.5 384 212.5 384 c 0
 221 384 226.5 387.5 233 397.5 c 0
 236.5 402.5 239 404.5 242.5 404.5 c 0
 244 404.5 245 404 247.5 403 c 2
 250.5 401.5 l 2
 254.5 400.5 256 398.5 256 396 c 0
 256 394.5 255.5 392.5 254.5 389.5 c 0
 244 366.5 230.5 358 211.5 358 c 0xec
 183 358 151 378 129 378 c 0xdc
 121.5 378 116.5 374 110 364 c 0
 106.5 359 104.5 357 101 357 c 0
 100 357 98.5 357.5 96.5 358.5 c 2xec
60.5 -1 m 2
 47.5 -1 42 3 42 9.5 c 2
 42 317 l 2
 42 323.5 47.5 327 60.5 327 c 2
 70.5 327 l 2
 80.5 327 85.5 325 90 318.5 c 2
 238.5 93.5 l 1
 252.5 67.5 l 1
 252.5 317 l 2
 252.5 323.5 258 327 271 327 c 2
 274.5 327 l 2
 287.5 327 293 323.5 293 317 c 2
 293 9.5 l 2
 293 3 287.5 -1 274.5 -1 c 2
 265 -1 l 2
 256.5 -1 251.5 1.5 249 5.5 c 2
 95 237.5 l 1
 82.5 261.5 l 1
 82.5 9.5 l 2
 82.5 3 77 -1 64 -1 c 2
 60.5 -1 l 2
EndSplineSet
Position2: "'cpsp' Capital Spacing lookup 0 subtable" dx=5 dy=0 dh=10 dv=0
EndChar

StartChar: O
Encoding: 79 79 106
Width: 341
VWidth: 466
GlyphClass: 2
Flags: MW
HStem: -3 35.5<137.25 203 137.25 217> 293.5 35.5<137.25 203>
VStem: 26.5 42.5<121.25 207 121.25 218.5> 271.5 42.5<121.25 207>
AnchorPoint: "Anchor-1" 171 326 basechar 0
AnchorPoint: "Anchor-0" 171 0 basechar 0
LayerCount: 2
Back
Fore
SplineSet
170 -3 m 0
 77 -3 26.5 55 26.5 164 c 0
 26.5 273 77 329 170 329 c 0
 264 329 314 273 314 164 c 0
 314 55 264 -3 170 -3 c 0
170 32.5 m 0
 236 32.5 271.5 78.5 271.5 164 c 0
 271.5 250 236 293.5 170 293.5 c 0
 104.5 293.5 69 250 69 164 c 0
 69 78.5 104.5 32.5 170 32.5 c 0
EndSplineSet
Substitution2: "Single Substitution lookup 49 subtable" ordmasculine
Substitution2: "'aalt' Access All Alternates lookup 0 subtable" ordmasculine
Position2: "'cpsp' Capital Spacing lookup 0 subtable" dx=5 dy=0 dh=10 dv=0
EndChar

StartChar: Oacute
Encoding: 211 211 107
Width: 341
VWidth: 466
GlyphClass: 2
Flags: MW
HStem: -3 35.5<137.25 203 137.25 217> 293.5 35.5<137.25 203> 355 68.5<158.75 215.5>
VStem: 26.5 42.5<121.25 207 121.25 218.5> 271.5 42.5<121.25 207>
AnchorPoint: "Anchor-1" 171 326 basechar 0
AnchorPoint: "Anchor-0" 171 0 basechar 0
LayerCount: 2
Back
Fore
SplineSet
162.5 355 m 0
 155 355 152 356.5 152 360 c 0
 152 364.5 157.5 374 179 411.5 c 0
 184 420.5 193 423.5 208 423.5 c 0
 223 423.5 230.5 422 230.5 417.5 c 0
 230.5 412.5 225.5 408 186.5 363.5 c 0
 181.5 358 172.5 355 162.5 355 c 0
170 -3 m 0
 77 -3 26.5 55 26.5 164 c 0
 26.5 273 77 329 170 329 c 0xd8
 264 329 314 273 314 164 c 0
 314 55 264 -3 170 -3 c 0
170 32.5 m 0
 236 32.5 271.5 78.5 271.5 164 c 0
 271.5 250 236 293.5 170 293.5 c 0xd8
 104.5 293.5 69 250 69 164 c 0
 69 78.5 104.5 32.5 170 32.5 c 0
EndSplineSet
Substitution2: "'locl' Localized Forms in Latin lookup 14 subtable" Oacute.loclPLK
Substitution2: "'aalt' Access All Alternates lookup 0 subtable" Oacute.loclPLK
Position2: "'cpsp' Capital Spacing lookup 0 subtable" dx=5 dy=0 dh=10 dv=0
EndChar

StartChar: Obreve
Encoding: 334 334 108
Width: 341
VWidth: 466
GlyphClass: 2
Flags: MW
HStem: -3 35.5<137.25 203 137.25 217> 293.5 35.5<137.25 203> 355 49
VStem: 26.5 42.5<121.25 207 121.25 218.5> 103 134.5<390.75 411> 271.5 42.5<121.25 207>
AnchorPoint: "Anchor-1" 171 395 basechar 0
AnchorPoint: "Anchor-0" 171 0 basechar 0
LayerCount: 2
Back
Fore
SplineSet
170.5 355 m 0
 137 355 103 373 103 408.5 c 0
 103 413.5 105 415.5 110 415.5 c 0
 118 415.5 116.5 411.5 120.5 404 c 0
 127.5 391 148 386 170.5 386 c 0
 193.5 386 213.5 391 220.5 404 c 0
 224 411.5 223 415.5 230.5 415.5 c 0
 236 415.5 237.5 413.5 237.5 408.5 c 0
 237.5 373 203.5 355 170.5 355 c 0
170 -3 m 0
 77 -3 26.5 55 26.5 164 c 0
 26.5 273 77 329 170 329 c 0xd4
 264 329 314 273 314 164 c 0
 314 55 264 -3 170 -3 c 0
170 32.5 m 0
 236 32.5 271.5 78.5 271.5 164 c 0
 271.5 250 236 293.5 170 293.5 c 0xd4
 104.5 293.5 69 250 69 164 c 0
 69 78.5 104.5 32.5 170 32.5 c 0
EndSplineSet
Position2: "'cpsp' Capital Spacing lookup 0 subtable" dx=5 dy=0 dh=10 dv=0
EndChar

StartChar: Ocircumflex
Encoding: 212 212 109
Width: 341
VWidth: 466
GlyphClass: 2
Flags: MW
HStem: -3 35.5<137.25 203 137.25 217> 293.5 35.5<137.25 203> 391.5 25.5<170 170>
VStem: 26.5 42.5<121.25 207 121.25 218.5> 271.5 42.5<121.25 207>
AnchorPoint: "Anchor-1" 247 373 basechar 0
AnchorPoint: "Anchor-0" 171 0 basechar 0
LayerCount: 2
Back
Fore
SplineSet
125 351 m 2
 118 351 114.5 353 114.5 357.5 c 0
 114.5 360 115 362.5 117 366 c 2
 143 407 l 2
 148 414 155.5 417 164.5 417 c 2
 176.5 417 l 2
 185.5 417 193 414 197.5 407 c 2
 224.5 366 l 2
 226 363 227 360 227 358 c 0
 227 353.5 223.5 351 216 351 c 2
 215 351 l 2
 209 351 204 353 199.5 357 c 2
 170 391.5 l 1
 142 357 l 2
 137 353 132.5 351 126 351 c 2
 125 351 l 2
170 -3 m 0
 77 -3 26.5 55 26.5 164 c 0
 26.5 273 77 329 170 329 c 0
 264 329 314 273 314 164 c 0
 314 55 264 -3 170 -3 c 0
170 32.5 m 0
 236 32.5 271.5 78.5 271.5 164 c 0
 271.5 250 236 293.5 170 293.5 c 0
 104.5 293.5 69 250 69 164 c 0
 69 78.5 104.5 32.5 170 32.5 c 0
EndSplineSet
Position2: "'cpsp' Capital Spacing lookup 0 subtable" dx=5 dy=0 dh=10 dv=0
EndChar

StartChar: uni1ED0
Encoding: 7888 7888 110
Width: 341
VWidth: 466
GlyphClass: 2
Flags: MW
HStem: -3 35.5<137.25 203 137.25 217> 293.5 35.5<137.25 203> 384 33
VStem: 26.5 42.5<121.25 207 121.25 218.5> 271.5 42.5<121.25 207>
AnchorPoint: "Anchor-1" 236 386 basechar 0
AnchorPoint: "Anchor-0" 171 0 basechar 0
LayerCount: 2
Back
Fore
SplineSet
231.5 384 m 0
 224 384 220.5 385.5 220.5 388.5 c 0
 220.5 393 225.5 401.5 243 435.5 c 0
 248 444.5 257 448 268 448 c 0
 278.5 448 282.5 446.5 282.5 441.5 c 0
 282.5 437 279 433.5 248 392.5 c 0
 244 387 239.5 384 231.5 384 c 0
126.5 351 m 2
 119.5 351 116 353 116 357.5 c 0
 116 360 116.5 362.5 118.5 366 c 2
 144.5 407 l 2
 149.5 414 157 417 166 417 c 2
 178 417 l 2
 185 417 191 413 194.5 407 c 2
 219 366 l 2
 220.5 363 221.5 360 221.5 358 c 0
 221.5 353.5 218 351 210.5 351 c 2
 209.5 351 l 2
 203.5 351 197 353 194 357 c 2
 171.5 391.5 l 1
 143.5 357 l 2
 138.5 353 134 351 127.5 351 c 2
 126.5 351 l 2
170 -3 m 0
 77 -3 26.5 55 26.5 164 c 0
 26.5 273 77 329 170 329 c 0
 264 329 314 273 314 164 c 0
 314 55 264 -3 170 -3 c 0
170 32.5 m 0
 236 32.5 271.5 78.5 271.5 164 c 0
 271.5 250 236 293.5 170 293.5 c 0
 104.5 293.5 69 250 69 164 c 0
 69 78.5 104.5 32.5 170 32.5 c 0
EndSplineSet
Position2: "'cpsp' Capital Spacing lookup 0 subtable" dx=5 dy=0 dh=10 dv=0
EndChar

StartChar: uni1ED8
Encoding: 7896 7896 111
Width: 341
VWidth: 466
GlyphClass: 2
Flags: MW
HStem: -81.5 34<152.5 178.5> -3 35.5<137.25 203 137.25 217> 293.5 35.5<137.25 203> 391.5 25.5<170 170>
VStem: 26.5 42.5<121.25 207 121.25 218.5> 152.5 39<-71.5 -47.5 -74.5 -44.5> 271.5 42.5<121.25 207>
AnchorPoint: "Anchor-1" 247 373 basechar 0
AnchorPoint: "Anchor-0" 171 -95 basechar 0
LayerCount: 2
Back
Fore
SplineSet
125 351 m 2
 118 351 114.5 353 114.5 357.5 c 0
 114.5 360 115 362.5 117 366 c 2
 143 407 l 2
 148 414 155.5 417 164.5 417 c 2
 176.5 417 l 2
 185.5 417 193 414 197.5 407 c 2
 224.5 366 l 2
 226 363 227 360 227 358 c 0
 227 353.5 223.5 351 216 351 c 2
 215 351 l 2
 209 351 204 353 199.5 357 c 2
 170 391.5 l 1
 142 357 l 2
 137 353 132.5 351 126 351 c 2
 125 351 l 2
170 -3 m 0
 77 -3 26.5 55 26.5 164 c 0
 26.5 273 77 329 170 329 c 0
 264 329 314 273 314 164 c 0
 314 55 264 -3 170 -3 c 0
170 32.5 m 0
 236 32.5 271.5 78.5 271.5 164 c 0
 271.5 250 236 293.5 170 293.5 c 0
 104.5 293.5 69 250 69 164 c 0
 69 78.5 104.5 32.5 170 32.5 c 0
171 -81.5 m 0
 158 -81.5 152.5 -78 152.5 -71.5 c 2
 152.5 -47.5 l 2
 152.5 -41.5 158 -37.5 173 -37.5 c 0
 186 -37.5 191.5 -41 191.5 -47.5 c 2
 191.5 -71.5 l 2
 191.5 -77.5 186 -81.5 171 -81.5 c 0
EndSplineSet
Position2: "'cpsp' Capital Spacing lookup 0 subtable" dx=5 dy=0 dh=10 dv=0
EndChar

StartChar: uni1ED2
Encoding: 7890 7890 112
Width: 341
VWidth: 466
GlyphClass: 2
Flags: MW
HStem: -3 35.5<137.25 203 137.25 217> 293.5 35.5<137.25 203> 384 64<208.75 249.25> 391.5 25.5<171.5 171.5>
VStem: 26.5 42.5<121.25 207 121.25 218.5> 271.5 42.5<121.25 207>
AnchorPoint: "Anchor-1" 236 386 basechar 0
AnchorPoint: "Anchor-0" 171 0 basechar 0
LayerCount: 2
Back
Fore
SplineSet
245.5 384 m 0xec
 239.5 384 232.5 387 229 392.5 c 0
 202.5 433.5 199 437 199 441.5 c 0
 199 446.5 202 448 215.5 448 c 0
 224.5 448 235 444.5 238.5 435.5 c 0
 253 401.5 256.5 393 256.5 388.5 c 0
 256.5 385.5 253 384 245.5 384 c 0xec
126.5 351 m 2xdc
 119.5 351 116 353 116 357.5 c 0
 116 360 116.5 362.5 118.5 366 c 2
 144.5 407 l 2
 149.5 414 157 417 166 417 c 2
 178 417 l 2
 185 417 191 413 194.5 407 c 2
 219 366 l 2
 220.5 363 221.5 360 221.5 358 c 0
 221.5 353.5 218 351 210.5 351 c 2
 209.5 351 l 2
 203.5 351 197 353 194 357 c 2
 171.5 391.5 l 1
 143.5 357 l 2
 138.5 353 134 351 127.5 351 c 2
 126.5 351 l 2xdc
170 -3 m 0
 77 -3 26.5 55 26.5 164 c 0
 26.5 273 77 329 170 329 c 0
 264 329 314 273 314 164 c 0
 314 55 264 -3 170 -3 c 0
170 32.5 m 0
 236 32.5 271.5 78.5 271.5 164 c 0
 271.5 250 236 293.5 170 293.5 c 0
 104.5 293.5 69 250 69 164 c 0
 69 78.5 104.5 32.5 170 32.5 c 0
EndSplineSet
Position2: "'cpsp' Capital Spacing lookup 0 subtable" dx=5 dy=0 dh=10 dv=0
EndChar

StartChar: uni1ED4
Encoding: 7892 7892 113
Width: 341
VWidth: 466
GlyphClass: 2
Flags: MW
HStem: -3 35.5<137.25 203 137.25 217> 293.5 35.5<137.25 203> 391.5 25.5<171.5 171.5> 434 22.5<225 234.25>
VStem: 26.5 42.5<121.25 207 121.25 218.5> 246.5 27<418.25 425.5> 271.5 42.5<121.25 207>
AnchorPoint: "Anchor-1" 236 451 basechar 0
AnchorPoint: "Anchor-0" 171 0 basechar 0
LayerCount: 2
Back
Fore
SplineSet
238 384.5 m 0xdc
 228 384.5 220.5 389.5 220.5 394 c 0
 220.5 397.5 225 400 232.5 404 c 0
 241.5 409 246.5 415 246.5 421.5 c 0
 246.5 429.5 239 434 229.5 434 c 0
 215 434 210.5 428 208 428 c 0
 204.5 428 197 438.5 197 443 c 0
 197 449.5 217 456.5 233 456.5 c 0
 249 456.5 273.5 449 273.5 424.5 c 0
 273.5 410 265 401.5 257 395 c 0
 250.5 389 240.5 384.5 238 384.5 c 0xdc
126.5 351 m 2xea
 119.5 351 116 353 116 357.5 c 0
 116 360 116.5 362.5 118.5 366 c 2
 144.5 407 l 2
 149.5 414 157 417 166 417 c 2
 178 417 l 2
 185 417 191 413 194.5 407 c 2
 219 366 l 2
 220.5 363 221.5 360 221.5 358 c 0
 221.5 353.5 218 351 210.5 351 c 2
 209.5 351 l 2
 203.5 351 197 353 194 357 c 2
 171.5 391.5 l 1
 143.5 357 l 2
 138.5 353 134 351 127.5 351 c 2
 126.5 351 l 2xea
170 -3 m 0
 77 -3 26.5 55 26.5 164 c 0
 26.5 273 77 329 170 329 c 0
 264 329 314 273 314 164 c 0
 314 55 264 -3 170 -3 c 0
170 32.5 m 0
 236 32.5 271.5 78.5 271.5 164 c 0
 271.5 250 236 293.5 170 293.5 c 0
 104.5 293.5 69 250 69 164 c 0
 69 78.5 104.5 32.5 170 32.5 c 0
EndSplineSet
Position2: "'cpsp' Capital Spacing lookup 0 subtable" dx=5 dy=0 dh=10 dv=0
EndChar

StartChar: uni1ED6
Encoding: 7894 7894 114
Width: 341
VWidth: 466
GlyphClass: 2
Flags: MW
HStem: -3 35.5<137.25 203 137.25 217> 293.5 35.5<137.25 203> 380.5 25.5<170 170> 423.5 26<199.5 213.25 199.5 217> 443.5 26<130 143.5>
VStem: 26.5 42.5<121.25 207 121.25 218.5> 271.5 42.5<121.25 207>
AnchorPoint: "Anchor-1" 171 326 basechar 0
AnchorPoint: "Anchor-0" 171 0 basechar 0
LayerCount: 2
Back
Fore
SplineSet
104 424 m 2xd6
 99.5 425.5 l 2xd6
 96.5 427 95.5 429 95.5 431.5 c 0
 95.5 433 96 435 97 437.5 c 0
 106 461 118.5 469.5 136 469.5 c 0xce
 160.5 469.5 189.5 449.5 209.5 449.5 c 0
 217 449.5 222 453 228 463 c 0
 231 468 233.5 470 236.5 470 c 0
 238 470 239 469.5 241 468.5 c 2
 244 467 l 2
 247.5 466 249 464 249 461.5 c 0
 249 460 248.5 458 247.5 455 c 0
 238 432 225.5 423.5 208.5 423.5 c 0xd6
 182.5 423.5 153.5 443.5 133.5 443.5 c 0xce
 126.5 443.5 122 439.5 116 429.5 c 0
 113 424.5 111 422.5 108 422.5 c 0
 107 422.5 105.5 423 104 424 c 2xd6
125 351 m 2xf6
 118 351 114.5 353 114.5 357.5 c 0
 114.5 360 115 362.5 117 366 c 2
 143 395.5 l 2
 149.5 401.5 155.5 406 164.5 406 c 2
 176.5 406 l 2
 185.5 406 191.5 401.5 197.5 395.5 c 2
 224.5 366 l 2
 226 363 227 360 227 358 c 0
 227 353.5 223.5 351 216 351 c 2
 215 351 l 2
 209 351 204.5 353.5 199.5 357 c 2
 170 380.5 l 1
 142 357 l 2
 137 353.5 132.5 351 126 351 c 2
 125 351 l 2xf6
170 -3 m 0
 77 -3 26.5 55 26.5 164 c 0
 26.5 273 77 329 170 329 c 0
 264 329 314 273 314 164 c 0
 314 55 264 -3 170 -3 c 0
170 32.5 m 0
 236 32.5 271.5 78.5 271.5 164 c 0
 271.5 250 236 293.5 170 293.5 c 0
 104.5 293.5 69 250 69 164 c 0
 69 78.5 104.5 32.5 170 32.5 c 0
EndSplineSet
Position2: "'cpsp' Capital Spacing lookup 0 subtable" dx=5 dy=0 dh=10 dv=0
EndChar

StartChar: Odieresis
Encoding: 214 214 115
Width: 341
VWidth: 466
GlyphClass: 2
Flags: MW
HStem: -3 35.5<137.25 203 137.25 217> 293.5 35.5<137.25 203> 365.5 34<117.5 143.5>
VStem: 26.5 42.5<121.25 207 121.25 218.5> 117.5 39<375.5 399.5 372.5 402.5> 184.5 39<375.5 399.5 372.5 402.5> 271.5 42.5<121.25 207>
AnchorPoint: "Anchor-1" 171 326 basechar 0
AnchorPoint: "Anchor-0" 171 0 basechar 0
LayerCount: 2
Back
Fore
SplineSet
136 365.5 m 0
 123 365.5 117.5 369 117.5 375.5 c 2
 117.5 399.5 l 2
 117.5 405.5 123 409.5 138 409.5 c 0
 151 409.5 156.5 406 156.5 399.5 c 2
 156.5 375.5 l 2
 156.5 369.5 151 365.5 136 365.5 c 0
203 365.5 m 0xfe
 190 365.5 184.5 369 184.5 375.5 c 2
 184.5 399.5 l 2
 184.5 405.5 190 409.5 205 409.5 c 0
 218 409.5 223.5 406 223.5 399.5 c 2
 223.5 375.5 l 2
 223.5 369.5 218 365.5 203 365.5 c 0xfe
170 -3 m 0
 77 -3 26.5 55 26.5 164 c 0
 26.5 273 77 329 170 329 c 0
 264 329 314 273 314 164 c 0
 314 55 264 -3 170 -3 c 0
170 32.5 m 0
 236 32.5 271.5 78.5 271.5 164 c 0
 271.5 250 236 293.5 170 293.5 c 0
 104.5 293.5 69 250 69 164 c 0
 69 78.5 104.5 32.5 170 32.5 c 0
EndSplineSet
Position2: "'cpsp' Capital Spacing lookup 0 subtable" dx=5 dy=0 dh=10 dv=0
EndChar

StartChar: uni1ECC
Encoding: 7884 7884 116
Width: 341
VWidth: 466
GlyphClass: 2
Flags: MW
HStem: -81.5 34<152.5 178.5> -3 35.5<137.25 203 137.25 217> 293.5 35.5<137.25 203>
VStem: 26.5 42.5<121.25 207 121.25 218.5> 152.5 39<-71.5 -47.5 -74.5 -44.5> 271.5 42.5<121.25 207>
AnchorPoint: "Anchor-1" 171 326 basechar 0
AnchorPoint: "Anchor-0" 171 -95 basechar 0
LayerCount: 2
Back
Fore
SplineSet
170 -3 m 0
 77 -3 26.5 55 26.5 164 c 0
 26.5 273 77 329 170 329 c 0
 264 329 314 273 314 164 c 0
 314 55 264 -3 170 -3 c 0
170 32.5 m 0
 236 32.5 271.5 78.5 271.5 164 c 0
 271.5 250 236 293.5 170 293.5 c 0
 104.5 293.5 69 250 69 164 c 0
 69 78.5 104.5 32.5 170 32.5 c 0
171 -81.5 m 0
 158 -81.5 152.5 -78 152.5 -71.5 c 2
 152.5 -47.5 l 2
 152.5 -41.5 158 -37.5 173 -37.5 c 0
 186 -37.5 191.5 -41 191.5 -47.5 c 2
 191.5 -71.5 l 2
 191.5 -77.5 186 -81.5 171 -81.5 c 0
EndSplineSet
Position2: "'cpsp' Capital Spacing lookup 0 subtable" dx=5 dy=0 dh=10 dv=0
EndChar

StartChar: Ograve
Encoding: 210 210 117
Width: 341
VWidth: 466
GlyphClass: 2
Flags: MW
HStem: -3 35.5<137.25 203 137.25 217> 293.5 35.5<137.25 203> 355 68.5<130.5 186.75>
VStem: 26.5 42.5<121.25 207 121.25 218.5> 271.5 42.5<121.25 207>
AnchorPoint: "Anchor-1" 171 326 basechar 0
AnchorPoint: "Anchor-0" 171 0 basechar 0
LayerCount: 2
Back
Fore
SplineSet
183 355 m 0
 173.5 355 164.5 358 159.5 363.5 c 0
 120 408 115.5 412.5 115.5 417.5 c 0
 115.5 422 123 423.5 138 423.5 c 0
 153 423.5 161.5 420.5 166.5 411.5 c 0
 188 374 194 364.5 194 360 c 0
 194 356.5 190.5 355 183 355 c 0
170 -3 m 0
 77 -3 26.5 55 26.5 164 c 0
 26.5 273 77 329 170 329 c 0xd8
 264 329 314 273 314 164 c 0
 314 55 264 -3 170 -3 c 0
170 32.5 m 0
 236 32.5 271.5 78.5 271.5 164 c 0
 271.5 250 236 293.5 170 293.5 c 0xd8
 104.5 293.5 69 250 69 164 c 0
 69 78.5 104.5 32.5 170 32.5 c 0
EndSplineSet
Position2: "'cpsp' Capital Spacing lookup 0 subtable" dx=5 dy=0 dh=10 dv=0
EndChar

StartChar: uni1ECE
Encoding: 7886 7886 118
Width: 341
VWidth: 466
GlyphClass: 2
Flags: MW
HStem: -3 35.5<137.25 203 137.25 217> 293.5 35.5<137.25 203> 408 24<165.75 174.75>
VStem: 26.5 42.5<121.25 207 121.25 218.5> 187.5 28.5<384 399.75> 271.5 42.5<121.25 207>
AnchorPoint: "Anchor-1" 171 409 basechar 0
AnchorPoint: "Anchor-0" 171 0 basechar 0
LayerCount: 2
Back
Fore
SplineSet
174 345 m 0
 169.5 345 158.5 348.5 158.5 353 c 0
 158.5 366.5 187.5 372.5 187.5 395.5 c 0
 187.5 404 179.5 408 170 408 c 0
 155.5 408 151 402 148.5 402 c 0
 145 402 137.5 413 137.5 417.5 c 0
 137.5 423.5 157.5 432 174 432 c 0
 189.5 432 216 424.5 216 399 c 0
 216 368 179.5 345 174 345 c 0
170 -3 m 0
 77 -3 26.5 55 26.5 164 c 0
 26.5 273 77 329 170 329 c 0
 264 329 314 273 314 164 c 0
 314 55 264 -3 170 -3 c 0
170 32.5 m 0
 236 32.5 271.5 78.5 271.5 164 c 0
 271.5 250 236 293.5 170 293.5 c 0
 104.5 293.5 69 250 69 164 c 0
 69 78.5 104.5 32.5 170 32.5 c 0
EndSplineSet
Position2: "'cpsp' Capital Spacing lookup 0 subtable" dx=5 dy=0 dh=10 dv=0
EndChar

StartChar: Ohorn
Encoding: 416 416 119
Width: 341
VWidth: 466
GlyphClass: 2
Flags: MW
HStem: -3 35.5<137.25 203 137.25 217> 293.5 24.5 293.5 35.5<137.25 182 123.5 203>
VStem: 26.5 42.5<121.25 207 121.25 218.5> 266.5 28.5<329.75 351.25> 271.5 42.5<121.25 197.5 109.5 207>
AnchorPoint: "Anchor-1" 196 374 basechar 0
AnchorPoint: "Anchor-0" 171 0 basechar 0
LayerCount: 2
Back
Fore
SplineSet
258.5 304.5 m 1xd4
 295 278 314 231 314 164 c 0
 314 55 264 -3 170 -3 c 0
 77 -3 26.5 55 26.5 164 c 0
 26.5 273 77 329 170 329 c 0xb4
 194 329 215.5 325.5 233.5 318 c 1
 241 318 l 2
 261 318 266.5 326 266.5 333.5 c 0
 268 347.5 255.5 357 254 362.5 c 0
 254 365 255.5 368 258 370 c 2
 269.5 377.5 l 2
 271 378.5 273 379 275 379 c 0
 285.5 379 295 358 295 344.5 c 0xd8
 295 324 283.5 309 258.5 304.5 c 1xd4
170 32.5 m 0xb4
 236 32.5 271.5 78.5 271.5 164 c 0
 271.5 250 236 293.5 170 293.5 c 0
 104.5 293.5 69 250 69 164 c 0
 69 78.5 104.5 32.5 170 32.5 c 0xb4
EndSplineSet
Position2: "'cpsp' Capital Spacing lookup 0 subtable" dx=5 dy=0 dh=10 dv=0
EndChar

StartChar: uni1EDA
Encoding: 7898 7898 120
Width: 341
VWidth: 466
GlyphClass: 2
Flags: MW
HStem: -3 35.5<137.25 203 137.25 217> 293.5 24.5 293.5 35.5<137.25 182 123.5 203> 355 68.5<158.75 215.5>
VStem: 26.5 42.5<121.25 207 121.25 218.5> 266.5 28.5<329.75 351.25> 271.5 42.5<121.25 197.5 109.5 207>
AnchorPoint: "Anchor-1" 196 374 basechar 0
AnchorPoint: "Anchor-0" 171 0 basechar 0
LayerCount: 2
Back
Fore
SplineSet
162.5 355 m 0xda
 155 355 152 356.5 152 360 c 0
 152 364.5 157.5 374 179 411.5 c 0
 184 420.5 193 423.5 208 423.5 c 0
 223 423.5 230.5 422 230.5 417.5 c 0
 230.5 412.5 225.5 408 186.5 363.5 c 0
 181.5 358 172.5 355 162.5 355 c 0xda
258.5 304.5 m 1
 295 278 314 231 314 164 c 0
 314 55 264 -3 170 -3 c 0
 77 -3 26.5 55 26.5 164 c 0
 26.5 273 77 329 170 329 c 0xaa
 194 329 215.5 325.5 233.5 318 c 1
 241 318 l 2
 261 318 266.5 326 266.5 333.5 c 0
 268 347.5 255.5 357 254 362.5 c 0
 254 365 255.5 368 258 370 c 2
 269.5 377.5 l 2
 271 378.5 273 379 275 379 c 0
 285.5 379 295 358 295 344.5 c 0xcc
 295 324 283.5 309 258.5 304.5 c 1
170 32.5 m 0xaa
 236 32.5 271.5 78.5 271.5 164 c 0
 271.5 250 236 293.5 170 293.5 c 0
 104.5 293.5 69 250 69 164 c 0
 69 78.5 104.5 32.5 170 32.5 c 0xaa
EndSplineSet
Position2: "'cpsp' Capital Spacing lookup 0 subtable" dx=5 dy=0 dh=10 dv=0
EndChar

StartChar: uni1EE2
Encoding: 7906 7906 121
Width: 341
VWidth: 466
GlyphClass: 2
Flags: MW
HStem: -71.5 34<152.5 179.5 165.5 191.5> -3 35.5<137.25 203 137.25 217> 293.5 24.5 293.5 35.5<137.25 182 123.5 203>
VStem: 26.5 42.5<121.25 207 121.25 218.5> 152.5 39<-71.5 -47.5 -74.5 -44.5> 266.5 28.5<329.75 351.25> 271.5 42.5<121.25 197.5 109.5 207>
AnchorPoint: "Anchor-1" 196 374 basechar 0
AnchorPoint: "Anchor-0" 171 -95 basechar 0
LayerCount: 2
Back
Fore
SplineSet
258.5 304.5 m 1xed
 295 278 314 231 314 164 c 0
 314 55 264 -3 170 -3 c 0
 77 -3 26.5 55 26.5 164 c 0
 26.5 273 77 329 170 329 c 0xdd
 194 329 215.5 325.5 233.5 318 c 1
 241 318 l 2
 261 318 266.5 326 266.5 333.5 c 0
 268 347.5 255.5 357 254 362.5 c 0
 254 365 255.5 368 258 370 c 2
 269.5 377.5 l 2
 271 378.5 273 379 275 379 c 0
 285.5 379 295 358 295 344.5 c 0xee
 295 324 283.5 309 258.5 304.5 c 1xed
170 32.5 m 0xdd
 236 32.5 271.5 78.5 271.5 164 c 0
 271.5 250 236 293.5 170 293.5 c 0
 104.5 293.5 69 250 69 164 c 0
 69 78.5 104.5 32.5 170 32.5 c 0xdd
173 -37.5 m 0
 186 -37.5 191.5 -41 191.5 -47.5 c 2
 191.5 -71.5 l 2
 191.5 -77.5 186 -81.5 171 -81.5 c 0
 158 -81.5 152.5 -78 152.5 -71.5 c 2
 152.5 -47.5 l 2
 152.5 -41.5 158 -37.5 173 -37.5 c 0
EndSplineSet
Position2: "'cpsp' Capital Spacing lookup 0 subtable" dx=5 dy=0 dh=10 dv=0
EndChar

StartChar: uni1EDC
Encoding: 7900 7900 122
Width: 341
VWidth: 466
GlyphClass: 2
Flags: MW
HStem: -3 35.5<137.25 203 137.25 217> 293.5 24.5 293.5 35.5<137.25 182 123.5 203> 355 68.5<130.5 186.75>
VStem: 26.5 42.5<121.25 207 121.25 218.5> 266.5 28.5<329.75 351.25> 271.5 42.5<121.25 197.5 109.5 207>
AnchorPoint: "Anchor-1" 196 374 basechar 0
AnchorPoint: "Anchor-0" 171 0 basechar 0
LayerCount: 2
Back
Fore
SplineSet
183 355 m 0xda
 173.5 355 164.5 358 159.5 363.5 c 0
 120 408 115.5 412.5 115.5 417.5 c 0
 115.5 422 123 423.5 138 423.5 c 0
 153 423.5 161.5 420.5 166.5 411.5 c 0
 188 374 194 364.5 194 360 c 0
 194 356.5 190.5 355 183 355 c 0xda
258.5 304.5 m 1
 295 278 314 231 314 164 c 0
 314 55 264 -3 170 -3 c 0
 77 -3 26.5 55 26.5 164 c 0
 26.5 273 77 329 170 329 c 0xaa
 194 329 215.5 325.5 233.5 318 c 1
 241 318 l 2
 261 318 266.5 326 266.5 333.5 c 0
 268 347.5 255.5 357 254 362.5 c 0
 254 365 255.5 368 258 370 c 2
 269.5 377.5 l 2
 271 378.5 273 379 275 379 c 0
 285.5 379 295 358 295 344.5 c 0xcc
 295 324 283.5 309 258.5 304.5 c 1
170 32.5 m 0xaa
 236 32.5 271.5 78.5 271.5 164 c 0
 271.5 250 236 293.5 170 293.5 c 0
 104.5 293.5 69 250 69 164 c 0
 69 78.5 104.5 32.5 170 32.5 c 0xaa
EndSplineSet
Position2: "'cpsp' Capital Spacing lookup 0 subtable" dx=5 dy=0 dh=10 dv=0
EndChar

StartChar: uni1EDE
Encoding: 7902 7902 123
Width: 341
VWidth: 466
GlyphClass: 2
Flags: MW
HStem: -3 35.5<137.25 203 137.25 217> 293.5 24.5 293.5 35.5<137.25 182 123.5 203> 408 24<165.75 174.75>
VStem: 26.5 42.5<121.25 207 121.25 218.5> 187.5 28.5<384 399.75> 266.5 28.5<329.75 351.25> 271.5 42.5<121.25 197.5 109.5 207>
AnchorPoint: "Anchor-1" 196 374 basechar 0
AnchorPoint: "Anchor-0" 171 0 basechar 0
LayerCount: 2
Back
Fore
SplineSet
148.5 402 m 0xbd
 145 402 137.5 413 137.5 417.5 c 0
 137.5 423.5 157.5 432 174 432 c 0
 189.5 432 216 424.5 216 399 c 0
 216 368 179.5 345 174 345 c 0
 169.5 345 158.5 348.5 158.5 353 c 0
 158.5 366.5 187.5 372.5 187.5 395.5 c 0
 187.5 404 179.5 408 170 408 c 0
 155.5 408 151 402 148.5 402 c 0xbd
258.5 304.5 m 1xdd
 295 278 314 231 314 164 c 0
 314 55 264 -3 170 -3 c 0
 77 -3 26.5 55 26.5 164 c 0
 26.5 273 77 329 170 329 c 0xbd
 194 329 215.5 325.5 233.5 318 c 1
 241 318 l 2
 261 318 266.5 326 266.5 333.5 c 0
 268 347.5 255.5 357 254 362.5 c 0
 254 365 255.5 368 258 370 c 2
 269.5 377.5 l 2
 271 378.5 273 379 275 379 c 0
 285.5 379 295 358 295 344.5 c 0xde
 295 324 283.5 309 258.5 304.5 c 1xdd
170 32.5 m 0xbd
 236 32.5 271.5 78.5 271.5 164 c 0
 271.5 250 236 293.5 170 293.5 c 0
 104.5 293.5 69 250 69 164 c 0
 69 78.5 104.5 32.5 170 32.5 c 0xbd
EndSplineSet
Position2: "'cpsp' Capital Spacing lookup 0 subtable" dx=5 dy=0 dh=10 dv=0
EndChar

StartChar: uni1EE0
Encoding: 7904 7904 124
Width: 341
VWidth: 466
GlyphClass: 2
Flags: MW
HStem: -3 35.5<137.25 203 137.25 217> 293.5 24.5 293.5 35.5<137.25 182 123.5 203> 358 26<197 210.75 197 214.5> 378 26<127.5 141>
VStem: 26.5 42.5<121.25 207 121.25 218.5> 266.5 28.5<329.75 351.25> 271.5 42.5<121.25 197.5 109.5 207>
AnchorPoint: "Anchor-1" 196 374 basechar 0
AnchorPoint: "Anchor-0" 171 0 basechar 0
LayerCount: 2
Back
Fore
SplineSet
97 360 m 2xb5
 94 361.5 93 363.5 93 366 c 0
 93 367.5 93.5 369.5 94.5 372 c 0
 103.5 395.5 116 404 133.5 404 c 0xad
 158 404 187 384 207 384 c 0
 214.5 384 219.5 387.5 225.5 397.5 c 0
 228.5 402.5 231 404.5 234 404.5 c 0
 235.5 404.5 236.5 404 238.5 403 c 2
 241.5 401.5 l 2
 245 400.5 246.5 398.5 246.5 396 c 0
 246.5 394.5 246 392.5 245 389.5 c 0
 235.5 366.5 223 358 206 358 c 0xb5
 180 358 151 378 131 378 c 0xad
 124 378 119.5 374 113.5 364 c 0
 110.5 359 108.5 357 105.5 357 c 0
 104.5 357 103 357.5 101.5 358.5 c 2
 97 360 l 2xb5
258.5 304.5 m 1xcd
 295 278 314 231 314 164 c 0
 314 55 264 -3 170 -3 c 0
 77 -3 26.5 55 26.5 164 c 0
 26.5 273 77 329 170 329 c 0xad
 194 329 215.5 325.5 233.5 318 c 1
 241 318 l 2
 261 318 266.5 326 266.5 333.5 c 0
 268 347.5 255.5 357 254 362.5 c 0
 254 365 255.5 368 258 370 c 2
 269.5 377.5 l 2
 271 378.5 273 379 275 379 c 0
 285.5 379 295 358 295 344.5 c 0xce
 295 324 283.5 309 258.5 304.5 c 1xcd
170 32.5 m 0xad
 236 32.5 271.5 78.5 271.5 164 c 0
 271.5 250 236 293.5 170 293.5 c 0
 104.5 293.5 69 250 69 164 c 0
 69 78.5 104.5 32.5 170 32.5 c 0xad
EndSplineSet
Position2: "'cpsp' Capital Spacing lookup 0 subtable" dx=5 dy=0 dh=10 dv=0
EndChar

StartChar: Ohungarumlaut
Encoding: 336 336 125
Width: 341
VWidth: 466
GlyphClass: 2
Flags: MW
HStem: -3 35.5<137.25 203 137.25 217> 293.5 35.5<137.25 203> 355 68.5<125.5 182 167 202.5>
VStem: 26.5 42.5<121.25 207 121.25 218.5> 271.5 42.5<121.25 207>
AnchorPoint: "Anchor-1" 171 326 basechar 0
AnchorPoint: "Anchor-0" 171 0 basechar 0
LayerCount: 2
Back
Fore
SplineSet
129 355 m 0
 122 355 118.5 356.5 118.5 360 c 0
 118.5 364.5 124 374 145.5 411.5 c 0
 150.5 420.5 159.5 423.5 174.5 423.5 c 0
 189.5 423.5 197 422 197 417.5 c 0
 197 412.5 192 408 153 363.5 c 0
 148 358 139 355 129 355 c 0
197.5 355 m 0
 190.5 355 187 356.5 187 360 c 0
 187 364.5 192.5 374 214 411.5 c 0
 219 420.5 228 423.5 243 423.5 c 0
 258 423.5 265.5 422 265.5 417.5 c 0
 265.5 412.5 260.5 408 221.5 363.5 c 0
 216.5 358 207.5 355 197.5 355 c 0
170 -3 m 0
 77 -3 26.5 55 26.5 164 c 0
 26.5 273 77 329 170 329 c 0xd8
 264 329 314 273 314 164 c 0
 314 55 264 -3 170 -3 c 0
170 32.5 m 0
 236 32.5 271.5 78.5 271.5 164 c 0
 271.5 250 236 293.5 170 293.5 c 0xd8
 104.5 293.5 69 250 69 164 c 0
 69 78.5 104.5 32.5 170 32.5 c 0
EndSplineSet
Position2: "'cpsp' Capital Spacing lookup 0 subtable" dx=5 dy=0 dh=10 dv=0
EndChar

StartChar: Omacron
Encoding: 332 332 126
Width: 341
VWidth: 466
GlyphClass: 2
Flags: MW
HStem: -3 35.5<137.25 203 137.25 217> 293.5 35.5<137.25 203> 367.5 33<115.25 222.5 118.5 222.5>
VStem: 26.5 42.5<121.25 207 121.25 218.5> 109 122.5<381.5 386.5 376.75 391.25> 271.5 42.5<121.25 207>
AnchorPoint: "Anchor-1" 171 326 basechar 0
AnchorPoint: "Anchor-0" 171 0 basechar 0
LayerCount: 2
Back
Fore
SplineSet
118.5 367.5 m 2
 112 367.5 109 372 109 381.5 c 2
 109 386.5 l 2
 109 396 112 400.5 118.5 400.5 c 2
 222.5 400.5 l 2
 229 400.5 231.5 396 231.5 386.5 c 2
 231.5 381.5 l 2
 231.5 372 229 367.5 222.5 367.5 c 2
 118.5 367.5 l 2
170 -3 m 0
 77 -3 26.5 55 26.5 164 c 0
 26.5 273 77 329 170 329 c 0
 264 329 314 273 314 164 c 0
 314 55 264 -3 170 -3 c 0
170 32.5 m 0
 236 32.5 271.5 78.5 271.5 164 c 0
 271.5 250 236 293.5 170 293.5 c 0
 104.5 293.5 69 250 69 164 c 0
 69 78.5 104.5 32.5 170 32.5 c 0
EndSplineSet
Position2: "'cpsp' Capital Spacing lookup 0 subtable" dx=5 dy=0 dh=10 dv=0
EndChar

StartChar: uni01EA
Encoding: 490 490 127
Width: 341
VWidth: 466
GlyphClass: 2
Flags: MW
HStem: -85.5 33<224.5 233.5 224.5 236.25> -3 35.5<137.25 170 170 178.5> -0.5 21G<206.5 206.5> 293.5 35.5<137.25 203>
VStem: 26.5 42.5<121.25 207 121.25 218.5> 169.5 31.5<-40.25 -33.25> 271.5 42.5<121.25 207>
AnchorPoint: "Anchor-1" 171 326 basechar 0
AnchorPoint: "Anchor-0" 171 0 basechar 0
LayerCount: 2
Back
Fore
SplineSet
314 164 m 0xde
 314 70 277 14 206.5 0.5 c 1
 206.5 -0.5 l 2xbe
 206.5 -7 201 -17.5 201 -29 c 0
 201 -51.5 219 -52.5 230 -52.5 c 0
 237 -52.5 246.5 -48 254 -48 c 0
 259.5 -48 263 -51.5 263 -59.5 c 0
 263 -80.5 248 -85.5 224.5 -85.5 c 0
 175 -85.5 169.5 -51.5 169.5 -37.5 c 0
 169.5 -29 171 -13 178.5 -3 c 1
 170 -3 l 2
 77 -3 26.5 55 26.5 164 c 0
 26.5 273 77 329 170 329 c 0
 264 329 314 273 314 164 c 0xde
170 32.5 m 0
 236 32.5 271.5 78.5 271.5 164 c 0
 271.5 250 236 293.5 170 293.5 c 0
 104.5 293.5 69 250 69 164 c 0
 69 78.5 104.5 32.5 170 32.5 c 0
EndSplineSet
Position2: "'cpsp' Capital Spacing lookup 0 subtable" dx=5 dy=0 dh=10 dv=0
EndChar

StartChar: Oslash
Encoding: 216 216 128
Width: 341
VWidth: 466
GlyphClass: 2
Flags: MW
HStem: -3 35.5<152.5 203 152.5 217> 0.5 21G<24 27> 293.5 35.5<137.25 185.5>
VStem: 26.5 42.5<148.75 207 148.75 218.5> 271.5 42.5<121.25 182>
AnchorPoint: "Anchor-1" 171 326 basechar 0
AnchorPoint: "Anchor-0" 0 0 basechar 0
LayerCount: 2
Back
Fore
SplineSet
170 -3 m 0xb8
 123.5 -3 88 11 64 39 c 1xb8
 32.5 4.5 l 2
 30.5 2 28 0.5 26 0.5 c 0
 22 0.5 16 6 16 10.5 c 0
 16 12 17 14.5 18.5 17 c 2
 52.5 54 l 1x78
 35.5 81.5 26.5 118 26.5 164 c 0
 26.5 273 77 329 170 329 c 0
 212 329 245 317.5 269.5 295 c 1
 295 323.5 l 2
 297.5 326 299 327 301.5 327 c 0
 305.5 327 312 321.5 312 318 c 0
 312 315.5 311 313.5 309 311.5 c 2
 282 281.5 l 1
 303 254 314 215 314 164 c 0
 314 55 264 -3 170 -3 c 0xb8
82.5 87 m 1
 242 264.5 l 1
 225 284 201 293.5 170 293.5 c 0
 104.5 293.5 69 250 69 164 c 0
 69 133.5 73.5 107.5 82.5 87 c 1
170 32.5 m 0
 236 32.5 271.5 78.5 271.5 164 c 0
 271.5 200 265 229 253 250 c 1
 92 70.5 l 1
 108.5 45 135 32.5 170 32.5 c 0
EndSplineSet
Position2: "'cpsp' Capital Spacing lookup 0 subtable" dx=5 dy=0 dh=10 dv=0
EndChar

StartChar: Oslashacute
Encoding: 510 510 129
Width: 341
VWidth: 466
GlyphClass: 2
Flags: MW
HStem: -3 35.5<152.5 203 152.5 217> 0.5 21G<24 27> 293.5 35.5<137.25 185.5> 355 68.5<158.75 215.5>
VStem: 26.5 42.5<148.75 207 148.75 218.5> 271.5 42.5<121.25 182>
AnchorPoint: "Anchor-1" 171 326 basechar 0
AnchorPoint: "Anchor-0" 0 0 basechar 0
LayerCount: 2
Back
Fore
SplineSet
162.5 355 m 0xbc
 155 355 152 356.5 152 360 c 0
 152 364.5 157.5 374 179 411.5 c 0
 184 420.5 193 423.5 208 423.5 c 0
 223 423.5 230.5 422 230.5 417.5 c 0
 230.5 412.5 225.5 408 186.5 363.5 c 0
 181.5 358 172.5 355 162.5 355 c 0xbc
170 -3 m 0
 123.5 -3 88 11 64 39 c 1xac
 32.5 4.5 l 2
 30.5 2 28 0.5 26 0.5 c 0
 22 0.5 16 6 16 10.5 c 0
 16 12 17 14.5 18.5 17 c 2
 52.5 54 l 1
 35.5 81.5 26.5 118 26.5 164 c 0
 26.5 273 77 329 170 329 c 0
 212 329 245 317.5 269.5 295 c 1
 295 323.5 l 2
 297.5 326 299 327 301.5 327 c 0
 305.5 327 312 321.5 312 318 c 0
 312 315.5 311 313.5 309 311.5 c 2
 282 281.5 l 1x6c
 303 254 314 215 314 164 c 0
 314 55 264 -3 170 -3 c 0
82.5 87 m 1xac
 242 264.5 l 1
 225 284 201 293.5 170 293.5 c 0
 104.5 293.5 69 250 69 164 c 0
 69 133.5 73.5 107.5 82.5 87 c 1xac
170 32.5 m 0
 236 32.5 271.5 78.5 271.5 164 c 0
 271.5 200 265 229 253 250 c 1
 92 70.5 l 1
 108.5 45 135 32.5 170 32.5 c 0
EndSplineSet
Position2: "'cpsp' Capital Spacing lookup 0 subtable" dx=5 dy=0 dh=10 dv=0
EndChar

StartChar: Otilde
Encoding: 213 213 130
Width: 341
VWidth: 466
GlyphClass: 2
Flags: MW
HStem: -3 35.5<137.25 203 137.25 217> 293.5 35.5<137.25 203> 358 26<204 219.25 204 223.5> 378 26<127.75 142.5>
VStem: 26.5 42.5<121.25 207 121.25 218.5> 271.5 42.5<121.25 207>
AnchorPoint: "Anchor-1" 171 326 basechar 0
AnchorPoint: "Anchor-0" 171 0 basechar 0
LayerCount: 2
Back
Fore
SplineSet
99 358.5 m 2xec
 94 360 l 2xec
 91 361.5 90 363.5 90 366 c 0
 90 367.5 90.5 369.5 91.5 372 c 0
 101.5 395.5 115 404 134.5 404 c 0xdc
 161.5 404 193 384 215 384 c 0
 223.5 384 229 387.5 235.5 397.5 c 0
 239 402.5 241.5 404.5 245 404.5 c 0
 246.5 404.5 247.5 404 250 403 c 2
 253 401.5 l 2
 257 400.5 258.5 398.5 258.5 396 c 0
 258.5 394.5 258 392.5 257 389.5 c 0
 246.5 366.5 233 358 214 358 c 0xec
 185.5 358 153.5 378 131.5 378 c 0xdc
 124 378 119 374 112.5 364 c 0
 109 359 107 357 103.5 357 c 0
 102.5 357 101 357.5 99 358.5 c 2xec
170 -3 m 0xdc
 77 -3 26.5 55 26.5 164 c 0
 26.5 273 77 329 170 329 c 0
 264 329 314 273 314 164 c 0
 314 55 264 -3 170 -3 c 0xdc
170 32.5 m 0
 236 32.5 271.5 78.5 271.5 164 c 0
 271.5 250 236 293.5 170 293.5 c 0
 104.5 293.5 69 250 69 164 c 0
 69 78.5 104.5 32.5 170 32.5 c 0
EndSplineSet
Position2: "'cpsp' Capital Spacing lookup 0 subtable" dx=5 dy=0 dh=10 dv=0
EndChar

StartChar: OE
Encoding: 338 338 131
Width: 476
VWidth: 466
GlyphClass: 2
Flags: MW
HStem: -3 35.5<137.25 192.5> 0 35.5<281.75 451 313.5 451 313.5 451> 149 35.5<313.5 436.5 313.5 436.5> 291 35<313.5 450.5 313.5 313.5> 293.5 35.5<137.25 192.5 123.5 203>
VStem: 26.5 42.5<121.25 207 121.25 218.5> 271.5 42<121.25 149 184.5 207>
AnchorPoint: "Anchor-1" 238 326 basechar 0
AnchorPoint: "Anchor-0" 0 0 basechar 0
LayerCount: 2
Back
Fore
SplineSet
451 35.5 m 2x76
 457.5 35.5 460.5 31 460.5 21.5 c 2
 460.5 14 l 2
 460.5 4 457.5 0 451 0 c 2
 286.5 0 l 2
 277 0 272.5 4 272.5 14 c 2x76
 272.5 36 l 1
 249 10 215 -3 170 -3 c 0
 77 -3 26.5 55 26.5 164 c 0
 26.5 273 77 329 170 329 c 0
 215 329 249 316 272.5 290.5 c 1xae
 272.5 312 l 2
 272.5 322 277 326 286.5 326 c 2
 450.5 326 l 2
 457 326 460 322 460 312 c 2
 460 305 l 2
 460 295 457 291 450.5 291 c 2
 313.5 291 l 1
 313.5 184.5 l 1
 436.5 184.5 l 2
 443 184.5 446 180.5 446 170.5 c 2
 446 163 l 2
 446 153.5 443 149 436.5 149 c 2
 313.5 149 l 1
 313.5 35.5 l 1
 451 35.5 l 2x76
170 32.5 m 0xae
 236 32.5 271.5 78.5 271.5 164 c 0
 271.5 250 236 293.5 170 293.5 c 0
 104.5 293.5 69 250 69 164 c 0
 69 78.5 104.5 32.5 170 32.5 c 0xae
EndSplineSet
Position2: "'cpsp' Capital Spacing lookup 0 subtable" dx=5 dy=0 dh=10 dv=0
EndChar

StartChar: P
Encoding: 80 80 132
Width: 266
VWidth: 466
GlyphClass: 2
Flags: MW
HStem: -1 21G<51.5 58 58 62> 139 35.5<80.5 153 80.5 153.5> 291 35<80.5 147 80.5 80.5>
VStem: 39.5 41<9.5 139 174.5 291> 209.5 42.5<209.5 258>
LayerCount: 2
Back
Fore
SplineSet
58 -1 m 2
 45 -1 39.5 3 39.5 9.5 c 2
 39.5 312 l 2
 39.5 322 44 326 53.5 326 c 2
 148 326 l 2
 188.5 326 252 313.5 252 235 c 0
 252 149.5 177 139 153 139 c 2
 80.5 139 l 1
 80.5 9.5 l 2
 80.5 3 75 -1 62 -1 c 2
 58 -1 l 2
80.5 174.5 m 1
 153.5 174.5 l 2
 172 174.5 209.5 184 209.5 235 c 0
 209.5 281 174.5 291 147 291 c 2
 80.5 291 l 1
 80.5 174.5 l 1
EndSplineSet
Position2: "'cpsp' Capital Spacing lookup 0 subtable" dx=5 dy=0 dh=10 dv=0
EndChar

StartChar: Thorn
Encoding: 222 222 133
Width: 264
VWidth: 466
GlyphClass: 2
Flags: MW
HStem: -1 21G<51.5 58 58 62> 82 35.5<80.5 153 80.5 153.5> 234 35.5<80.5 147 80.5 148> 307 20G<58 62 62 68.5>
VStem: 39.5 41<9.5 82 117.5 234 269.5 317> 209.5 42.5<152.5 201>
LayerCount: 2
Back
Fore
SplineSet
58 -1 m 2
 45 -1 39.5 3 39.5 9.5 c 2
 39.5 317 l 2
 39.5 323.5 45 327 58 327 c 2
 62 327 l 2
 75 327 80.5 323.5 80.5 317 c 2
 80.5 269.5 l 1
 148 269.5 l 2
 188.5 269.5 252 257 252 178 c 0
 252 92.5 177 82 153 82 c 2
 80.5 82 l 1
 80.5 9.5 l 2
 80.5 3 75 -1 62 -1 c 2
 58 -1 l 2
80.5 117.5 m 1
 153.5 117.5 l 2
 172 117.5 209.5 127 209.5 178 c 0
 209.5 224 174.5 234 147 234 c 2
 80.5 234 l 1
 80.5 117.5 l 1
EndSplineSet
Position2: "'cpsp' Capital Spacing lookup 0 subtable" dx=5 dy=0 dh=10 dv=0
EndChar

StartChar: Q
Encoding: 81 81 134
Width: 341
VWidth: 466
GlyphClass: 2
Flags: MW
HStem: 2.5 28.5<138 220.5> 293.5 35.5<138 202.5>
VStem: 26.5 42.5<120 204.25 119.25 216.25> 271.5 42.5<119.5 204>
LayerCount: 2
Back
Fore
SplineSet
299 -69 m 0
 293.5 -69 128 -3 114.5 3 c 0
 56 26 26.5 78.5 26.5 161.5 c 0
 26.5 271 77 329 170 329 c 0
 264 329 314 270.5 314 161.5 c 0
 314 73 281 18.5 220.5 2.5 c 1
 220.5 0.5 l 1
 312 -28.5 l 2
 316.5 -30 318.5 -32 318.5 -35.5 c 0
 318.5 -41 310 -69 299 -69 c 0
170 31 m 0
 235 31 271.5 77.5 271.5 161.5 c 0
 271.5 246.5 235 293.5 170 293.5 c 0
 106 293.5 69 247 69 161.5 c 0
 69 77 106 31 170 31 c 0
EndSplineSet
Position2: "'cpsp' Capital Spacing lookup 0 subtable" dx=5 dy=0 dh=10 dv=0
EndChar

StartChar: R
Encoding: 82 82 135
Width: 285
VWidth: 466
GlyphClass: 2
Flags: MW
HStem: -1 21G<57.5 64 64 67.5 247 251.5 251.5 256.5> 143.5 35.5<86 128 86 147.5> 291 35<86 137.5 137.5 144.5 86 86>
VStem: 45 41<9.5 143.5 179 291> 207.5 42.5<223.5 255.25>
AnchorPoint: "Anchor-1" 142 326 basechar 0
AnchorPoint: "Anchor-0" 142 0 basechar 0
LayerCount: 2
Back
Fore
SplineSet
64 -1 m 2
 51 -1 45 3 45 9.5 c 2
 45 312 l 2
 45 322 49.5 326 59 326 c 2
 137.5 326 l 2
 210 326 250 302.5 250 243.5 c 0
 250 203.5 229 178 196 165 c 1
 196 163 l 1
 216 156.5 226 135.5 238 105 c 2
 274.5 13 l 2
 275.5 10.5 276 8 276 6.5 c 0
 276 2 270 -1 256.5 -1 c 2
 251.5 -1 l 2
 242.5 -1 235 2 233 6.5 c 2
 197.5 98 l 2
 183.5 134 164.5 143.5 128 143.5 c 2
 86 143.5 l 1
 86 9.5 l 2
 86 3 80.5 -1 67.5 -1 c 2
 64 -1 l 2
86 179 m 1
 147.5 179 l 2
 181.5 179 207.5 205.5 207.5 236.5 c 0
 207.5 274 182 291 144.5 291 c 2
 86 291 l 1
 86 179 l 1
EndSplineSet
Position2: "'cpsp' Capital Spacing lookup 0 subtable" dx=5 dy=0 dh=10 dv=0
EndChar

StartChar: Racute
Encoding: 340 340 136
Width: 285
VWidth: 466
GlyphClass: 2
Flags: MW
HStem: -1 21G<57.5 64 64 67.5 247 251.5 251.5 256.5> 143.5 35.5<86 128 86 147.5> 291 35<86 137.5 137.5 144.5 86 86> 355 68.5<130.25 187>
VStem: 45 41<9.5 143.5 179 291> 207.5 42.5<223.5 255.25>
AnchorPoint: "Anchor-1" 142 326 basechar 0
AnchorPoint: "Anchor-0" 142 0 basechar 0
LayerCount: 2
Back
Fore
SplineSet
134 355 m 0
 126.5 355 123.5 356.5 123.5 360 c 0
 123.5 364.5 129 374 150.5 411.5 c 0
 155.5 420.5 164.5 423.5 179.5 423.5 c 0
 194.5 423.5 202 422 202 417.5 c 0
 202 412.5 197 408 158 363.5 c 0
 153 358 144 355 134 355 c 0
64 -1 m 2
 51 -1 45 3 45 9.5 c 2
 45 312 l 2
 45 322 49.5 326 59 326 c 2
 137.5 326 l 2
 210 326 250 302.5 250 243.5 c 0xec
 250 203.5 229 178 196 165 c 1
 196 163 l 1
 216 156.5 226 135.5 238 105 c 2
 274.5 13 l 2
 275.5 10.5 276 8 276 6.5 c 0
 276 2 270 -1 256.5 -1 c 2
 251.5 -1 l 2
 242.5 -1 235 2 233 6.5 c 2
 197.5 98 l 2
 183.5 134 164.5 143.5 128 143.5 c 2
 86 143.5 l 1
 86 9.5 l 2
 86 3 80.5 -1 67.5 -1 c 2
 64 -1 l 2
86 179 m 1
 147.5 179 l 2
 181.5 179 207.5 205.5 207.5 236.5 c 0
 207.5 274 182 291 144.5 291 c 2
 86 291 l 1xec
 86 179 l 1
EndSplineSet
Position2: "'cpsp' Capital Spacing lookup 0 subtable" dx=5 dy=0 dh=10 dv=0
EndChar

StartChar: Rcaron
Encoding: 344 344 137
Width: 285
VWidth: 466
GlyphClass: 2
Flags: MW
HStem: -1 21G<57.5 64 64 67.5 247 251.5 251.5 256.5> 143.5 35.5<86 128 86 147.5> 291 35<86 137.5 137.5 144.5 86 86> 353.5 26<131.5 141.5 141.5 141.5 141.5 148>
VStem: 45 41<9.5 143.5 179 291> 207.5 42.5<223.5 255.25>
AnchorPoint: "Anchor-1" 142 326 basechar 0
AnchorPoint: "Anchor-0" 142 0 basechar 0
LayerCount: 2
Back
Fore
SplineSet
136 353.5 m 2
 127 353.5 119.5 357 114.5 364 c 2
 88.5 405 l 2
 86.5 408 86 411 86 413.5 c 0
 86 417.5 89.5 420 96.5 420 c 2
 97.5 420 l 2
 104 420 108.5 418 113.5 414 c 2
 141.5 379.5 l 1
 171 414 l 2
 175.5 418 180.5 420 186.5 420 c 2
 187.5 420 l 2
 195 420 198.5 417 198.5 413 c 0
 198.5 410.5 197.5 408 196 405 c 2
 169 364 l 2
 164.5 357 157 353.5 148 353.5 c 2
 136 353.5 l 2
64 -1 m 2
 51 -1 45 3 45 9.5 c 2
 45 312 l 2
 45 322 49.5 326 59 326 c 2
 137.5 326 l 2
 210 326 250 302.5 250 243.5 c 0xec
 250 203.5 229 178 196 165 c 1
 196 163 l 1
 216 156.5 226 135.5 238 105 c 2
 274.5 13 l 2
 275.5 10.5 276 8 276 6.5 c 0
 276 2 270 -1 256.5 -1 c 2
 251.5 -1 l 2
 242.5 -1 235 2 233 6.5 c 2
 197.5 98 l 2
 183.5 134 164.5 143.5 128 143.5 c 2
 86 143.5 l 1
 86 9.5 l 2
 86 3 80.5 -1 67.5 -1 c 2
 64 -1 l 2
86 179 m 1
 147.5 179 l 2
 181.5 179 207.5 205.5 207.5 236.5 c 0
 207.5 274 182 291 144.5 291 c 2
 86 291 l 1xec
 86 179 l 1
EndSplineSet
Position2: "'cpsp' Capital Spacing lookup 0 subtable" dx=5 dy=0 dh=10 dv=0
EndChar

StartChar: Rcommaaccent
Encoding: 342 342 138
Width: 285
VWidth: 466
GlyphClass: 2
Flags: MW
HStem: -109.5 21G<112 122.25> -1 21G<57.5 64 64 67.5 247 251.5 251.5 256.5> 143.5 35.5<86 128 86 147.5> 291 35<86 137.5 137.5 144.5 86 86>
VStem: 45 41<9.5 143.5 179 291> 121 41.5<-56.25 -34.25> 207.5 42.5<223.5 255.25>
AnchorPoint: "Anchor-1" 142 326 basechar 0
AnchorPoint: "Anchor-0" 140 -95 basechar 0
LayerCount: 2
Back
Fore
SplineSet
64 -1 m 2
 51 -1 45 3 45 9.5 c 2
 45 312 l 2
 45 322 49.5 326 59 326 c 2
 137.5 326 l 2
 210 326 250 302.5 250 243.5 c 0
 250 203.5 229 178 196 165 c 1
 196 163 l 1
 216 156.5 226 135.5 238 105 c 2
 274.5 13 l 2
 275.5 10.5 276 8 276 6.5 c 0
 276 2 270 -1 256.5 -1 c 2
 251.5 -1 l 2
 242.5 -1 235 2 233 6.5 c 2
 197.5 98 l 2
 183.5 134 164.5 143.5 128 143.5 c 2
 86 143.5 l 1
 86 9.5 l 2
 86 3 80.5 -1 67.5 -1 c 2
 64 -1 l 2
86 179 m 1
 147.5 179 l 2
 181.5 179 207.5 205.5 207.5 236.5 c 0
 207.5 274 182 291 144.5 291 c 2
 86 291 l 1
 86 179 l 1
114.5 -109.5 m 0
 109.5 -109.5 101 -108 101 -102.5 c 0
 101 -92 121 -74 121 -38.5 c 0
 121 -30 127 -24 139.5 -24 c 2
 144 -24 l 2
 155.5 -24 162.5 -29 162.5 -37 c 0
 162.5 -81.5 130 -109.5 114.5 -109.5 c 0
EndSplineSet
Position2: "'cpsp' Capital Spacing lookup 0 subtable" dx=5 dy=0 dh=10 dv=0
EndChar

StartChar: uni1E5A
Encoding: 7770 7770 139
Width: 285
VWidth: 466
GlyphClass: 2
Flags: MW
HStem: -81.5 34<123.5 149.5> -1 21G<57.5 64 64 67.5 247 251.5 251.5 256.5> 143.5 35.5<86 128 86 147.5> 291 35<86 137.5 137.5 144.5 86 86>
VStem: 45 41<9.5 143.5 179 291> 123.5 39<-71.5 -47.5 -74.5 -44.5> 207.5 42.5<223.5 255.25>
AnchorPoint: "Anchor-1" 142 326 basechar 0
AnchorPoint: "Anchor-0" 142 -95 basechar 0
LayerCount: 2
Back
Fore
SplineSet
64 -1 m 2
 51 -1 45 3 45 9.5 c 2
 45 312 l 2
 45 322 49.5 326 59 326 c 2
 137.5 326 l 2
 210 326 250 302.5 250 243.5 c 0
 250 203.5 229 178 196 165 c 1
 196 163 l 1
 216 156.5 226 135.5 238 105 c 2
 274.5 13 l 2
 275.5 10.5 276 8 276 6.5 c 0
 276 2 270 -1 256.5 -1 c 2
 251.5 -1 l 2
 242.5 -1 235 2 233 6.5 c 2
 197.5 98 l 2
 183.5 134 164.5 143.5 128 143.5 c 2
 86 143.5 l 1
 86 9.5 l 2
 86 3 80.5 -1 67.5 -1 c 2
 64 -1 l 2
86 179 m 1
 147.5 179 l 2
 181.5 179 207.5 205.5 207.5 236.5 c 0
 207.5 274 182 291 144.5 291 c 2
 86 291 l 1
 86 179 l 1
142 -81.5 m 0
 129 -81.5 123.5 -78 123.5 -71.5 c 2
 123.5 -47.5 l 2
 123.5 -41.5 129 -37.5 144 -37.5 c 0
 157 -37.5 162.5 -41 162.5 -47.5 c 2
 162.5 -71.5 l 2
 162.5 -77.5 157 -81.5 142 -81.5 c 0
EndSplineSet
Position2: "'cpsp' Capital Spacing lookup 0 subtable" dx=5 dy=0 dh=10 dv=0
EndChar

StartChar: S
Encoding: 83 83 140
Width: 233
VWidth: 466
GlyphClass: 2
Flags: MW
HStem: -3 35.5<89.5 131.25 89.5 145> 293.5 35.5<108.5 140.25 95.75 144.25>
VStem: 23.5 42<224 258 224 268> 174.5 42.5<71 106.25>
AnchorPoint: "Anchor-1" 117 326 basechar 0
AnchorPoint: "Anchor-0" 117 0 basechar 0
LayerCount: 2
Back
Fore
SplineSet
113.5 -3 m 0
 59 -3 17 18.5 17 31 c 0
 17 38.5 28.5 56.5 33.5 56.5 c 0
 39.5 56.5 65.5 32.5 113.5 32.5 c 0
 149 32.5 174.5 54.5 174.5 87.5 c 0
 174.5 125 140.5 137 104.5 151 c 0
 65 166.5 23.5 181.5 23.5 243 c 0
 23.5 293 64.5 329 127 329 c 0
 153.5 329 202 317.5 202 300.5 c 0
 202 293.5 191.5 276 187 276 c 0
 180 276 162.5 293.5 126 293.5 c 0
 91 293.5 65.5 275 65.5 241 c 0
 65.5 207 95.5 198 129 185.5 c 0
 170.5 169.5 217 151 217 87.5 c 0
 217 31.5 176.5 -3 113.5 -3 c 0
EndSplineSet
Position2: "'cpsp' Capital Spacing lookup 0 subtable" dx=5 dy=0 dh=10 dv=0
EndChar

StartChar: Sacute
Encoding: 346 346 141
Width: 233
VWidth: 466
GlyphClass: 2
Flags: MW
HStem: -3 35.5<89.5 131.25 89.5 145> 293.5 35.5<108.5 140.25 95.75 144.25> 355 68.5<104.75 161.5>
VStem: 23.5 42<224 258 224 268> 174.5 42.5<71 106.25>
AnchorPoint: "Anchor-1" 117 326 basechar 0
AnchorPoint: "Anchor-0" 117 0 basechar 0
LayerCount: 2
Back
Fore
SplineSet
108.5 355 m 0
 101 355 98 356.5 98 360 c 0
 98 364.5 103.5 374 125 411.5 c 0
 130 420.5 139 423.5 154 423.5 c 0
 169 423.5 176.5 422 176.5 417.5 c 0
 176.5 412.5 171.5 408 132.5 363.5 c 0
 127.5 358 118.5 355 108.5 355 c 0
113.5 -3 m 0
 59 -3 17 18.5 17 31 c 0
 17 38.5 28.5 56.5 33.5 56.5 c 0
 39.5 56.5 65.5 32.5 113.5 32.5 c 0
 149 32.5 174.5 54.5 174.5 87.5 c 0
 174.5 125 140.5 137 104.5 151 c 0
 65 166.5 23.5 181.5 23.5 243 c 0
 23.5 293 64.5 329 127 329 c 0
 153.5 329 202 317.5 202 300.5 c 0
 202 293.5 191.5 276 187 276 c 0
 180 276 162.5 293.5 126 293.5 c 0
 91 293.5 65.5 275 65.5 241 c 0xd8
 65.5 207 95.5 198 129 185.5 c 0
 170.5 169.5 217 151 217 87.5 c 0
 217 31.5 176.5 -3 113.5 -3 c 0
EndSplineSet
Substitution2: "'locl' Localized Forms in Latin lookup 14 subtable" Sacute.loclPLK
Substitution2: "'aalt' Access All Alternates lookup 0 subtable" Sacute.loclPLK
Position2: "'cpsp' Capital Spacing lookup 0 subtable" dx=5 dy=0 dh=10 dv=0
EndChar

StartChar: Scaron
Encoding: 352 352 142
Width: 233
VWidth: 466
GlyphClass: 2
Flags: MW
HStem: -3 35.5<89.5 131.25 89.5 145> 293.5 35.5<108.5 140.25 95.75 144.25> 353.5 26<106 116 116 116 116 122.5>
VStem: 23.5 42<224 258 224 268> 174.5 42.5<71 106.25>
AnchorPoint: "Anchor-1" 117 326 basechar 0
AnchorPoint: "Anchor-0" 117 0 basechar 0
LayerCount: 2
Back
Fore
SplineSet
110.5 353.5 m 2
 101.5 353.5 94 357 89 364 c 2
 63 405 l 2
 61 408 60.5 411 60.5 413.5 c 0
 60.5 417.5 64 420 71 420 c 2
 72 420 l 2
 78.5 420 83 418 88 414 c 2
 116 379.5 l 1
 145.5 414 l 2
 150 418 155 420 161 420 c 2
 162 420 l 2
 169.5 420 173 417 173 413 c 0
 173 410.5 172 408 170.5 405 c 2
 143.5 364 l 2
 139 357 131.5 353.5 122.5 353.5 c 2
 110.5 353.5 l 2
113.5 -3 m 0
 59 -3 17 18.5 17 31 c 0
 17 38.5 28.5 56.5 33.5 56.5 c 0
 39.5 56.5 65.5 32.5 113.5 32.5 c 0
 149 32.5 174.5 54.5 174.5 87.5 c 0
 174.5 125 140.5 137 104.5 151 c 0
 65 166.5 23.5 181.5 23.5 243 c 0
 23.5 293 64.5 329 127 329 c 0
 153.5 329 202 317.5 202 300.5 c 0
 202 293.5 191.5 276 187 276 c 0
 180 276 162.5 293.5 126 293.5 c 0
 91 293.5 65.5 275 65.5 241 c 0xd8
 65.5 207 95.5 198 129 185.5 c 0
 170.5 169.5 217 151 217 87.5 c 0
 217 31.5 176.5 -3 113.5 -3 c 0
EndSplineSet
Position2: "'cpsp' Capital Spacing lookup 0 subtable" dx=5 dy=0 dh=10 dv=0
EndChar

StartChar: Scedilla
Encoding: 350 350 143
Width: 233
VWidth: 466
GlyphClass: 2
Flags: MW
HStem: -98 23<98.5 108.5 94.25 120.75> -3 35.5 293.5 35.5<108.5 140.25 95.75 144.25>
VStem: 23.5 42<224 258 224 268> 129.5 33<-65.75 -48> 174.5 42.5<71 106.25>
AnchorPoint: "Anchor-1" 117 326 basechar 0
AnchorPoint: "Anchor-0" 117 0 basechar 0
LayerCount: 2
Back
Fore
SplineSet
217 87.5 m 0
 217 35.5 182 2 127 -2.5 c 1xf4
 121 -23 l 1
 123 -23 l 2
 133.5 -23 162.5 -26 162.5 -56.5 c 0
 162.5 -92.5 132.5 -98 109 -98 c 0
 88 -98 55.5 -90.5 55.5 -78 c 0
 55.5 -72 57.5 -65.5 64.5 -65.5 c 0
 72 -65.5 85.5 -75 103 -75 c 0
 114 -75 129.5 -73 129.5 -58.5 c 0
 129.5 -37.5 99 -44.5 99 -31.5 c 0
 99 -28 99.5 -25 106.5 -3 c 1xfc
 55.5 -1 17 19 17 31 c 0
 17 38.5 28.5 56.5 33.5 56.5 c 0
 39.5 56.5 65.5 32.5 113.5 32.5 c 0
 149 32.5 174.5 54.5 174.5 87.5 c 0
 174.5 125 140.5 137 104.5 151 c 0
 65 166.5 23.5 181.5 23.5 243 c 0
 23.5 293 64.5 329 127 329 c 0
 153.5 329 202 317.5 202 300.5 c 0
 202 293.5 191.5 276 187 276 c 0
 180 276 162.5 293.5 126 293.5 c 0
 91 293.5 65.5 275 65.5 241 c 0
 65.5 207 95.5 198 129 185.5 c 0
 170.5 169.5 217 151 217 87.5 c 0
EndSplineSet
Substitution2: "'locl' Localized Forms in Latin lookup 8 subtable" Scommaaccent
Substitution2: "'locl' Localized Forms in Latin lookup 7 subtable" Scommaaccent
Substitution2: "'aalt' Access All Alternates lookup 0 subtable" Scommaaccent
Position2: "'cpsp' Capital Spacing lookup 0 subtable" dx=5 dy=0 dh=10 dv=0
EndChar

StartChar: Scircumflex
Encoding: 348 348 144
Width: 233
VWidth: 466
GlyphClass: 2
Flags: MW
HStem: -3 35.5<89.5 131.25 89.5 145> 293.5 35.5<108.5 140.25 95.75 144.25> 391.5 25.5<116 116>
VStem: 23.5 42<224 258 224 268> 174.5 42.5<71 106.25>
AnchorPoint: "Anchor-1" 193 373 basechar 0
AnchorPoint: "Anchor-0" 117 0 basechar 0
LayerCount: 2
Back
Fore
SplineSet
71 351 m 2
 64 351 60.5 353 60.5 357.5 c 0
 60.5 360 61 362.5 63 366 c 2
 89 407 l 2
 94 414 101.5 417 110.5 417 c 2
 122.5 417 l 2
 131.5 417 139 414 143.5 407 c 2
 170.5 366 l 2
 172 363 173 360 173 358 c 0
 173 353.5 169.5 351 162 351 c 2
 161 351 l 2
 155 351 150 353 145.5 357 c 2
 116 391.5 l 1
 88 357 l 2
 83 353 78.5 351 72 351 c 2
 71 351 l 2
113.5 -3 m 0
 59 -3 17 18.5 17 31 c 0
 17 38.5 28.5 56.5 33.5 56.5 c 0
 39.5 56.5 65.5 32.5 113.5 32.5 c 0
 149 32.5 174.5 54.5 174.5 87.5 c 0
 174.5 125 140.5 137 104.5 151 c 0
 65 166.5 23.5 181.5 23.5 243 c 0
 23.5 293 64.5 329 127 329 c 0
 153.5 329 202 317.5 202 300.5 c 0
 202 293.5 191.5 276 187 276 c 0
 180 276 162.5 293.5 126 293.5 c 0
 91 293.5 65.5 275 65.5 241 c 0
 65.5 207 95.5 198 129 185.5 c 0
 170.5 169.5 217 151 217 87.5 c 0
 217 31.5 176.5 -3 113.5 -3 c 0
EndSplineSet
Position2: "'cpsp' Capital Spacing lookup 0 subtable" dx=5 dy=0 dh=10 dv=0
EndChar

StartChar: Scommaaccent
Encoding: 536 536 145
Width: 233
VWidth: 466
GlyphClass: 2
Flags: MW
HStem: -109.5 21G<86.5 96.75> -3 35.5<89.5 131.25 89.5 145> 293.5 35.5<108.5 140.25 95.75 144.25>
VStem: 23.5 42<224 258 224 268> 95.5 41.5<-56.25 -34.25> 174.5 42.5<71 106.25>
AnchorPoint: "Anchor-1" 117 326 basechar 0
AnchorPoint: "Anchor-0" 115 -95 basechar 0
LayerCount: 2
Back
Fore
SplineSet
113.5 -3 m 0
 59 -3 17 18.5 17 31 c 0
 17 38.5 28.5 56.5 33.5 56.5 c 0
 39.5 56.5 65.5 32.5 113.5 32.5 c 0
 149 32.5 174.5 54.5 174.5 87.5 c 0
 174.5 125 140.5 137 104.5 151 c 0
 65 166.5 23.5 181.5 23.5 243 c 0
 23.5 293 64.5 329 127 329 c 0
 153.5 329 202 317.5 202 300.5 c 0
 202 293.5 191.5 276 187 276 c 0
 180 276 162.5 293.5 126 293.5 c 0
 91 293.5 65.5 275 65.5 241 c 0
 65.5 207 95.5 198 129 185.5 c 0
 170.5 169.5 217 151 217 87.5 c 0
 217 31.5 176.5 -3 113.5 -3 c 0
89 -109.5 m 0xfc
 84 -109.5 75.5 -108 75.5 -102.5 c 0
 75.5 -92 95.5 -74 95.5 -38.5 c 0
 95.5 -30 101.5 -24 114 -24 c 2
 118.5 -24 l 2
 130 -24 137 -29 137 -37 c 0
 137 -81.5 104.5 -109.5 89 -109.5 c 0xfc
EndSplineSet
Position2: "'cpsp' Capital Spacing lookup 0 subtable" dx=5 dy=0 dh=10 dv=0
EndChar

StartChar: uni1E62
Encoding: 7778 7778 146
Width: 233
VWidth: 466
GlyphClass: 2
Flags: MW
HStem: -81.5 34<98 124> -3 35.5<89.5 131.25 89.5 145> 293.5 35.5<108.5 140.25 95.75 144.25>
VStem: 23.5 42<224 258 224 268> 98 39<-71.5 -47.5 -74.5 -44.5> 174.5 42.5<71 106.25>
AnchorPoint: "Anchor-1" 117 326 basechar 0
AnchorPoint: "Anchor-0" 117 -95 basechar 0
LayerCount: 2
Back
Fore
SplineSet
113.5 -3 m 0
 59 -3 17 18.5 17 31 c 0
 17 38.5 28.5 56.5 33.5 56.5 c 0
 39.5 56.5 65.5 32.5 113.5 32.5 c 0
 149 32.5 174.5 54.5 174.5 87.5 c 0
 174.5 125 140.5 137 104.5 151 c 0
 65 166.5 23.5 181.5 23.5 243 c 0
 23.5 293 64.5 329 127 329 c 0
 153.5 329 202 317.5 202 300.5 c 0
 202 293.5 191.5 276 187 276 c 0
 180 276 162.5 293.5 126 293.5 c 0
 91 293.5 65.5 275 65.5 241 c 0
 65.5 207 95.5 198 129 185.5 c 0
 170.5 169.5 217 151 217 87.5 c 0
 217 31.5 176.5 -3 113.5 -3 c 0
116.5 -81.5 m 0
 103.5 -81.5 98 -78 98 -71.5 c 2
 98 -47.5 l 2
 98 -41.5 103.5 -37.5 118.5 -37.5 c 0
 131.5 -37.5 137 -41 137 -47.5 c 2
 137 -71.5 l 2
 137 -77.5 131.5 -81.5 116.5 -81.5 c 0
EndSplineSet
Position2: "'cpsp' Capital Spacing lookup 0 subtable" dx=5 dy=0 dh=10 dv=0
EndChar

StartChar: uni1E9E
Encoding: 7838 7838 147
Width: 326
VWidth: 466
GlyphClass: 2
Flags: MW
HStem: -3 34<178.75 210.25 178.75 223> 156.5 30.5<166.5 176 166.5 192.5> 293.5 35.5<171 171>
VStem: 43 41<9.5 200> 267 40.5<69.75 118.75>
LayerCount: 2
Back
Fore
SplineSet
199 -3 m 0
 153 -3 132.5 12 119.5 24 c 1
 119.5 32.5 130.5 47 135.5 47 c 0
 155 47 162 31 195.5 31 c 0
 225 31 267 44.5 267 95 c 0
 267 142.5 237 156.5 192.5 156.5 c 2
 176 156.5 l 2
 171.5 156.5 165 172 165 181.5 c 0
 165 183.5 165.5 185.5 166.5 187 c 2
 237 284 l 1
 222 289 200 293.5 171.5 293.5 c 0
 112 293.5 84 265.5 84 200 c 2
 84 9.5 l 2
 84 3 78.5 -1 65 -1 c 2
 61.5 -1 l 2
 48.5 -1 43 3 43 9.5 c 2
 43 200.5 l 2
 43 285.5 87 329.5 170.5 329 c 0
 215 327.5 254.5 319.5 278 312.5 c 0
 281.5 312 288.5 298 288.5 288 c 0
 288.5 285.5 288 284 287 282.5 c 2
 217 187 l 1
 270 178.5 307.5 151 307.5 94.5 c 0
 307.5 23 247 -3 199 -3 c 0
EndSplineSet
Position2: "'cpsp' Capital Spacing lookup 0 subtable" dx=5 dy=0 dh=10 dv=0
EndChar

StartChar: uni018F
Encoding: 399 399 148
Width: 313
VWidth: 466
GlyphClass: 2
Flags: MW
HStem: -4 33.5<114.75 168.75 114.75 184.25> 135.5 33.5<62.5 230 62.5 62.5> 295.5 33.5<111.25 168.5>
VStem: 21 41.5<99.75 135.5 99.75 152.75> 230 42<135.5 135.5 169 169>
LayerCount: 2
Back
Fore
SplineSet
140.5 -4 m 0
 60 -4 21 48 21 150 c 0
 21 155.5 31 169 36.5 169 c 2
 230 169 l 1
 224.5 257 197 295.5 140 295.5 c 0
 82.5 295.5 51.5 266.5 44 266.5 c 0
 37.5 266.5 27.5 284.5 27.5 290 c 0
 27.5 305 75.5 329 139.5 329 c 0
 229.5 329 272 274 272 154.5 c 0
 272 49.5 228 -4 140.5 -4 c 0
141.5 29.5 m 0
 196 29.5 227 64 230 135.5 c 1
 62.5 135.5 l 1
 62.5 64 88 29.5 141.5 29.5 c 0
EndSplineSet
Position2: "'cpsp' Capital Spacing lookup 0 subtable" dx=5 dy=0 dh=10 dv=0
EndChar

StartChar: T
Encoding: 84 84 149
Width: 256
VWidth: 466
GlyphClass: 2
Flags: MW
HStem: -1 21G<120.25 127 127 130.5> 291 35<15.25 237 18.5 108 149 149 149 237>
VStem: 108 41<9.5 291>
AnchorPoint: "Anchor-1" 128 326 basechar 0
AnchorPoint: "Anchor-0" 128 0 basechar 0
LayerCount: 2
Back
Fore
SplineSet
127 -1 m 2
 113.5 -1 108 3 108 9.5 c 2
 108 291 l 1
 18.5 291 l 2
 12 291 9.5 295 9.5 305 c 2
 9.5 312 l 2
 9.5 322 12 326 18.5 326 c 2
 237 326 l 2
 243.5 326 246.5 322 246.5 312 c 2
 246.5 305 l 2
 246.5 295 243.5 291 237 291 c 2
 149 291 l 1
 149 9.5 l 2
 149 3 143.5 -1 130.5 -1 c 2
 127 -1 l 2
EndSplineSet
Position2: "'cpsp' Capital Spacing lookup 0 subtable" dx=5 dy=0 dh=10 dv=0
EndChar

StartChar: Tbar
Encoding: 358 358 150
Width: 256
VWidth: 466
GlyphClass: 2
Flags: MW
HStem: -1 21G<120.25 127 127 130.5> 148.5 32.5<41.75 108 45 108 149 214> 291 35<15.25 237 18.5 108 149 237 149 149>
VStem: 108 41<9.5 148.5 181 291>
AnchorPoint: "Anchor-1" 128 326 basechar 0
AnchorPoint: "Anchor-0" 128 0 basechar 0
LayerCount: 2
Back
Fore
SplineSet
237 326 m 2
 243.5 326 246.5 322 246.5 312 c 2
 246.5 305 l 2
 246.5 295 243.5 291 237 291 c 2
 149 291 l 1
 149 181 l 1
 214 181 l 2
 221 181 223.5 176.5 223.5 167 c 2
 223.5 162.5 l 2
 223.5 152.5 221 148.5 214 148.5 c 2
 149 148.5 l 1
 149 9.5 l 2
 149 3 143.5 -1 130.5 -1 c 2
 127 -1 l 2
 113.5 -1 108 3 108 9.5 c 2
 108 148.5 l 1
 45 148.5 l 2
 38.5 148.5 36 152.5 36 162.5 c 2
 36 167 l 2
 36 176.5 38.5 181 45 181 c 2
 108 181 l 1
 108 291 l 1
 18.5 291 l 2
 12 291 9.5 295 9.5 305 c 2
 9.5 312 l 2
 9.5 322 12 326 18.5 326 c 2
 237 326 l 2
EndSplineSet
Position2: "'cpsp' Capital Spacing lookup 0 subtable" dx=5 dy=0 dh=10 dv=0
EndChar

StartChar: Tcaron
Encoding: 356 356 151
Width: 256
VWidth: 466
GlyphClass: 2
Flags: MW
HStem: -1 21G<120.25 127 127 130.5> 291 35<15.25 237 18.5 108 149 149 149 237> 353.5 26<117.5 127.5 127.5 127.5 127.5 134>
VStem: 108 41<9.5 291>
AnchorPoint: "Anchor-1" 128 326 basechar 0
AnchorPoint: "Anchor-0" 128 0 basechar 0
LayerCount: 2
Back
Fore
SplineSet
122 353.5 m 2
 113 353.5 105.5 357 100.5 364 c 2
 74.5 405 l 2
 72.5 408 72 411 72 413.5 c 0
 72 417.5 75.5 420 82.5 420 c 2
 83.5 420 l 2
 90 420 94.5 418 99.5 414 c 2
 127.5 379.5 l 1
 157 414 l 2
 161.5 418 166.5 420 172.5 420 c 2
 173.5 420 l 2
 181 420 184.5 417 184.5 413 c 0
 184.5 410.5 183.5 408 182 405 c 2
 155 364 l 2
 150.5 357 143 353.5 134 353.5 c 2
 122 353.5 l 2
127 -1 m 2
 113.5 -1 108 3 108 9.5 c 2
 108 291 l 1
 18.5 291 l 2
 12 291 9.5 295 9.5 305 c 2
 9.5 312 l 2
 9.5 322 12 326 18.5 326 c 2
 237 326 l 2
 243.5 326 246.5 322 246.5 312 c 2
 246.5 305 l 2
 246.5 295 243.5 291 237 291 c 2
 149 291 l 1xd0
 149 9.5 l 2
 149 3 143.5 -1 130.5 -1 c 2
 127 -1 l 2
EndSplineSet
Position2: "'cpsp' Capital Spacing lookup 0 subtable" dx=5 dy=0 dh=10 dv=0
EndChar

StartChar: uni0162
Encoding: 354 354 152
Width: 256
VWidth: 466
GlyphClass: 2
Flags: MW
HStem: -98 23<110 120 105.75 132.25> -0.5 21G<139 139> 291 35<15.25 237 18.5 108 149 237 149 149>
VStem: 108 41<9.5 291> 141 33<-65.75 -48>
AnchorPoint: "Anchor-1" 128 326 basechar 0
AnchorPoint: "Anchor-0" 128 0 basechar 0
LayerCount: 2
Back
Fore
SplineSet
237 326 m 2xf0
 243.5 326 246.5 322 246.5 312 c 2
 246.5 305 l 2
 246.5 295 243.5 291 237 291 c 2
 149 291 l 1
 149 9.5 l 2
 149 4.5 146 1 139 -0.5 c 1xf0
 132.5 -23 l 1
 134.5 -23 l 2
 145 -23 174 -26 174 -56.5 c 0
 174 -92.5 144 -98 120.5 -98 c 0
 99.5 -98 67 -90.5 67 -78 c 0
 67 -72 69 -65.5 76 -65.5 c 0
 83.5 -65.5 97 -75 114.5 -75 c 0
 125.5 -75 141 -73 141 -58.5 c 0
 141 -37.5 110.5 -44.5 110.5 -31.5 c 0xe8
 110.5 -28 111 -24.5 119 -0.5 c 1
 111 1 108 4.5 108 9.5 c 2
 108 291 l 1
 18.5 291 l 2
 12 291 9.5 295 9.5 305 c 2
 9.5 312 l 2
 9.5 322 12 326 18.5 326 c 2
 237 326 l 2xf0
EndSplineSet
Substitution2: "'locl' Localized Forms in Latin lookup 8 subtable" uni021A
Substitution2: "'locl' Localized Forms in Latin lookup 7 subtable" uni021A
Substitution2: "'aalt' Access All Alternates lookup 0 subtable" uni021A
Position2: "'cpsp' Capital Spacing lookup 0 subtable" dx=5 dy=0 dh=10 dv=0
EndChar

StartChar: uni021A
Encoding: 538 538 153
Width: 256
VWidth: 466
GlyphClass: 2
Flags: MW
HStem: -109.5 21G<98 108.25> -1 21G<120.25 127 127 130.5> 291 35<15.25 237 18.5 108 149 149 149 237>
VStem: 108 41<9.5 291>
AnchorPoint: "Anchor-1" 128 326 basechar 0
AnchorPoint: "Anchor-0" 126 -95 basechar 0
LayerCount: 2
Back
Fore
SplineSet
127 -1 m 2
 113.5 -1 108 3 108 9.5 c 2
 108 291 l 1
 18.5 291 l 2
 12 291 9.5 295 9.5 305 c 2
 9.5 312 l 2
 9.5 322 12 326 18.5 326 c 2
 237 326 l 2
 243.5 326 246.5 322 246.5 312 c 2
 246.5 305 l 2
 246.5 295 243.5 291 237 291 c 2
 149 291 l 1
 149 9.5 l 2
 149 3 143.5 -1 130.5 -1 c 2
 127 -1 l 2
100.5 -109.5 m 0
 95.5 -109.5 87 -108 87 -102.5 c 0
 87 -92 107 -74 107 -38.5 c 0
 107 -30 113 -24 125.5 -24 c 2
 130 -24 l 2
 141.5 -24 148.5 -29 148.5 -37 c 0
 148.5 -81.5 116 -109.5 100.5 -109.5 c 0
EndSplineSet
Position2: "'cpsp' Capital Spacing lookup 0 subtable" dx=5 dy=0 dh=10 dv=0
EndChar

StartChar: uni1E6C
Encoding: 7788 7788 154
Width: 256
VWidth: 466
GlyphClass: 2
Flags: MW
HStem: -81.5 34<109.5 135.5> -1 21G<120.25 127 127 130.5> 291 35<15.25 237 18.5 108 149 149 149 237>
VStem: 108 41<9.5 291>
AnchorPoint: "Anchor-1" 128 326 basechar 0
AnchorPoint: "Anchor-0" 128 -95 basechar 0
LayerCount: 2
Back
Fore
SplineSet
127 -1 m 2
 113.5 -1 108 3 108 9.5 c 2
 108 291 l 1
 18.5 291 l 2
 12 291 9.5 295 9.5 305 c 2
 9.5 312 l 2
 9.5 322 12 326 18.5 326 c 2
 237 326 l 2
 243.5 326 246.5 322 246.5 312 c 2
 246.5 305 l 2
 246.5 295 243.5 291 237 291 c 2
 149 291 l 1
 149 9.5 l 2
 149 3 143.5 -1 130.5 -1 c 2
 127 -1 l 2
128 -81.5 m 0
 115 -81.5 109.5 -78 109.5 -71.5 c 2
 109.5 -47.5 l 2
 109.5 -41.5 115 -37.5 130 -37.5 c 0
 143 -37.5 148.5 -41 148.5 -47.5 c 2
 148.5 -71.5 l 2
 148.5 -77.5 143 -81.5 128 -81.5 c 0
EndSplineSet
Position2: "'cpsp' Capital Spacing lookup 0 subtable" dx=5 dy=0 dh=10 dv=0
EndChar

StartChar: U
Encoding: 85 85 155
Width: 332
VWidth: 466
GlyphClass: 2
Flags: MW
HStem: -3 35.5<141.25 191 141.25 207> 307 20G<57.5 61 61 67.5 270.5 274.5 274.5 281>
VStem: 38.5 41<104.5 317> 252 41<103 104.5 104.5 317>
AnchorPoint: "Anchor-1" 166 326 basechar 0
AnchorPoint: "Anchor-0" 167 0 basechar 0
LayerCount: 2
Back
Fore
SplineSet
166 -3 m 0
 83.5 -3 38.5 37.5 38.5 104.5 c 2
 38.5 317 l 2
 38.5 323.5 44.5 327 57.5 327 c 2
 61 327 l 2
 74 327 79.5 323.5 79.5 317 c 2
 79.5 103 l 2
 79.5 61.5 116.5 32.5 166 32.5 c 0
 216 32.5 252 62 252 103 c 2
 252 317 l 2
 252 323.5 257.5 327 270.5 327 c 2
 274.5 327 l 2
 287.5 327 293 323.5 293 317 c 2
 293 104.5 l 2
 293 37.5 248 -3 166 -3 c 0
EndSplineSet
Position2: "'cpsp' Capital Spacing lookup 0 subtable" dx=5 dy=0 dh=10 dv=0
EndChar

StartChar: Uacute
Encoding: 218 218 156
Width: 332
VWidth: 466
GlyphClass: 2
Flags: MW
HStem: -3 35.5<141.25 191 141.25 207> 307 20G<57.5 61 61 67.5 270.5 274.5 274.5 281> 355 68.5<154.25 211>
VStem: 38.5 41<104.5 317> 252 41<103 104.5 104.5 317>
AnchorPoint: "Anchor-1" 166 326 basechar 0
AnchorPoint: "Anchor-0" 167 0 basechar 0
LayerCount: 2
Back
Fore
SplineSet
158 355 m 0
 150.5 355 147.5 356.5 147.5 360 c 0
 147.5 364.5 153 374 174.5 411.5 c 0
 179.5 420.5 188.5 423.5 203.5 423.5 c 0
 218.5 423.5 226 422 226 417.5 c 0
 226 412.5 221 408 182 363.5 c 0
 177 358 168 355 158 355 c 0
166 -3 m 0
 83.5 -3 38.5 37.5 38.5 104.5 c 2
 38.5 317 l 2
 38.5 323.5 44.5 327 57.5 327 c 2
 61 327 l 2
 74 327 79.5 323.5 79.5 317 c 2
 79.5 103 l 2
 79.5 61.5 116.5 32.5 166 32.5 c 0
 216 32.5 252 62 252 103 c 2
 252 317 l 2
 252 323.5 257.5 327 270.5 327 c 2
 274.5 327 l 2
 287.5 327 293 323.5 293 317 c 2xd8
 293 104.5 l 2
 293 37.5 248 -3 166 -3 c 0
EndSplineSet
Position2: "'cpsp' Capital Spacing lookup 0 subtable" dx=5 dy=0 dh=10 dv=0
EndChar

StartChar: Ubreve
Encoding: 364 364 157
Width: 332
VWidth: 466
GlyphClass: 2
Flags: MW
HStem: -3 35.5<141.25 191 141.25 207> 307 20G<57.5 61 61 67.5 270.5 274.5 274.5 281> 355 49
VStem: 38.5 41<104.5 317> 98.5 134.5<390.75 411> 252 41<103 104.5 104.5 317>
AnchorPoint: "Anchor-1" 166 395 basechar 0
AnchorPoint: "Anchor-0" 167 0 basechar 0
LayerCount: 2
Back
Fore
SplineSet
166 355 m 0
 132.5 355 98.5 373 98.5 408.5 c 0
 98.5 413.5 100.5 415.5 105.5 415.5 c 0
 113.5 415.5 112 411.5 116 404 c 0
 123 391 143.5 386 166 386 c 0
 189 386 209 391 216 404 c 0
 219.5 411.5 218.5 415.5 226 415.5 c 0
 231.5 415.5 233 413.5 233 408.5 c 0
 233 373 199 355 166 355 c 0
166 -3 m 0xd4
 83.5 -3 38.5 37.5 38.5 104.5 c 2
 38.5 317 l 2
 38.5 323.5 44.5 327 57.5 327 c 2
 61 327 l 2
 74 327 79.5 323.5 79.5 317 c 2
 79.5 103 l 2
 79.5 61.5 116.5 32.5 166 32.5 c 0
 216 32.5 252 62 252 103 c 2
 252 317 l 2
 252 323.5 257.5 327 270.5 327 c 2
 274.5 327 l 2
 287.5 327 293 323.5 293 317 c 2
 293 104.5 l 2
 293 37.5 248 -3 166 -3 c 0xd4
EndSplineSet
Position2: "'cpsp' Capital Spacing lookup 0 subtable" dx=5 dy=0 dh=10 dv=0
EndChar

StartChar: Ucircumflex
Encoding: 219 219 158
Width: 332
VWidth: 466
GlyphClass: 2
Flags: MW
HStem: -3 35.5<141.25 191 141.25 207> 307 20G<57.5 61 61 67.5 270.5 274.5 274.5 281> 391.5 25.5<165.5 165.5>
VStem: 38.5 41<104.5 317> 252 41<103 104.5 104.5 317>
AnchorPoint: "Anchor-1" 242 373 basechar 0
AnchorPoint: "Anchor-0" 167 0 basechar 0
LayerCount: 2
Back
Fore
SplineSet
120.5 351 m 2
 113.5 351 110 353 110 357.5 c 0
 110 360 110.5 362.5 112.5 366 c 2
 138.5 407 l 2
 143.5 414 151 417 160 417 c 2
 172 417 l 2
 181 417 188.5 414 193 407 c 2
 220 366 l 2
 221.5 363 222.5 360 222.5 358 c 0
 222.5 353.5 219 351 211.5 351 c 2
 210.5 351 l 2
 204.5 351 199.5 353 195 357 c 2
 165.5 391.5 l 1
 137.5 357 l 2
 132.5 353 128 351 121.5 351 c 2
 120.5 351 l 2
166 -3 m 0
 83.5 -3 38.5 37.5 38.5 104.5 c 2
 38.5 317 l 2
 38.5 323.5 44.5 327 57.5 327 c 2
 61 327 l 2
 74 327 79.5 323.5 79.5 317 c 2
 79.5 103 l 2
 79.5 61.5 116.5 32.5 166 32.5 c 0
 216 32.5 252 62 252 103 c 2
 252 317 l 2
 252 323.5 257.5 327 270.5 327 c 2
 274.5 327 l 2
 287.5 327 293 323.5 293 317 c 2
 293 104.5 l 2
 293 37.5 248 -3 166 -3 c 0
EndSplineSet
Position2: "'cpsp' Capital Spacing lookup 0 subtable" dx=5 dy=0 dh=10 dv=0
EndChar

StartChar: Udieresis
Encoding: 220 220 159
Width: 332
VWidth: 466
GlyphClass: 2
Flags: MW
HStem: -3 35.5<141.25 191 141.25 207> 307 20G<57.5 61 61 67.5 270.5 274.5 274.5 281> 365.5 34<113 139>
VStem: 38.5 41<104.5 317> 113 39<375.5 399.5 372.5 402.5> 180 39<375.5 399.5 372.5 402.5> 252 41<103 104.5 104.5 317>
AnchorPoint: "Anchor-1" 166 326 basechar 0
AnchorPoint: "Anchor-0" 167 0 basechar 0
LayerCount: 2
Back
Fore
SplineSet
131.5 365.5 m 0
 118.5 365.5 113 369 113 375.5 c 2
 113 399.5 l 2
 113 405.5 118.5 409.5 133.5 409.5 c 0
 146.5 409.5 152 406 152 399.5 c 2
 152 375.5 l 2
 152 369.5 146.5 365.5 131.5 365.5 c 0
198.5 365.5 m 0xfe
 185.5 365.5 180 369 180 375.5 c 2
 180 399.5 l 2
 180 405.5 185.5 409.5 200.5 409.5 c 0
 213.5 409.5 219 406 219 399.5 c 2
 219 375.5 l 2
 219 369.5 213.5 365.5 198.5 365.5 c 0xfe
166 -3 m 0
 83.5 -3 38.5 37.5 38.5 104.5 c 2
 38.5 317 l 2
 38.5 323.5 44.5 327 57.5 327 c 2
 61 327 l 2
 74 327 79.5 323.5 79.5 317 c 2
 79.5 103 l 2
 79.5 61.5 116.5 32.5 166 32.5 c 0
 216 32.5 252 62 252 103 c 2
 252 317 l 2
 252 323.5 257.5 327 270.5 327 c 2
 274.5 327 l 2
 287.5 327 293 323.5 293 317 c 2
 293 104.5 l 2
 293 37.5 248 -3 166 -3 c 0
EndSplineSet
Position2: "'cpsp' Capital Spacing lookup 0 subtable" dx=5 dy=0 dh=10 dv=0
EndChar

StartChar: uni1EE4
Encoding: 7908 7908 160
Width: 332
VWidth: 466
GlyphClass: 2
Flags: MW
HStem: -81.5 34<148 174> -3 35.5<141.25 191 141.25 207> 307 20G<57.5 61 61 67.5 270.5 274.5 274.5 281>
VStem: 38.5 41<104.5 317> 148 39<-71.5 -47.5 -74.5 -44.5> 252 41<103 104.5 104.5 317>
AnchorPoint: "Anchor-1" 166 326 basechar 0
AnchorPoint: "Anchor-0" 167 -95 basechar 0
LayerCount: 2
Back
Fore
SplineSet
166 -3 m 0
 83.5 -3 38.5 37.5 38.5 104.5 c 2
 38.5 317 l 2
 38.5 323.5 44.5 327 57.5 327 c 2
 61 327 l 2
 74 327 79.5 323.5 79.5 317 c 2
 79.5 103 l 2
 79.5 61.5 116.5 32.5 166 32.5 c 0
 216 32.5 252 62 252 103 c 2
 252 317 l 2
 252 323.5 257.5 327 270.5 327 c 2
 274.5 327 l 2
 287.5 327 293 323.5 293 317 c 2
 293 104.5 l 2
 293 37.5 248 -3 166 -3 c 0
166.5 -81.5 m 0
 153.5 -81.5 148 -78 148 -71.5 c 2
 148 -47.5 l 2
 148 -41.5 153.5 -37.5 168.5 -37.5 c 0
 181.5 -37.5 187 -41 187 -47.5 c 2
 187 -71.5 l 2
 187 -77.5 181.5 -81.5 166.5 -81.5 c 0
EndSplineSet
Position2: "'cpsp' Capital Spacing lookup 0 subtable" dx=5 dy=0 dh=10 dv=0
EndChar

StartChar: Ugrave
Encoding: 217 217 161
Width: 332
VWidth: 466
GlyphClass: 2
Flags: MW
HStem: -3 35.5<141.25 191 141.25 207> 307 20G<57.5 61 61 67.5 270.5 274.5 274.5 281> 355 68.5<126 182.25>
VStem: 38.5 41<104.5 317> 252 41<103 104.5 104.5 317>
AnchorPoint: "Anchor-1" 166 326 basechar 0
AnchorPoint: "Anchor-0" 167 0 basechar 0
LayerCount: 2
Back
Fore
SplineSet
178.5 355 m 0
 169 355 160 358 155 363.5 c 0
 115.5 408 111 412.5 111 417.5 c 0
 111 422 118.5 423.5 133.5 423.5 c 0
 148.5 423.5 157 420.5 162 411.5 c 0
 183.5 374 189.5 364.5 189.5 360 c 0
 189.5 356.5 186 355 178.5 355 c 0
166 -3 m 0
 83.5 -3 38.5 37.5 38.5 104.5 c 2
 38.5 317 l 2
 38.5 323.5 44.5 327 57.5 327 c 2
 61 327 l 2
 74 327 79.5 323.5 79.5 317 c 2
 79.5 103 l 2
 79.5 61.5 116.5 32.5 166 32.5 c 0
 216 32.5 252 62 252 103 c 2
 252 317 l 2
 252 323.5 257.5 327 270.5 327 c 2
 274.5 327 l 2
 287.5 327 293 323.5 293 317 c 2xd8
 293 104.5 l 2
 293 37.5 248 -3 166 -3 c 0
EndSplineSet
Position2: "'cpsp' Capital Spacing lookup 0 subtable" dx=5 dy=0 dh=10 dv=0
EndChar

StartChar: uni1EE6
Encoding: 7910 7910 162
Width: 332
VWidth: 466
GlyphClass: 2
Flags: MW
HStem: -3 35.5<141.25 191 141.25 207> 307 20G<57.5 61 61 67.5 270.5 274.5 274.5 281> 408 24<161.25 170.25>
VStem: 38.5 41<104.5 317> 183 28.5<384 399.75> 252 41<103 104.5 104.5 317>
AnchorPoint: "Anchor-1" 166 409 basechar 0
AnchorPoint: "Anchor-0" 167 0 basechar 0
LayerCount: 2
Back
Fore
SplineSet
169.5 345 m 0
 165 345 154 348.5 154 353 c 0
 154 366.5 183 372.5 183 395.5 c 0
 183 404 175 408 165.5 408 c 0
 151 408 146.5 402 144 402 c 0
 140.5 402 133 413 133 417.5 c 0
 133 423.5 153 432 169.5 432 c 0
 185 432 211.5 424.5 211.5 399 c 0
 211.5 368 175 345 169.5 345 c 0
166 -3 m 0
 83.5 -3 38.5 37.5 38.5 104.5 c 2
 38.5 317 l 2
 38.5 323.5 44.5 327 57.5 327 c 2
 61 327 l 2
 74 327 79.5 323.5 79.5 317 c 2
 79.5 103 l 2
 79.5 61.5 116.5 32.5 166 32.5 c 0
 216 32.5 252 62 252 103 c 2
 252 317 l 2
 252 323.5 257.5 327 270.5 327 c 2
 274.5 327 l 2
 287.5 327 293 323.5 293 317 c 2
 293 104.5 l 2
 293 37.5 248 -3 166 -3 c 0
EndSplineSet
Position2: "'cpsp' Capital Spacing lookup 0 subtable" dx=5 dy=0 dh=10 dv=0
EndChar

StartChar: Uhorn
Encoding: 431 431 163
Width: 332
VWidth: 466
GlyphClass: 2
Flags: MW
HStem: -3 35.5<141.25 191 141.25 207> 312 15<293 293>
VStem: 38.5 41<104.5 317> 252 41<103 104.5 104.5 312> 312.5 28.5<341.75 342.5>
AnchorPoint: "Anchor-1" 242 383 basechar 0
AnchorPoint: "Anchor-0" 167 0 basechar 0
LayerCount: 2
Back
Fore
SplineSet
341 353.5 m 0
 341 330 326 313.5 293 312 c 1
 293 104.5 l 2
 293 37.5 248 -3 166 -3 c 0
 83.5 -3 38.5 37.5 38.5 104.5 c 2
 38.5 317 l 2
 38.5 323.5 44.5 327 57.5 327 c 2
 61 327 l 2
 74 327 79.5 323.5 79.5 317 c 2
 79.5 103 l 2
 79.5 61.5 116.5 32.5 166 32.5 c 0
 216 32.5 252 62 252 103 c 2
 252 317 l 2
 252 323.5 257.5 327 270.5 327 c 2xf0
 287 327 l 2
 307 327 312.5 335 312.5 342.5 c 0
 314 356.5 301.5 366 300 371.5 c 0
 300 374 301.5 377 304 379 c 2
 315.5 386.5 l 2
 317 387.5 319 388 321 388 c 0
 331.5 388 341 367 341 353.5 c 0
EndSplineSet
Position2: "'cpsp' Capital Spacing lookup 0 subtable" dx=5 dy=0 dh=10 dv=0
EndChar

StartChar: uni1EE8
Encoding: 7912 7912 164
Width: 332
VWidth: 466
GlyphClass: 2
Flags: MW
HStem: -3 35.5<141.25 191 141.25 207> 312 15<293 293> 355 68.5<154.25 211>
VStem: 38.5 41<104.5 317> 252 41<103 104.5 104.5 312> 312.5 28.5<341.75 342.5>
AnchorPoint: "Anchor-1" 242 383 basechar 0
AnchorPoint: "Anchor-0" 167 0 basechar 0
LayerCount: 2
Back
Fore
SplineSet
158 355 m 0
 150.5 355 147.5 356.5 147.5 360 c 0
 147.5 364.5 153 374 174.5 411.5 c 0
 179.5 420.5 188.5 423.5 203.5 423.5 c 0
 218.5 423.5 226 422 226 417.5 c 0
 226 412.5 221 408 182 363.5 c 0
 177 358 168 355 158 355 c 0
341 353.5 m 0xdc
 341 330 326 313.5 293 312 c 1
 293 104.5 l 2
 293 37.5 248 -3 166 -3 c 0
 83.5 -3 38.5 37.5 38.5 104.5 c 2
 38.5 317 l 2
 38.5 323.5 44.5 327 57.5 327 c 2
 61 327 l 2
 74 327 79.5 323.5 79.5 317 c 2
 79.5 103 l 2
 79.5 61.5 116.5 32.5 166 32.5 c 0
 216 32.5 252 62 252 103 c 2
 252 317 l 2
 252 323.5 257.5 327 270.5 327 c 2xd8
 287 327 l 2
 307 327 312.5 335 312.5 342.5 c 0
 314 356.5 301.5 366 300 371.5 c 0
 300 374 301.5 377 304 379 c 2
 315.5 386.5 l 2
 317 387.5 319 388 321 388 c 0
 331.5 388 341 367 341 353.5 c 0xdc
EndSplineSet
Position2: "'cpsp' Capital Spacing lookup 0 subtable" dx=5 dy=0 dh=10 dv=0
EndChar

StartChar: uni1EF0
Encoding: 7920 7920 165
Width: 332
VWidth: 466
GlyphClass: 2
Flags: MW
HStem: -71.5 34<148 175 161 187> -3 35.5<141.25 191 141.25 207> 312 15<293 293>
VStem: 38.5 41<104.5 317> 148 39<-71.5 -47.5 -74.5 -44.5> 252 41<103 104.5 104.5 312> 312.5 28.5<341.75 342.5>
AnchorPoint: "Anchor-1" 242 383 basechar 0
AnchorPoint: "Anchor-0" 167 -95 basechar 0
LayerCount: 2
Back
Fore
SplineSet
341 353.5 m 0
 341 330 326 313.5 293 312 c 1
 293 104.5 l 2
 293 37.5 248 -3 166 -3 c 0
 83.5 -3 38.5 37.5 38.5 104.5 c 2
 38.5 317 l 2
 38.5 323.5 44.5 327 57.5 327 c 2
 61 327 l 2
 74 327 79.5 323.5 79.5 317 c 2
 79.5 103 l 2
 79.5 61.5 116.5 32.5 166 32.5 c 0
 216 32.5 252 62 252 103 c 2
 252 317 l 2
 252 323.5 257.5 327 270.5 327 c 2xfc
 287 327 l 2
 307 327 312.5 335 312.5 342.5 c 0
 314 356.5 301.5 366 300 371.5 c 0
 300 374 301.5 377 304 379 c 2
 315.5 386.5 l 2
 317 387.5 319 388 321 388 c 0
 331.5 388 341 367 341 353.5 c 0
168.5 -37.5 m 0xfc
 181.5 -37.5 187 -41 187 -47.5 c 2
 187 -71.5 l 2
 187 -77.5 181.5 -81.5 166.5 -81.5 c 0
 153.5 -81.5 148 -78 148 -71.5 c 2
 148 -47.5 l 2
 148 -41.5 153.5 -37.5 168.5 -37.5 c 0xfc
EndSplineSet
Position2: "'cpsp' Capital Spacing lookup 0 subtable" dx=5 dy=0 dh=10 dv=0
EndChar

StartChar: uni1EEA
Encoding: 7914 7914 166
Width: 332
VWidth: 466
GlyphClass: 2
Flags: MW
HStem: -3 35.5<141.25 191 141.25 207> 312 15<293 293> 355 68.5<126 182.25>
VStem: 38.5 41<104.5 317> 252 41<103 104.5 104.5 312> 312.5 28.5<341.75 342.5>
AnchorPoint: "Anchor-1" 242 383 basechar 0
AnchorPoint: "Anchor-0" 167 0 basechar 0
LayerCount: 2
Back
Fore
SplineSet
178.5 355 m 0
 169 355 160 358 155 363.5 c 0
 115.5 408 111 412.5 111 417.5 c 0
 111 422 118.5 423.5 133.5 423.5 c 0
 148.5 423.5 157 420.5 162 411.5 c 0
 183.5 374 189.5 364.5 189.5 360 c 0
 189.5 356.5 186 355 178.5 355 c 0
341 353.5 m 0xdc
 341 330 326 313.5 293 312 c 1
 293 104.5 l 2
 293 37.5 248 -3 166 -3 c 0
 83.5 -3 38.5 37.5 38.5 104.5 c 2
 38.5 317 l 2
 38.5 323.5 44.5 327 57.5 327 c 2
 61 327 l 2
 74 327 79.5 323.5 79.5 317 c 2
 79.5 103 l 2
 79.5 61.5 116.5 32.5 166 32.5 c 0
 216 32.5 252 62 252 103 c 2
 252 317 l 2
 252 323.5 257.5 327 270.5 327 c 2xd8
 287 327 l 2
 307 327 312.5 335 312.5 342.5 c 0
 314 356.5 301.5 366 300 371.5 c 0
 300 374 301.5 377 304 379 c 2
 315.5 386.5 l 2
 317 387.5 319 388 321 388 c 0
 331.5 388 341 367 341 353.5 c 0xdc
EndSplineSet
Position2: "'cpsp' Capital Spacing lookup 0 subtable" dx=5 dy=0 dh=10 dv=0
EndChar

StartChar: uni1EEC
Encoding: 7916 7916 167
Width: 332
VWidth: 466
GlyphClass: 2
Flags: MW
HStem: -3 35.5<141.25 191 141.25 207> 312 15<293 293> 408 24<161.25 170.25>
VStem: 38.5 41<104.5 317> 183 28.5<384 399.75> 252 41<103 104.5 104.5 312> 312.5 28.5<341.75 342.5>
AnchorPoint: "Anchor-1" 242 383 basechar 0
AnchorPoint: "Anchor-0" 167 0 basechar 0
LayerCount: 2
Back
Fore
SplineSet
144 402 m 0
 140.5 402 133 413 133 417.5 c 0
 133 423.5 153 432 169.5 432 c 0
 185 432 211.5 424.5 211.5 399 c 0
 211.5 368 175 345 169.5 345 c 0
 165 345 154 348.5 154 353 c 0
 154 366.5 183 372.5 183 395.5 c 0
 183 404 175 408 165.5 408 c 0
 151 408 146.5 402 144 402 c 0
341 353.5 m 0xfe
 341 330 326 313.5 293 312 c 1
 293 104.5 l 2
 293 37.5 248 -3 166 -3 c 0
 83.5 -3 38.5 37.5 38.5 104.5 c 2
 38.5 317 l 2
 38.5 323.5 44.5 327 57.5 327 c 2
 61 327 l 2
 74 327 79.5 323.5 79.5 317 c 2
 79.5 103 l 2
 79.5 61.5 116.5 32.5 166 32.5 c 0
 216 32.5 252 62 252 103 c 2
 252 317 l 2
 252 323.5 257.5 327 270.5 327 c 2xfc
 287 327 l 2
 307 327 312.5 335 312.5 342.5 c 0
 314 356.5 301.5 366 300 371.5 c 0
 300 374 301.5 377 304 379 c 2
 315.5 386.5 l 2
 317 387.5 319 388 321 388 c 0
 331.5 388 341 367 341 353.5 c 0xfe
EndSplineSet
Position2: "'cpsp' Capital Spacing lookup 0 subtable" dx=5 dy=0 dh=10 dv=0
EndChar

StartChar: uni1EEE
Encoding: 7918 7918 168
Width: 332
VWidth: 466
GlyphClass: 2
Flags: MW
HStem: -3 35.5<141.25 191 141.25 207> 312 15<293 293> 358 26<199.5 214.75 199.5 219> 378 26<123.25 138>
VStem: 38.5 41<104.5 317> 252 41<103 104.5 104.5 312> 312.5 28.5<341.75 342.5>
AnchorPoint: "Anchor-1" 242 383 basechar 0
AnchorPoint: "Anchor-0" 167 0 basechar 0
LayerCount: 2
Back
Fore
SplineSet
89.5 360 m 2xec
 86.5 361.5 85.5 363.5 85.5 366 c 0
 85.5 367.5 86 369.5 87 372 c 0
 97 395.5 110.5 404 130 404 c 0xdc
 157 404 188.5 384 210.5 384 c 0
 219 384 224.5 387.5 231 397.5 c 0
 234.5 402.5 237 404.5 240.5 404.5 c 0
 242 404.5 243 404 245.5 403 c 2
 248.5 401.5 l 2
 252.5 400.5 254 398.5 254 396 c 0
 254 394.5 253.5 392.5 252.5 389.5 c 0
 242 366.5 228.5 358 209.5 358 c 0xec
 181 358 149 378 127 378 c 0xdc
 119.5 378 114.5 374 108 364 c 0
 104.5 359 102.5 357 99 357 c 0
 98 357 96.5 357.5 94.5 358.5 c 2
 89.5 360 l 2xec
341 353.5 m 0xee
 341 330 326 313.5 293 312 c 1
 293 104.5 l 2
 293 37.5 248 -3 166 -3 c 0
 83.5 -3 38.5 37.5 38.5 104.5 c 2
 38.5 317 l 2
 38.5 323.5 44.5 327 57.5 327 c 2
 61 327 l 2
 74 327 79.5 323.5 79.5 317 c 2
 79.5 103 l 2
 79.5 61.5 116.5 32.5 166 32.5 c 0
 216 32.5 252 62 252 103 c 2
 252 317 l 2
 252 323.5 257.5 327 270.5 327 c 2xec
 287 327 l 2
 307 327 312.5 335 312.5 342.5 c 0
 314 356.5 301.5 366 300 371.5 c 0
 300 374 301.5 377 304 379 c 2
 315.5 386.5 l 2
 317 387.5 319 388 321 388 c 0
 331.5 388 341 367 341 353.5 c 0xee
EndSplineSet
Position2: "'cpsp' Capital Spacing lookup 0 subtable" dx=5 dy=0 dh=10 dv=0
EndChar

StartChar: Uhungarumlaut
Encoding: 368 368 169
Width: 332
VWidth: 466
GlyphClass: 2
Flags: MW
HStem: -3 35.5<141.25 191 141.25 207> 307 20G<57.5 61 61 67.5 270.5 274.5 274.5 281> 355 68.5<121 177.5 162.5 198>
VStem: 38.5 41<104.5 317> 252 41<103 104.5 104.5 317>
AnchorPoint: "Anchor-1" 166 326 basechar 0
AnchorPoint: "Anchor-0" 167 0 basechar 0
LayerCount: 2
Back
Fore
SplineSet
124.5 355 m 0
 117.5 355 114 356.5 114 360 c 0
 114 364.5 119.5 374 141 411.5 c 0
 146 420.5 155 423.5 170 423.5 c 0
 185 423.5 192.5 422 192.5 417.5 c 0
 192.5 412.5 187.5 408 148.5 363.5 c 0
 143.5 358 134.5 355 124.5 355 c 0
193 355 m 0
 186 355 182.5 356.5 182.5 360 c 0
 182.5 364.5 188 374 209.5 411.5 c 0
 214.5 420.5 223.5 423.5 238.5 423.5 c 0
 253.5 423.5 261 422 261 417.5 c 0
 261 412.5 256 408 217 363.5 c 0
 212 358 203 355 193 355 c 0
166 -3 m 0
 83.5 -3 38.5 37.5 38.5 104.5 c 2
 38.5 317 l 2
 38.5 323.5 44.5 327 57.5 327 c 2
 61 327 l 2
 74 327 79.5 323.5 79.5 317 c 2
 79.5 103 l 2
 79.5 61.5 116.5 32.5 166 32.5 c 0
 216 32.5 252 62 252 103 c 2
 252 317 l 2
 252 323.5 257.5 327 270.5 327 c 2
 274.5 327 l 2
 287.5 327 293 323.5 293 317 c 2xd8
 293 104.5 l 2
 293 37.5 248 -3 166 -3 c 0
EndSplineSet
Position2: "'cpsp' Capital Spacing lookup 0 subtable" dx=5 dy=0 dh=10 dv=0
EndChar

StartChar: Umacron
Encoding: 362 362 170
Width: 332
VWidth: 466
GlyphClass: 2
Flags: MW
HStem: -3 35.5<141.25 191 141.25 207> 307 20G<57.5 61 61 67.5 270.5 274.5 274.5 281> 367.5 33<110.75 218 114 218>
VStem: 38.5 41<104.5 317> 104.5 122.5<381.5 386.5 376.75 391.25> 252 41<103 104.5 104.5 317>
AnchorPoint: "Anchor-1" 166 326 basechar 0
AnchorPoint: "Anchor-0" 167 0 basechar 0
LayerCount: 2
Back
Fore
SplineSet
114 367.5 m 2
 107.5 367.5 104.5 372 104.5 381.5 c 2
 104.5 386.5 l 2
 104.5 396 107.5 400.5 114 400.5 c 2
 218 400.5 l 2
 224.5 400.5 227 396 227 386.5 c 2
 227 381.5 l 2
 227 372 224.5 367.5 218 367.5 c 2
 114 367.5 l 2
166 -3 m 0xf4
 83.5 -3 38.5 37.5 38.5 104.5 c 2
 38.5 317 l 2
 38.5 323.5 44.5 327 57.5 327 c 2
 61 327 l 2
 74 327 79.5 323.5 79.5 317 c 2
 79.5 103 l 2
 79.5 61.5 116.5 32.5 166 32.5 c 0
 216 32.5 252 62 252 103 c 2
 252 317 l 2
 252 323.5 257.5 327 270.5 327 c 2
 274.5 327 l 2
 287.5 327 293 323.5 293 317 c 2
 293 104.5 l 2
 293 37.5 248 -3 166 -3 c 0xf4
EndSplineSet
Position2: "'cpsp' Capital Spacing lookup 0 subtable" dx=5 dy=0 dh=10 dv=0
EndChar

StartChar: Uogonek
Encoding: 370 370 171
Width: 332
VWidth: 466
GlyphClass: 2
Flags: MW
HStem: -85.5 33<219 228 219 230.75> -3 35.5<141.25 166 166 173> -0.5 21G<201 201> 307 20G<57.5 61 61 67.5 270.5 274.5 274.5 281>
VStem: 38.5 41<104.5 317> 164 31.5<-40.25 -33.25> 252 41<103 104.5 104.5 317>
AnchorPoint: "Anchor-1" 166 326 basechar 0
AnchorPoint: "Anchor-0" 167 0 basechar 0
LayerCount: 2
Back
Fore
SplineSet
274.5 327 m 2xde
 287.5 327 293 323.5 293 317 c 2
 293 104.5 l 2
 293 47.5 260.5 10 201 0 c 1
 201 -0.5 l 2xbe
 201 -7 195.5 -17.5 195.5 -29 c 0
 195.5 -51.5 213.5 -52.5 224.5 -52.5 c 0
 231.5 -52.5 241 -48 248.5 -48 c 0
 254 -48 257.5 -51.5 257.5 -59.5 c 0
 257.5 -80.5 242.5 -85.5 219 -85.5 c 0
 169.5 -85.5 164 -51.5 164 -37.5 c 0
 164 -29 165.5 -13 173 -3 c 1
 166 -3 l 2
 83.5 -3 38.5 37.5 38.5 104.5 c 2
 38.5 317 l 2
 38.5 323.5 44.5 327 57.5 327 c 2
 61 327 l 2
 74 327 79.5 323.5 79.5 317 c 2
 79.5 103 l 2
 79.5 61.5 116.5 32.5 166 32.5 c 0
 216 32.5 252 62 252 103 c 2
 252 317 l 2
 252 323.5 257.5 327 270.5 327 c 2
 274.5 327 l 2xde
EndSplineSet
Position2: "'cpsp' Capital Spacing lookup 0 subtable" dx=5 dy=0 dh=10 dv=0
EndChar

